<svg width="65" height="68" viewBox="0 0 65 68" fill="none" xmlns="http://www.w3.org/2000/svg">
<rect opacity="0.12" y="0.998047" width="65" height="65" rx="8" fill="#F58986"/>
<g filter="url(#filter0_d_1110_8957)">
<path opacity="0.3" d="M51.25 25.6418V37.0605L48.1938 34.4355C46.7313 33.1793 44.3687 33.1793 42.9062 34.4355L35.1063 41.1293C33.6438 42.3855 31.2812 42.3855 29.8187 41.1293L29.1812 40.6043C27.85 39.4418 25.7313 39.3293 24.2313 40.3418L15.0063 46.5293L14.8 46.6793C14.1062 45.1793 13.75 43.398 13.75 41.3543V25.6418C13.75 18.8168 17.8187 14.748 24.6438 14.748H40.3563C47.1813 14.748 51.25 18.8168 51.25 25.6418Z" fill="#F58986"/>
<path d="M26.8751 30.4611C29.3397 30.4611 31.3376 28.4632 31.3376 25.9986C31.3376 23.5341 29.3397 21.5361 26.8751 21.5361C24.4105 21.5361 22.4126 23.5341 22.4126 25.9986C22.4126 28.4632 24.4105 30.4611 26.8751 30.4611Z" fill="#F58986"/>
<path d="M51.2496 37.0604V41.3541C51.2496 48.1791 47.1808 52.2479 40.3558 52.2479H24.6433C19.8621 52.2479 16.4121 50.2416 14.7996 46.6791L15.0058 46.5291L24.2308 40.3416C25.7308 39.3291 27.8496 39.4416 29.1808 40.6041L29.8183 41.1291C31.2808 42.3854 33.6433 42.3854 35.1058 41.1291L42.9058 34.4354C44.3683 33.1791 46.7308 33.1791 48.1933 34.4354L51.2496 37.0604Z" fill="#F58986"/>
</g>
<defs>
<filter id="filter0_d_1110_8957" x="0" y="5.99805" width="65" height="65" filterUnits="userSpaceOnUse" color-interpolation-filters="sRGB">
<feFlood flood-opacity="0" result="BackgroundImageFix"/>
<feColorMatrix in="SourceAlpha" type="matrix" values="0 0 0 0 0 0 0 0 0 0 0 0 0 0 0 0 0 0 127 0" result="hardAlpha"/>
<feOffset dy="5"/>
<feGaussianBlur stdDeviation="5"/>
<feColorMatrix type="matrix" values="0 0 0 0 0.960784 0 0 0 0 0.537255 0 0 0 0 0.52549 0 0 0 0.28 0"/>
<feBlend mode="normal" in2="BackgroundImageFix" result="effect1_dropShadow_1110_8957"/>
<feBlend mode="normal" in="SourceGraphic" in2="effect1_dropShadow_1110_8957" result="shape"/>
</filter>
</defs>
</svg>
