<svg width="65" height="68" viewBox="0 0 65 68" fill="none" xmlns="http://www.w3.org/2000/svg">
<rect opacity="0.06" y="0.998047" width="65" height="65" rx="8" fill="#5E5F6E"/>
<g filter="url(#filter0_d_1110_8861)">
<path opacity="0.3" d="M48.4375 30.1043H43.0187C38.575 30.1043 34.9562 26.4855 34.9562 22.0418V16.623C34.9562 15.5918 34.1125 14.748 33.0812 14.748H25.1312C19.3562 14.748 14.6875 18.498 14.6875 25.1918V41.8043C14.6875 48.4981 19.3562 52.2481 25.1312 52.2481H39.8687C45.6437 52.2481 50.3125 48.4981 50.3125 41.8043V31.9793C50.3125 30.948 49.4687 30.1043 48.4375 30.1043Z" fill="#5E5F6E"/>
<path d="M39.6249 15.1427C38.8562 14.3739 37.5249 14.8989 37.5249 15.9677V22.5114C37.5249 25.249 39.8499 27.5177 42.6812 27.5177C44.4624 27.5365 46.9374 27.5365 49.0562 27.5365C50.1249 27.5365 50.6874 26.2802 49.9374 25.5302C47.2374 22.8115 42.3999 17.9177 39.6249 15.1427Z" fill="#5E5F6E"/>
</g>
<defs>
<filter id="filter0_d_1110_8861" x="0" y="5.99805" width="65" height="65" filterUnits="userSpaceOnUse" color-interpolation-filters="sRGB">
<feFlood flood-opacity="0" result="BackgroundImageFix"/>
<feColorMatrix in="SourceAlpha" type="matrix" values="0 0 0 0 0 0 0 0 0 0 0 0 0 0 0 0 0 0 127 0" result="hardAlpha"/>
<feOffset dy="5"/>
<feGaussianBlur stdDeviation="5"/>
<feColorMatrix type="matrix" values="0 0 0 0 0.368627 0 0 0 0 0.372549 0 0 0 0 0.431373 0 0 0 0.14 0"/>
<feBlend mode="normal" in2="BackgroundImageFix" result="effect1_dropShadow_1110_8861"/>
<feBlend mode="normal" in="SourceGraphic" in2="effect1_dropShadow_1110_8861" result="shape"/>
</filter>
</defs>
</svg>
