<svg width="65" height="67" viewBox="0 0 65 67" fill="none" xmlns="http://www.w3.org/2000/svg">
<rect opacity="0.12" width="65" height="65" rx="8" fill="#42B0FF"/>
<g filter="url(#filter0_d_1110_8906)">
<path opacity="0.3" d="M45.8497 27.0998C45.1184 27.0998 44.5372 27.6811 44.5372 28.4123V31.3748C44.5372 38.0123 39.1372 43.4123 32.4997 43.4123C25.8622 43.4123 20.4622 38.0123 20.4622 31.3748V28.3936C20.4622 27.6623 19.8809 27.0811 19.1497 27.0811C18.4184 27.0811 17.8372 27.6623 17.8372 28.3936V31.3561C17.8372 38.9873 23.7059 45.2686 31.1872 45.9436V49.9373C31.1872 50.6685 31.7684 51.2498 32.4997 51.2498C33.2309 51.2498 33.8122 50.6685 33.8122 49.9373V45.9436C41.2747 45.2873 47.1622 38.9873 47.1622 31.3561V28.3936C47.1434 27.6811 46.5622 27.0998 45.8497 27.0998Z" fill="#42B0FF"/>
<path d="M32.5001 13.75C27.9251 13.75 24.2126 17.4625 24.2126 22.0375V31.6375C24.2126 36.2125 27.9251 39.925 32.5001 39.925C37.0751 39.925 40.7876 36.2125 40.7876 31.6375V22.0375C40.7876 17.4625 37.0751 13.75 32.5001 13.75ZM34.9564 26.7812C34.8251 27.2687 34.3939 27.5875 33.9064 27.5875C33.8126 27.5875 33.7189 27.5687 33.6251 27.55C32.8939 27.3437 32.1251 27.3437 31.3939 27.55C30.7939 27.7187 30.2126 27.3625 30.0626 26.7812C29.8939 26.2 30.2501 25.6 30.8314 25.45C31.9376 25.15 33.1001 25.15 34.2064 25.45C34.7689 25.6 35.1064 26.2 34.9564 26.7812ZM35.9501 23.1438C35.7814 23.5938 35.3689 23.8562 34.9189 23.8562C34.7876 23.8562 34.6751 23.8375 34.5439 23.8C33.2314 23.3125 31.7689 23.3125 30.4564 23.8C29.8939 24.0062 29.2564 23.7063 29.0501 23.1438C28.8439 22.5813 29.1439 21.9437 29.7064 21.7562C31.5064 21.1 33.4939 21.1 35.2939 21.7562C35.8564 21.9625 36.1564 22.5813 35.9501 23.1438Z" fill="#42B0FF"/>
</g>
<defs>
<filter id="filter0_d_1110_8906" x="0" y="5" width="65" height="65" filterUnits="userSpaceOnUse" color-interpolation-filters="sRGB">
<feFlood flood-opacity="0" result="BackgroundImageFix"/>
<feColorMatrix in="SourceAlpha" type="matrix" values="0 0 0 0 0 0 0 0 0 0 0 0 0 0 0 0 0 0 127 0" result="hardAlpha"/>
<feOffset dy="5"/>
<feGaussianBlur stdDeviation="5"/>
<feColorMatrix type="matrix" values="0 0 0 0 0.258824 0 0 0 0 0.690196 0 0 0 0 1 0 0 0 0.28 0"/>
<feBlend mode="normal" in2="BackgroundImageFix" result="effect1_dropShadow_1110_8906"/>
<feBlend mode="normal" in="SourceGraphic" in2="effect1_dropShadow_1110_8906" result="shape"/>
</filter>
</defs>
</svg>
