<svg width="375" height="427" viewBox="0 0 375 427" fill="none" xmlns="http://www.w3.org/2000/svg">
<g opacity="0.7" clip-path="url(#clip0_33_4021)">
<path d="M265.522 261.768C263.815 259.82 262.786 257.372 262.59 254.791L266.728 253.051C266.925 255.633 267.957 258.082 269.669 260.028L265.522 261.768Z" fill="url(#paint0_linear_33_4021)"/>
<path d="M234.903 305.281C232.749 304.767 230.821 303.569 229.407 301.867L231.435 298.613C232.848 300.315 234.777 301.513 236.93 302.026L234.903 305.281Z" fill="url(#paint1_linear_33_4021)"/>
<path d="M181.984 298.22C178.901 300.091 175.294 300.913 171.705 300.562L170.314 294.472C173.904 294.822 177.511 294 180.593 292.129L181.984 298.22Z" fill="url(#paint2_linear_33_4021)"/>
<path d="M157.848 275.48C153.773 274.667 150.071 272.56 147.293 269.473L149.077 266.001C151.851 269.093 155.555 271.202 159.633 272.008L157.848 275.48Z" fill="url(#paint3_linear_33_4021)"/>
<path d="M128.612 273.389C126.654 275.91 123.928 277.728 120.846 278.568L117.813 273.958C120.894 273.114 123.618 271.297 125.579 268.779L128.612 273.389Z" fill="url(#paint4_linear_33_4021)"/>
<path d="M58.15 226.479C55.151 229.759 43.6908 233.172 43.6908 233.172L41.4541 229.257C41.4541 229.257 52.9142 225.827 55.9133 222.564L58.15 226.479Z" fill="url(#paint5_linear_33_4021)"/>
<path d="M26.8779 169.446C23.037 170.07 19.0972 169.43 15.6523 167.622L16.733 160.929C20.1779 162.737 24.1177 163.377 27.9586 162.753L26.8779 169.446Z" fill="url(#paint6_linear_33_4021)"/>
<path d="M5.59989 109.845C2.24115 110.499 -1.23939 110.047 -4.31885 108.557L-3.55652 102.7C-0.465397 104.192 3.02806 104.639 6.39573 103.972L5.59989 109.845Z" fill="url(#paint7_linear_33_4021)"/>
<path d="M135.515 299.994C129.207 300.069 107.618 296.296 107.618 296.296L109.436 293.501C109.436 293.501 131.024 297.283 137.333 297.208L135.515 299.994Z" fill="url(#paint8_linear_33_4021)"/>
<path d="M108.825 198.829C101.645 197.431 93.8125 191.157 93.8125 191.157L95.488 187.911C95.488 187.911 103.321 194.185 110.5 195.582L108.825 198.829Z" fill="url(#paint9_linear_33_4021)"/>
<path d="M168.722 192.872C166.319 192.914 163.966 192.174 162.021 190.764L163.277 186.798C165.225 188.205 167.576 188.945 169.979 188.906L168.722 192.872Z" fill="url(#paint10_linear_33_4021)"/>
<path d="M223.937 252.891C222.829 250.925 222.388 248.653 222.681 246.416L226.526 245.671C226.234 247.91 226.678 250.182 227.791 252.147L223.937 252.891Z" fill="url(#paint11_linear_33_4021)"/>
<path d="M238.899 213.344C234.815 212.152 231.228 209.668 228.678 206.266L232.867 200.209C235.417 203.611 239.003 206.094 243.087 207.287L238.899 213.344Z" fill="url(#paint12_linear_33_4021)"/>
<path d="M266.226 166.928C263.165 164.253 261.06 160.655 260.228 156.679L266.318 153.132C267.147 157.105 269.246 160.702 272.299 163.381L266.226 166.928Z" fill="url(#paint13_linear_33_4021)"/>
<path d="M334.785 206.057C332.611 206.513 330.348 206.252 328.335 205.313L328.771 201.489C330.786 202.428 333.052 202.69 335.229 202.234L334.785 206.057Z" fill="url(#paint14_linear_33_4021)"/>
<path d="M148.19 240.401C146.368 244.039 143.414 246.99 139.771 248.809L134.744 243.789C138.388 241.97 141.342 239.019 143.163 235.381L148.19 240.401Z" fill="url(#paint15_linear_33_4021)"/>
<path d="M209.855 187.936C207.387 189.964 204.327 191.138 201.134 191.282L199.148 186.112C202.344 185.969 205.407 184.795 207.878 182.765L209.855 187.936Z" fill="url(#paint16_linear_33_4021)"/>
<path d="M259.624 203.472C257.638 200.495 256.674 196.954 256.877 193.382L262.866 191.759C262.659 195.33 263.621 198.871 265.606 201.849L259.624 203.472Z" fill="url(#paint17_linear_33_4021)"/>
<path d="M356.189 165.071C354.415 167.69 351.837 169.664 348.843 170.693L345.492 166.342C348.486 165.308 351.064 163.333 352.839 160.712L356.189 165.071Z" fill="url(#paint18_linear_33_4021)"/>
<path d="M119.79 233.189C116.525 231.563 113.878 228.92 112.25 225.659L116.724 221.208C118.352 224.47 120.998 227.113 124.264 228.738L119.79 233.189Z" fill="url(#paint19_linear_33_4021)"/>
<path d="M172.726 228.604C168.633 228.446 164.702 226.963 161.526 224.379L164.039 217.745C167.215 220.329 171.146 221.811 175.239 221.97L172.726 228.604Z" fill="url(#paint20_linear_33_4021)"/>
<path d="M177.175 211.621C174.365 208.565 172.625 204.681 172.216 200.552L178.792 197.615C179.197 201.75 180.938 205.641 183.751 208.701L177.175 211.621Z" fill="url(#paint21_linear_33_4021)"/>
<path d="M284.103 175.855C281.998 179.801 278.667 182.957 274.611 184.849L269.267 179.227C273.324 177.328 276.654 174.167 278.758 170.216L284.103 175.855Z" fill="url(#paint22_linear_33_4021)"/>
<path d="M303.094 77.2167C301.578 79.3576 299.41 80.9513 296.912 81.7596L294.214 78.1035C296.712 77.2947 298.879 75.6975 300.388 73.5522L303.094 77.2167Z" fill="url(#paint23_linear_33_4021)"/>
<path d="M266.31 38.029C265.445 41.2242 263.563 44.0519 260.948 46.0858L256.156 42.9066C258.771 40.8728 260.653 38.045 261.518 34.8499L266.31 38.029Z" fill="url(#paint24_linear_33_4021)"/>
<path d="M45.0399 341.524C40.8417 340.724 37.0188 338.58 34.1494 335.416L37.7768 328.966C40.6488 332.128 44.4702 334.274 48.6673 335.082L45.0399 341.524Z" fill="url(#paint25_linear_33_4021)"/>
<path d="M135.707 345.95C132.221 343.711 129.558 340.402 128.118 336.521L133.722 332.028C135.164 335.906 137.827 339.212 141.312 341.449L135.707 345.95Z" fill="url(#paint26_linear_33_4021)"/>
<path d="M168.32 303.181C165.821 304.409 162.99 304.794 160.253 304.277L159.608 299.492C162.344 300.009 165.174 299.628 167.675 298.404L168.32 303.181Z" fill="url(#paint27_linear_33_4021)"/>
<path d="M190.302 242.224C188.643 244.04 186.438 245.267 184.019 245.722L181.95 241.999C184.368 241.542 186.573 240.315 188.233 238.501L190.302 242.224Z" fill="url(#paint28_linear_33_4021)"/>
<path d="M101.059 242.894C99.3211 246.61 96.4227 249.664 92.7989 251.595L87.6553 246.7C91.2755 244.767 94.1708 241.715 95.9069 238L101.059 242.894Z" fill="url(#paint29_linear_33_4021)"/>
<path d="M94.3571 294.196C93.6558 297.298 91.9655 300.09 89.5402 302.152L84.8154 299.299C87.2407 297.237 88.931 294.446 89.6324 291.343L94.3571 294.196Z" fill="url(#paint30_linear_33_4021)"/>
<path d="M64.9529 292.004C61.1192 291.47 57.5623 289.709 54.8164 286.984L57.7987 280.985C60.5432 283.712 64.1008 285.474 67.9352 286.005L64.9529 292.004Z" fill="url(#paint31_linear_33_4021)"/>
<path d="M11.0783 327.778C9.67222 329.451 7.76208 330.625 5.63303 331.125L3.63086 327.895C5.75921 327.399 7.66786 326.225 9.06773 324.549L11.0783 327.778Z" fill="url(#paint32_linear_33_4021)"/>
<path d="M79.0766 151.325C77.0481 148.462 76.0073 145.017 76.1111 141.511L81.9333 139.754C81.835 143.261 82.8785 146.704 84.9072 149.568L79.0766 151.325Z" fill="url(#paint33_linear_33_4021)"/>
<path d="M18.5006 89.0634C17.0339 92.0353 14.641 94.4515 11.6815 95.9488L7.58496 91.9079C10.5463 90.413 12.9399 87.9961 14.4041 85.0225L18.5006 89.0634Z" fill="url(#paint34_linear_33_4021)"/>
<path d="M196.845 228.972C193.353 229.833 189.675 229.54 186.365 228.136L186.876 221.928C190.186 223.332 193.864 223.626 197.356 222.765L196.845 228.972Z" fill="url(#paint35_linear_33_4021)"/>
<path d="M186.222 168.242C179.169 169.915 177.686 166.769 177.686 166.769L177.971 164.134C177.971 164.134 179.454 167.305 186.507 165.606L186.222 168.242Z" fill="url(#paint36_linear_33_4021)"/>
<path d="M198.336 144.54C196.574 141.925 195.71 138.81 195.873 135.663L201.142 134.208C200.979 137.352 201.844 140.464 203.605 143.076L198.336 144.54Z" fill="url(#paint37_linear_33_4021)"/>
<path d="M224.926 111.301C219.313 107.954 214.203 99.2533 214.203 99.2533L216.716 98.4836C216.716 98.4836 221.826 107.176 227.439 110.531L224.926 111.301Z" fill="url(#paint38_linear_33_4021)"/>
<path d="M126.283 214.976C123.962 211.645 122.787 207.652 122.932 203.597L129.692 201.59C129.558 205.649 130.748 209.643 133.085 212.968L126.283 214.976Z" fill="url(#paint39_linear_33_4021)"/>
<path d="M198.847 195.658C196.141 194.539 193.869 192.575 192.372 190.061L195.722 186.221C197.217 188.737 199.49 190.702 202.198 191.818L198.847 195.658Z" fill="url(#paint40_linear_33_4021)"/>
<path d="M237.609 259.894C235.126 263.543 231.525 266.291 227.347 267.725L222.689 261.643C226.87 260.214 230.473 257.466 232.951 253.812L237.609 259.894Z" fill="url(#paint41_linear_33_4021)"/>
<path d="M321.197 290.08C318.475 291.609 315.33 292.217 312.234 291.811L311.203 286.507C314.3 286.912 317.445 286.305 320.167 284.775L321.197 290.08Z" fill="url(#paint42_linear_33_4021)"/>
<path d="M323.778 364.213C316.238 365.284 300.958 360.373 300.958 360.373L302.282 352.768C302.282 352.768 317.562 357.679 325.101 356.608L323.778 364.213Z" fill="url(#paint43_linear_33_4021)"/>
<path d="M350.534 398.49C347.621 397.425 345.133 395.443 343.447 392.842L346.798 388.659C348.489 391.259 350.979 393.24 353.894 394.306L350.534 398.49Z" fill="url(#paint44_linear_33_4021)"/>
<path d="M342.987 89.1971C339.79 90.3638 336.3 90.4607 333.043 89.4732L332.875 83.6168C336.132 84.604 339.621 84.5101 342.819 83.3491L342.987 89.1971Z" fill="url(#paint45_linear_33_4021)"/>
<path d="M255.461 81.7595C253.272 78.7868 252.111 75.1838 252.152 71.4941L258.251 69.5281C258.212 73.2174 259.373 76.8196 261.56 79.7935L255.461 81.7595Z" fill="url(#paint46_linear_33_4021)"/>
<path d="M219.178 61.6136C217.264 62.8368 215.002 63.4037 212.736 63.2283L211.781 59.4133C214.047 59.5881 216.309 59.0213 218.223 57.7986L219.178 61.6136Z" fill="url(#paint47_linear_33_4021)"/>
<path d="M141.086 138.299C139.647 140.063 137.675 141.313 135.465 141.863L133.345 138.516C135.556 137.967 137.528 136.716 138.966 134.952L141.086 138.299Z" fill="url(#paint48_linear_33_4021)"/>
<path d="M9.68781 40.9489C7.48583 37.9836 6.30966 34.3834 6.33689 30.6918L12.4356 28.7341C12.4096 32.4255 13.5856 36.0254 15.7865 38.9912L9.68781 40.9489Z" fill="url(#paint49_linear_33_4021)"/>
<path d="M377.551 244.793C372.927 241.622 369.434 229.65 369.434 229.65L371.696 227.492C371.696 227.492 375.189 239.464 379.813 242.643L377.551 244.793Z" fill="url(#paint50_linear_33_4021)"/>
<path d="M350.878 142.382C347.981 143.756 344.715 144.155 341.571 143.519L340.901 137.998C344.044 138.639 347.31 138.242 350.208 136.868L350.878 142.382Z" fill="url(#paint51_linear_33_4021)"/>
<path d="M255.83 155.901C253.543 161.674 246.28 169.329 246.28 169.329L243.85 166.71C243.85 166.71 251.113 159.064 253.4 153.324L255.83 155.901Z" fill="url(#paint52_linear_33_4021)"/>
<path d="M340.767 15.1055C335.892 17.8915 326.408 19.205 326.408 19.205L326.166 15.984C326.166 15.984 335.623 14.6705 340.524 11.8845L340.767 15.1055Z" fill="url(#paint53_linear_33_4021)"/>
<path d="M259.758 114.999C257.077 116.151 254.093 116.403 251.255 115.718L250.82 110.699C253.657 111.383 256.641 111.131 259.323 109.979L259.758 114.999Z" fill="url(#paint54_linear_33_4021)"/>
<path d="M207.861 157.733C207.078 160.578 205.39 163.091 203.053 164.895L198.797 162.05C201.132 160.245 202.819 157.732 203.605 154.889L207.861 157.733Z" fill="url(#paint55_linear_33_4021)"/>
<path d="M174.1 362.9C172.44 365.155 170.086 366.806 167.399 367.601L164.609 363.653C167.294 362.851 169.645 361.201 171.311 358.951L174.1 362.9Z" fill="url(#paint56_linear_33_4021)"/>
<path d="M265.204 400.113C260.579 396.933 257.086 384.961 257.086 384.961L259.339 382.811C259.339 382.811 262.841 394.775 267.465 397.954L265.204 400.113Z" fill="url(#paint57_linear_33_4021)"/>
<path d="M286.549 304.796C284.262 310.568 276.999 318.224 276.999 318.224L274.57 315.605C274.57 315.605 281.833 307.958 284.12 302.219L286.549 304.796Z" fill="url(#paint58_linear_33_4021)"/>
<path d="M172.886 76.7984C170.532 78.3629 162.833 79.4923 162.833 79.4923L162.506 78.3461C162.506 78.3461 170.046 76.6729 172.417 75.1418L172.886 76.7984Z" fill="url(#paint59_linear_33_4021)"/>
<path d="M168.345 131.874C166.563 130.071 165.414 127.74 165.07 125.231L167.047 124.26C167.388 126.769 168.535 129.1 170.314 130.903L168.345 131.874Z" fill="url(#paint60_linear_33_4021)"/>
<path d="M114.069 139.997C112.348 141.792 110.09 142.981 107.635 143.385L105.616 139.57C108.074 139.167 110.335 137.978 112.058 136.182L114.069 139.997Z" fill="url(#paint61_linear_33_4021)"/>
<path d="M154.538 141.149L152.67 145.106L158.558 147.878L160.426 143.921L154.538 141.149Z" fill="url(#paint62_linear_33_4021)"/>
<path d="M158.787 147.41C156.584 147.14 154.528 146.169 152.922 144.64L154.598 141.152C156.203 142.681 158.26 143.652 160.462 143.921L158.787 147.41Z" fill="url(#paint63_linear_33_4021)"/>
<path d="M229.019 91.1947L226.953 96.4065L234.703 99.4709L236.769 94.2591L229.019 91.1947Z" fill="url(#paint64_linear_33_4021)"/>
<path d="M234.961 98.8685C232.115 98.7095 229.397 97.6353 227.212 95.8064L229.03 91.2134C231.21 93.0442 233.927 94.1188 236.771 94.2754L234.961 98.8685Z" fill="url(#paint65_linear_33_4021)"/>
<path d="M32.3648 201.104C29.2361 202.537 25.7266 202.919 22.3623 202.192L21.7173 196.269C25.0786 196.998 28.5863 196.616 31.7114 195.181L32.3648 201.104Z" fill="url(#paint66_linear_33_4021)"/>
<path d="M28.7206 136.341C26.8442 140.158 23.7782 143.264 19.9831 145.193L14.7222 140.005C18.5194 138.081 21.5885 134.978 23.4681 131.162L28.7206 136.341Z" fill="url(#paint67_linear_33_4021)"/>
<path d="M230.069 326.816C227.875 324.557 226.475 321.647 226.082 318.525L231.016 316.166C231.408 319.287 232.805 322.196 234.995 324.456L230.069 326.816Z" fill="url(#paint68_linear_33_4021)"/>
<path d="M351.8 330.606C348.613 329.604 345.838 327.595 343.892 324.883L347.293 320.19C349.236 322.905 352.012 324.913 355.201 325.912L351.8 330.606Z" fill="url(#paint69_linear_33_4021)"/>
<path d="M140.374 90.2264C137.545 88.4534 135.369 85.811 134.174 82.6967L138.648 79.0239C139.847 82.1385 142.025 84.7806 144.855 86.5536L140.374 90.2264Z" fill="url(#paint70_linear_33_4021)"/>
<path d="M180.4 60.1494C179.761 56.9101 180.193 53.551 181.632 50.5784L187.32 51.3062C185.883 54.2764 185.451 57.6323 186.088 60.8689L180.4 60.1494Z" fill="url(#paint71_linear_33_4021)"/>
<path d="M190.947 114.999C188.802 112.841 187.414 110.046 186.993 107.034L191.726 104.691C192.147 107.703 193.535 110.498 195.68 112.656L190.947 114.999Z" fill="url(#paint72_linear_33_4021)"/>
<path d="M89.5317 90.3351C86.557 90.3128 83.67 89.3263 81.3052 87.524L82.9806 82.6465C85.3455 84.4488 88.2325 85.4353 91.2072 85.4575L89.5317 90.3351Z" fill="url(#paint73_linear_33_4021)"/>
<path d="M250.861 358.256C247.528 357.829 244.423 356.332 242.015 353.99L244.528 348.744C246.938 351.088 250.046 352.585 253.383 353.011L250.861 358.256Z" fill="url(#paint74_linear_33_4021)"/>
<path d="M201 380.962C198.968 378.765 197.706 375.966 197.406 372.989L202.139 370.856C202.444 373.831 203.705 376.628 205.733 378.829L201 380.962Z" fill="url(#paint75_linear_33_4021)"/>
<path d="M141.555 419.112C139.483 421.22 136.781 422.597 133.856 423.036L131.527 418.476C134.45 418.038 137.152 416.664 139.226 414.561L141.555 419.112Z" fill="url(#paint76_linear_33_4021)"/>
<path d="M122.613 402.363C121.549 405.701 119.426 408.603 116.565 410.629L111.656 407.048C114.513 405.02 116.633 402.119 117.696 398.782L122.613 402.363Z" fill="url(#paint77_linear_33_4021)"/>
<path d="M300.087 44.7722C297.045 42.2381 293.801 39.9576 290.386 37.9537C290.604 38.0792 288.04 36.6737 288.049 37.0251C288.107 42.8145 283.022 47.4829 278.423 50.2438C275.826 51.7933 272.903 52.7185 269.887 52.9461C268.59 53.0118 267.291 52.9219 266.016 52.6784C265.422 52.567 264.835 52.4217 264.257 52.2433C264.048 52.1848 263.838 52.1011 263.637 52.0258L262.892 51.5573C261.841 50.799 260.691 50.1881 259.474 49.7418C258.426 49.4574 259.859 50.8211 259.792 50.7541C261.01 51.8963 262.303 52.9556 263.662 53.9249C270.708 59.271 278.297 64.3075 287.429 61.8729C293.812 60.1996 301.829 53.8329 301.745 46.6296C301.737 46.0021 300.439 45.0818 300.087 44.7722Z" fill="url(#paint78_linear_33_4021)"/>
<path d="M36.9893 258.254C35.23 257.376 33.387 256.581 31.544 255.92C29.701 255.259 27.8329 254.565 25.9312 254.046C26.1658 254.113 23.3343 253.393 23.418 253.728C24.9176 259.317 21.131 265.106 17.378 268.913C15.2465 271.056 12.6453 272.674 9.77979 273.64C8.53974 274.028 7.25694 274.264 5.95974 274.343C5.35425 274.376 4.74736 274.376 4.14187 274.343C3.92406 274.343 3.70625 274.343 3.48844 274.284L2.65071 274.016C1.43405 273.542 0.156553 273.24 -1.1442 273.121C-2.23325 273.121 -0.507526 274.066 -0.591299 274.025C0.873469 274.835 2.39027 275.548 3.9492 276.158C12.1087 279.597 20.7038 282.6 28.947 277.982C34.7106 274.753 40.9015 266.629 38.9998 259.668C38.8993 259.041 37.3914 258.463 36.9893 258.254Z" fill="url(#paint79_linear_33_4021)"/>
<path d="M194.34 338.378C198.646 337.541 204.3 330.924 204.133 328.196C203.898 328.665 197.071 327.41 197.331 327.058C196.753 329.568 189.984 333.684 185.938 332.99C186.105 333.082 189.288 335.968 189.724 336.094C189.975 336.412 193.862 338.604 194.34 338.378Z" fill="url(#paint80_linear_33_4021)"/>
<path d="M236.595 177.57C236.037 182.735 235.478 187.897 234.92 193.056C234.979 192.479 244.135 192.797 244.244 192.086C244.802 186.926 245.361 181.764 245.919 176.6C245.861 177.169 236.704 176.851 236.595 177.57Z" fill="url(#paint81_linear_33_4021)"/>
<path d="M181.824 91.1047L195.848 99.1028C195.329 98.81 199.433 90.2429 198.788 89.8999L184.765 81.9436C185.284 82.2364 181.179 90.8035 181.824 91.1465V91.1047Z" fill="url(#paint82_linear_33_4021)"/>
<path d="M318.408 267.541C318.785 266.988 313.273 260.17 312.862 259.601C312.452 259.032 306.906 252.138 307.149 251.77C302.416 258.935 295.669 264.544 287.755 267.892C288.878 267.407 297.624 284.265 299.014 283.671C306.929 280.32 313.676 274.708 318.408 267.541Z" fill="url(#paint83_linear_33_4021)"/>
<path d="M42.2918 115.735C42.6772 115.986 47.3182 112.104 47.6868 111.811C48.0554 111.518 52.7551 107.628 53.0148 107.778C48.0129 104.616 44.0535 100.054 41.63 94.6602C41.9735 95.4215 30.4715 101.671 30.9071 102.616C33.3242 108.014 37.2851 112.578 42.2918 115.735Z" fill="url(#paint84_linear_33_4021)"/>
<path d="M301.771 209.019C304.8 215.273 309.309 220.697 314.906 224.823C315.241 225.074 317.537 224.89 317.746 224.898H324.607C326.894 224.898 326.031 226.178 328.318 226.153C329.261 226.045 330.211 226.023 331.158 226.086C325.568 221.961 321.064 216.544 318.031 210.299C317.671 209.563 312.284 208.918 311.48 208.918C310.676 208.918 302.039 209.554 301.779 209.019H301.771Z" fill="url(#paint85_linear_33_4021)"/>
<path d="M93.7954 368.622C102.146 365.465 109.604 360.329 115.526 353.655C115.886 353.253 115.911 350.308 115.937 350.041C116.221 347.118 116.501 344.198 116.774 341.281C117.048 338.364 117.297 335.447 117.52 332.53C117.52 332.446 117.52 329.183 117.754 328.891C111.836 335.565 104.381 340.702 96.0322 343.858C95.0436 344.234 94.9012 355.203 94.8091 356.232C94.7169 357.261 94.541 368.354 93.8289 368.622H93.7954Z" fill="url(#paint86_linear_33_4021)"/>
<path d="M122.12 110.648C121.667 110.263 118.995 108.565 118.928 107.971C119.489 112.991 115.451 116.153 111.681 118.621C108.582 120.663 104.862 121.851 101.335 120.847L105.767 125.49C109.905 127.74 114.236 126.327 118.015 124.043C121.793 121.759 125.806 118.27 125.253 113.384C125.177 112.698 122.605 111.066 122.12 110.648Z" fill="url(#paint87_linear_33_4021)"/>
<path d="M68.8481 266.428C69.4197 266.658 69.8996 267.07 70.2136 267.599L69.5183 268.436C69.2043 267.906 68.7244 267.495 68.1528 267.265L68.8481 266.428Z" fill="url(#paint88_linear_33_4021)"/>
<path d="M70.7161 253.937C71.2292 253.82 71.7665 253.87 72.2492 254.08L72.1654 254.992C71.6841 254.776 71.1451 254.726 70.6323 254.849L70.7161 253.937Z" fill="url(#paint89_linear_33_4021)"/>
<path d="M82.7378 249.813C83.1932 249.087 83.8724 248.529 84.6729 248.223L85.6196 249.369C84.819 249.676 84.1399 250.234 83.6844 250.959L82.7378 249.813Z" fill="url(#paint90_linear_33_4021)"/>
<path d="M91.6678 251.536C92.6228 251.273 93.6378 251.329 94.558 251.695L94.4659 253.368C93.5442 253.007 92.53 252.954 91.5757 253.218L91.6678 251.536Z" fill="url(#paint91_linear_33_4021)"/>
<path d="M96.7363 249.403C96.8872 248.661 97.2717 247.987 97.8337 247.479L98.9814 248.131C98.4161 248.636 98.0309 249.312 97.884 250.055L96.7363 249.403Z" fill="url(#paint92_linear_33_4021)"/>
<path d="M112.971 245.37C113.588 245.296 114.211 245.425 114.747 245.738L114.521 246.792C113.988 246.479 113.368 246.347 112.753 246.416L112.971 245.37Z" fill="url(#paint93_linear_33_4021)"/>
<path d="M129.483 260.689C130.23 260.139 131.135 259.846 132.063 259.852L132.549 261.383C131.618 261.376 130.71 261.669 129.96 262.22L129.483 260.689Z" fill="url(#paint94_linear_33_4021)"/>
<path d="M140.374 271.105C141.018 270.609 141.805 270.333 142.619 270.318L143.088 271.657C142.275 271.666 141.487 271.939 140.843 272.435L140.374 271.105Z" fill="url(#paint95_linear_33_4021)"/>
<path d="M334.07 233.501L331.82 235.062L332.872 236.573L335.122 235.012L334.07 233.501Z" fill="url(#paint96_linear_33_4021)"/>
<path d="M331.954 235.272C332.513 234.522 333.301 233.973 334.199 233.708L335.129 235.038C334.229 235.303 333.438 235.852 332.876 236.602L331.954 235.272Z" fill="url(#paint97_linear_33_4021)"/>
<path d="M351.49 249.779C352.259 249.115 353.223 248.719 354.237 248.65L354.916 250.281C353.899 250.35 352.932 250.746 352.16 251.411L351.49 249.779Z" fill="url(#paint98_linear_33_4021)"/>
<path d="M342.769 262.287C343.121 261.836 343.608 261.511 344.16 261.358L344.712 262.195C344.161 262.347 343.674 262.673 343.322 263.123L342.769 262.287Z" fill="url(#paint99_linear_33_4021)"/>
<path d="M323.393 263.592C323.922 263.68 324.409 263.935 324.783 264.32L324.348 265.157C323.977 264.768 323.488 264.512 322.957 264.429L323.393 263.592Z" fill="url(#paint100_linear_33_4021)"/>
<path d="M328.519 272.284C329.348 271.708 330.341 271.415 331.351 271.448L331.853 273.121C330.841 273.088 329.845 273.381 329.013 273.958L328.519 272.284Z" fill="url(#paint101_linear_33_4021)"/>
<path d="M333.11 284.231C334.064 284.066 335.045 284.212 335.908 284.65L335.665 286.323C334.802 285.887 333.821 285.74 332.867 285.905L333.11 284.231Z" fill="url(#paint102_linear_33_4021)"/>
<path d="M315.593 291.125C315.829 290.652 316.215 290.27 316.69 290.038L317.335 290.69C316.86 290.923 316.474 291.305 316.238 291.778L315.593 291.125Z" fill="url(#paint103_linear_33_4021)"/>
<path d="M187.562 304.796C187.565 303.828 187.879 302.886 188.459 302.11L190.051 302.637C189.471 303.413 189.157 304.355 189.154 305.323L187.562 304.796Z" fill="url(#paint104_linear_33_4021)"/>
<path d="M180.04 322.532C180.345 321.827 180.871 321.24 181.54 320.859L182.52 321.746C181.848 322.125 181.319 322.712 181.012 323.419L180.04 322.532Z" fill="url(#paint105_linear_33_4021)"/>
<path d="M167.793 324.523C168.538 324.945 169.126 325.596 169.468 326.381L168.371 327.36C168.03 326.577 167.441 325.927 166.695 325.511L167.793 324.523Z" fill="url(#paint106_linear_33_4021)"/>
<path d="M151.323 342.979C151.42 342.232 151.758 341.536 152.286 340.997L153.459 341.565C152.935 342.107 152.597 342.802 152.496 343.548L151.323 342.979Z" fill="url(#paint107_linear_33_4021)"/>
<path d="M144.177 362.096C144.641 361.336 145.341 360.749 146.171 360.423L147.167 361.603C146.338 361.929 145.638 362.516 145.174 363.276L144.177 362.096Z" fill="url(#paint108_linear_33_4021)"/>
<path d="M246.463 106.323C247.335 106.333 248.179 106.627 248.868 107.16L248.39 108.582C247.702 108.048 246.857 107.754 245.986 107.745L246.463 106.323Z" fill="url(#paint109_linear_33_4021)"/>
<path d="M235.69 112.932C236.578 112.532 237.571 112.429 238.522 112.639L238.698 114.313C237.747 114.103 236.754 114.205 235.866 114.605L235.69 112.932Z" fill="url(#paint110_linear_33_4021)"/>
<path d="M236.553 117.023C237.478 117.372 238.264 118.012 238.79 118.847L237.709 120.178C237.179 119.344 236.395 118.701 235.473 118.345L236.553 117.023Z" fill="url(#paint111_linear_33_4021)"/>
<path d="M217.621 136.023C217.651 134.958 218.024 133.931 218.685 133.095L220.419 133.722C219.758 134.558 219.388 135.586 219.363 136.651L217.621 136.023Z" fill="url(#paint112_linear_33_4021)"/>
<path d="M224.113 159.03C224.206 158.412 224.501 157.842 224.951 157.407L225.914 157.892C225.469 158.334 225.176 158.905 225.076 159.524L224.113 159.03Z" fill="url(#paint113_linear_33_4021)"/>
<path d="M236.126 163.456C235.972 162.684 236.071 161.883 236.411 161.172L237.768 161.331C237.429 162.045 237.329 162.849 237.483 163.623L236.126 163.456Z" fill="url(#paint114_linear_33_4021)"/>
<path d="M152.998 108.13C153.979 107.857 155.022 107.907 155.972 108.272L155.888 110.029C154.938 109.663 153.895 109.614 152.915 109.887L152.998 108.13Z" fill="url(#paint115_linear_33_4021)"/>
<path d="M133.269 116.848C134.25 116.951 135.171 117.371 135.891 118.044L135.179 119.592C134.457 118.922 133.537 118.503 132.557 118.395L133.269 116.848Z" fill="url(#paint116_linear_33_4021)"/>
<path d="M130.899 129.414C131.301 128.888 131.862 128.507 132.499 128.326L133.144 129.272C132.506 129.455 131.945 129.84 131.544 130.368L130.899 129.414Z" fill="url(#paint117_linear_33_4021)"/>
<path d="M132.725 144.732C132.885 144.17 133.223 143.674 133.689 143.319L134.526 143.887C134.061 144.243 133.723 144.739 133.563 145.301L132.725 144.732Z" fill="url(#paint118_linear_33_4021)"/>
<path d="M246.07 300.529C246.044 299.553 246.338 298.595 246.908 297.802L248.533 298.295C247.963 299.089 247.669 300.046 247.695 301.023L246.07 300.529Z" fill="url(#paint119_linear_33_4021)"/>
<path d="M242.024 288.9C241.84 288.164 241.902 287.389 242.2 286.691L243.506 286.8C243.209 287.494 243.147 288.267 243.331 289L242.024 288.9Z" fill="url(#paint120_linear_33_4021)"/>
<path d="M248.499 286.231C249.372 285.941 250.315 285.941 251.188 286.231V287.829C250.316 287.534 249.371 287.534 248.499 287.829V286.231Z" fill="url(#paint121_linear_33_4021)"/>
<path d="M256.156 272.887C256.272 272.379 256.552 271.924 256.952 271.59L257.731 272.059C257.317 272.387 257.022 272.843 256.893 273.355L256.156 272.887Z" fill="url(#paint122_linear_33_4021)"/>
<path d="M275.172 271.724C275.652 271.983 276.034 272.391 276.261 272.887L275.566 273.531C275.339 273.036 274.957 272.627 274.477 272.368L275.172 271.724Z" fill="url(#paint123_linear_33_4021)"/>
<path d="M217.503 249.955C218.238 250.351 218.826 250.973 219.179 251.728L218.123 252.724C217.77 251.968 217.183 251.346 216.448 250.95L217.503 249.955Z" fill="url(#paint124_linear_33_4021)"/>
<path d="M237.056 256.757C237.049 255.968 237.299 255.199 237.768 254.565L239.075 254.991C238.605 255.625 238.355 256.395 238.363 257.183L237.056 256.757Z" fill="url(#paint125_linear_33_4021)"/>
<path d="M202.165 223.459C202.818 222.904 203.636 222.577 204.493 222.53L205.046 223.902C204.189 223.955 203.372 224.284 202.717 224.839L202.165 223.459Z" fill="url(#paint126_linear_33_4021)"/>
<path d="M210.148 235.774C210.916 235.115 211.877 234.722 212.887 234.653L213.549 236.276C212.536 236.344 211.572 236.737 210.801 237.397L210.148 235.774Z" fill="url(#paint127_linear_33_4021)"/>
<path d="M210.868 241.589C211.52 241.956 212.035 242.526 212.334 243.212L211.371 244.048C211.07 243.361 210.552 242.791 209.896 242.425L210.868 241.589Z" fill="url(#paint128_linear_33_4021)"/>
<path d="M207.702 252.013C208.613 252.07 209.481 252.422 210.173 253.017L209.579 254.481C208.873 253.882 207.99 253.53 207.065 253.477L207.702 252.013Z" fill="url(#paint129_linear_33_4021)"/>
<path d="M166.167 172.324C167.013 172.789 167.684 173.518 168.077 174.399L166.854 175.545C166.451 174.667 165.772 173.944 164.919 173.487L166.167 172.324Z" fill="url(#paint130_linear_33_4021)"/>
<path d="M152.788 184.163C153.484 184.112 154.178 184.288 154.765 184.665L154.472 185.836C153.885 185.459 153.191 185.283 152.495 185.334L152.788 184.163Z" fill="url(#paint131_linear_33_4021)"/>
<path d="M137.693 174.617C137.832 173.575 138.305 172.606 139.042 171.856L140.717 172.651C139.98 173.401 139.507 174.37 139.368 175.412L137.693 174.617Z" fill="url(#paint132_linear_33_4021)"/>
<path d="M116.674 177.101C117.091 176.484 117.697 176.018 118.4 175.771L119.188 176.8C118.484 177.042 117.878 177.506 117.462 178.122L116.674 177.101Z" fill="url(#paint133_linear_33_4021)"/>
<path d="M110.509 160.879C111.375 160.269 112.415 159.955 113.474 159.984L114.01 161.741C112.948 161.711 111.905 162.025 111.037 162.636L110.509 160.879Z" fill="url(#paint134_linear_33_4021)"/>
<path d="M98.8559 157.156C99.5893 157.068 100.331 157.224 100.967 157.6L100.707 158.855C100.07 158.482 99.3302 158.324 98.5962 158.403L98.8559 157.156Z" fill="url(#paint135_linear_33_4021)"/>
<path d="M167.994 291.276C168.55 290.689 169.282 290.298 170.08 290.163L170.75 291.401C169.949 291.535 169.214 291.926 168.655 292.514L167.994 291.276Z" fill="url(#paint136_linear_33_4021)"/>
<path d="M187.412 283.545C188.196 283.94 188.829 284.581 189.213 285.369L188.124 286.44C187.739 285.65 187.107 285.007 186.323 284.608L187.412 283.545Z" fill="url(#paint137_linear_33_4021)"/>
<path d="M197.289 283.997C197.567 283.535 197.987 283.174 198.487 282.968L199.099 283.679C198.596 283.88 198.174 284.242 197.901 284.708L197.289 283.997Z" fill="url(#paint138_linear_33_4021)"/>
<path d="M205.716 259.334C205.841 258.803 206.135 258.327 206.554 257.978L207.392 258.455C206.973 258.804 206.679 259.28 206.554 259.81L205.716 259.334Z" fill="url(#paint139_linear_33_4021)"/>
<path d="M0.815918 179.486C0.929869 178.83 1.25311 178.228 1.73742 177.771L2.75107 178.315C2.27854 178.763 1.95911 179.348 1.83795 179.988L0.815918 179.486Z" fill="url(#paint140_linear_33_4021)"/>
<path d="M4.38476 166.209C5.1613 166.31 5.88424 166.659 6.44556 167.204L5.85078 168.426C5.296 167.876 4.57405 167.526 3.79834 167.43L4.38476 166.209Z" fill="url(#paint141_linear_33_4021)"/>
<path d="M20.9971 185.158C21.4662 184.557 22.1193 184.125 22.8568 183.928L23.5857 185.024C22.8485 185.227 22.1963 185.661 21.7259 186.263L20.9971 185.158Z" fill="url(#paint142_linear_33_4021)"/>
<path d="M38.6813 169.689C38.591 168.813 38.7911 167.931 39.251 167.179L40.7086 167.514C40.2488 168.265 40.0514 169.148 40.1474 170.024L38.6813 169.689Z" fill="url(#paint143_linear_33_4021)"/>
<path d="M43.3145 181.285C43.7588 180.753 44.3646 180.38 45.0402 180.222L45.6685 181.251C44.9942 181.407 44.3887 181.777 43.9427 182.305L43.3145 181.285Z" fill="url(#paint144_linear_33_4021)"/>
<path d="M49.7901 166.66C49.6508 165.973 49.7421 165.258 50.0497 164.627L51.2561 164.778C50.9543 165.411 50.8633 166.123 50.9964 166.811L49.7901 166.66Z" fill="url(#paint145_linear_33_4021)"/>
<path d="M268.119 222.79C268.842 222.949 269.494 223.336 269.979 223.894L269.326 224.998C268.843 224.438 268.19 224.05 267.466 223.894L268.119 222.79Z" fill="url(#paint146_linear_33_4021)"/>
<path d="M283.877 217.552C284.637 217.636 285.348 217.965 285.904 218.489L285.351 219.686C284.794 219.165 284.082 218.84 283.324 218.757L283.877 217.552Z" fill="url(#paint147_linear_33_4021)"/>
<path d="M271.863 191.969C272.039 191.404 272.391 190.912 272.869 190.563L273.706 191.165C273.226 191.511 272.873 192.005 272.701 192.571L271.863 191.969Z" fill="url(#paint148_linear_33_4021)"/>
<path d="M202.542 259.09L200.992 259.128L201.017 260.173L202.567 260.136L202.542 259.09Z" fill="url(#paint149_linear_33_4021)"/>
<path d="M200.975 259.275C201.478 259.112 202.021 259.112 202.524 259.275V260.195C202.022 260.025 201.477 260.025 200.975 260.195V259.275Z" fill="url(#paint150_linear_33_4021)"/>
<path d="M191.93 277.368L189.952 277.541L190.069 278.866L192.046 278.693L191.93 277.368Z" fill="url(#paint151_linear_33_4021)"/>
<path d="M189.95 277.723C190.573 277.452 191.267 277.391 191.927 277.547L192.028 278.718C191.368 278.562 190.675 278.62 190.051 278.886L189.95 277.723Z" fill="url(#paint152_linear_33_4021)"/>
<path d="M211.058 280.259L210.426 282.076L211.652 282.502L212.284 280.684L211.058 280.259Z" fill="url(#paint153_linear_33_4021)"/>
<path d="M210.575 282.115C210.584 281.458 210.804 280.821 211.203 280.299L212.284 280.676C211.885 281.198 211.664 281.834 211.656 282.491L210.575 282.115Z" fill="url(#paint154_linear_33_4021)"/>
<path d="M249.195 184.932C249.767 184.921 250.327 185.101 250.786 185.443L250.485 186.38C250.024 186.043 249.464 185.866 248.893 185.878L249.195 184.932Z" fill="url(#paint155_linear_33_4021)"/>
<path d="M253.525 203.924C254.038 203.286 254.743 202.831 255.536 202.627L256.307 203.815C255.512 204.02 254.806 204.478 254.296 205.12L253.525 203.924Z" fill="url(#paint156_linear_33_4021)"/>
<path d="M254.246 217.009C254.236 215.995 254.557 215.005 255.159 214.189L256.834 214.733C256.232 215.549 255.909 216.538 255.913 217.552L254.246 217.009Z" fill="url(#paint157_linear_33_4021)"/>
<path d="M118.19 214.666C118.897 214.912 119.503 215.382 119.916 216.005L119.12 217.034C118.704 216.408 118.095 215.936 117.386 215.687L118.19 214.666Z" fill="url(#paint158_linear_33_4021)"/>
<path d="M91.8858 226.814C92.6716 226.689 93.4767 226.821 94.1812 227.19L93.955 228.554C93.2505 228.185 92.4454 228.053 91.6597 228.177L91.8858 226.814Z" fill="url(#paint159_linear_33_4021)"/>
<path d="M88.7862 241.53C89.4087 242.009 89.861 242.675 90.0763 243.429L88.9454 244.191C88.73 243.436 88.2778 242.77 87.6553 242.291L88.7862 241.53Z" fill="url(#paint160_linear_33_4021)"/>
<path d="M197.59 269.599C198.272 269.834 198.86 270.283 199.266 270.879L198.512 271.874C198.101 271.285 197.515 270.84 196.836 270.603L197.59 269.599Z" fill="url(#paint161_linear_33_4021)"/>
<path d="M215.124 265.591C215.671 265.356 216.28 265.306 216.858 265.449L216.942 266.478C216.364 266.335 215.755 266.385 215.208 266.62L215.124 265.591Z" fill="url(#paint162_linear_33_4021)"/>
<path d="M227.917 278.852C228.553 278.542 229.273 278.446 229.969 278.576L230.137 279.789C229.44 279.659 228.721 279.756 228.084 280.065L227.917 278.852Z" fill="url(#paint163_linear_33_4021)"/>
<path d="M148.139 179.352C148.898 179.101 149.718 179.101 150.476 179.352V180.741C149.718 180.484 148.897 180.484 148.139 180.741V179.352Z" fill="url(#paint164_linear_33_4021)"/>
<path d="M156.349 169.212C157.014 169.467 157.58 169.927 157.966 170.526L157.187 171.479C156.801 170.881 156.235 170.421 155.57 170.166L156.349 169.212Z" fill="url(#paint165_linear_33_4021)"/>
<path d="M164.894 154.764C165.111 154.089 165.54 153.502 166.117 153.09L167.097 153.818C166.518 154.227 166.091 154.815 165.883 155.491L164.894 154.764Z" fill="url(#paint166_linear_33_4021)"/>
<path d="M170.716 156.311C170.586 155.489 170.727 154.646 171.118 153.91L172.551 154.144C172.16 154.88 172.018 155.723 172.149 156.546L170.716 156.311Z" fill="url(#paint167_linear_33_4021)"/>
<path d="M53.6685 374.462C51.4067 370.688 48.9437 366.865 47.4023 362.749C46.6776 360.95 46.5284 358.972 46.9751 357.085C47.5053 355.31 48.5311 353.722 49.9323 352.509C50.5444 351.95 51.2061 351.449 51.9093 351.011C52.3198 350.911 52.747 350.819 53.2497 350.718C54.322 350.501 55.3943 350.308 56.4666 350.116C61.9202 349.137 67.4827 347.606 72.2829 344.753C75.3657 342.929 78.147 340.009 78.4905 336.286C78.5241 335.863 78.5241 335.438 78.4905 335.015C78.4905 334.764 74.9804 335.994 74.7961 336.06C73.9584 336.387 73.1206 336.73 72.2829 337.131C72.2243 337.131 71.3027 337.541 71.3279 337.759C71.6546 341.407 69.3341 344.644 66.3769 346.568L66.1842 346.686L65.2292 346.895C63.1768 347.338 60.7725 348.258 58.7117 348.685C55.7042 349.304 53.0905 349.647 50.2506 350.81C47.9011 351.693 45.6874 352.901 43.6744 354.399C40.6502 356.767 38.9412 360.298 39.846 364.129C40.4301 366.139 41.2602 368.07 42.3173 369.877C43.398 371.977 44.5708 374.06 45.7939 376.043C47.4693 378.787 49.9825 382.619 47.5866 385.697C45.5593 385.84 43.5069 385.697 41.4879 385.697C37.1653 385.564 32.8258 385.371 28.5283 385.99C25.7317 386.429 22.9943 387.184 20.3688 388.241C17.7886 389.236 15.0576 390.349 13.0638 392.324C10.0312 395.344 9.361 399.945 9.30236 404.036C9.24371 408.328 9.75473 412.67 8.53165 416.853C7.36396 420.798 4.80445 424.186 1.32716 426.391L0.899925 426.642C0.958566 426.642 0.137593 427.052 0.640231 427.027C1.2149 426.949 1.77766 426.8 2.31569 426.583C3.99412 426.088 5.61677 425.421 7.15777 424.592C10.7683 422.54 13.5853 419.338 15.1581 415.498C16.7833 411.482 16.4733 407.082 16.4147 402.848C16.356 398.615 16.6492 394.047 19.3216 390.617C19.8238 389.986 20.4068 389.423 21.0557 388.944C22.6238 388.678 24.2078 388.516 25.7973 388.458C30.1283 388.258 34.4678 388.617 38.7988 388.634C40.868 388.65 42.9302 388.392 44.931 387.864C46.9022 387.303 48.8287 386.595 50.6946 385.748C51.8817 385.273 52.9913 384.625 53.9869 383.823C56.9943 381.155 55.344 377.281 53.6685 374.462Z" fill="url(#paint168_linear_33_4021)"/>
<path d="M66.7121 346.326C66.3435 346.736 65.9749 347.162 65.5811 347.547L65.1455 347.932C67.6398 347.117 70.0407 346.04 72.3081 344.72C75.391 342.896 78.1722 339.976 78.5157 336.253C78.5493 335.83 78.5493 335.404 78.5157 334.981C78.5157 334.73 75.0056 335.96 74.8213 336.027C73.9836 336.353 73.1458 336.696 72.3081 337.098C72.2495 337.098 71.328 337.508 71.3531 337.725C71.6379 341.248 69.4933 344.377 66.7121 346.326Z" fill="url(#paint169_linear_33_4021)"/>
<path d="M16.4482 402.798C16.3895 398.615 16.6828 393.997 19.3551 390.567C19.8573 389.935 20.4403 389.373 21.0892 388.893H21.2484C21.8308 388.286 22.4735 387.739 23.1668 387.262C22.2285 387.563 21.2903 387.898 20.3688 388.249C17.7886 389.245 15.0576 390.357 13.0638 392.332C10.0312 395.352 9.361 399.954 9.30235 404.045C9.24371 408.337 9.75473 412.679 8.53164 416.862C7.36396 420.806 4.80445 424.195 1.32716 426.399L0.899925 426.65C0.958566 426.65 0.137593 427.06 0.640231 427.035C1.2149 426.957 1.77766 426.808 2.31569 426.592C3.99412 426.097 5.61677 425.429 7.15777 424.601C10.7683 422.549 13.5853 419.346 15.1581 415.506C16.7833 411.432 16.4482 407.031 16.4482 402.798Z" fill="url(#paint170_linear_33_4021)"/>
<path d="M53.6686 374.462C51.4068 370.689 48.9438 366.865 47.4024 362.749C46.6777 360.95 46.5285 358.972 46.9752 357.085C47.5054 355.31 48.5312 353.723 49.9324 352.509C50.4347 352.049 50.9725 351.629 51.5408 351.254C50.6243 351.157 49.698 351.217 48.8014 351.43C46.9775 352.207 45.2557 353.204 43.6745 354.4C40.6503 356.767 38.9413 360.298 39.8461 364.13C40.4302 366.14 41.2603 368.07 42.3174 369.877C43.3981 371.977 44.5709 374.06 45.794 376.043C47.3689 378.637 49.7062 382.192 47.9386 385.179C48.1228 385.38 48.255 385.623 48.3236 385.887C48.3922 386.151 48.3952 386.428 48.3323 386.693C49.1281 386.384 49.9156 386.049 50.6947 385.714C51.8818 385.24 52.9914 384.592 53.987 383.79C56.9944 381.155 55.3441 377.281 53.6686 374.462Z" fill="url(#paint171_linear_33_4021)"/>
<path d="M292.664 127.741C291.718 137.722 297.305 147.05 308.255 146.054C316.54 145.301 325.277 144.105 328.502 135.12C328.184 136.015 321.951 134.835 321.6 135.814C320.482 138.896 318.399 141.537 315.66 143.344C314.266 144.252 312.748 144.954 311.153 145.427C309.578 145.812 309.882 145.812 312.066 145.427C310.975 145.361 309.895 145.167 308.849 144.85C301.226 142.825 298.922 133.848 299.576 127.038C299.534 127.431 292.715 127.239 292.664 127.732V127.741Z" fill="url(#paint172_linear_33_4021)"/>
<path d="M328.502 135.12C328.184 136.015 321.951 134.835 321.599 135.814C320.482 138.896 318.399 141.537 315.66 143.344C314.363 144.194 312.953 144.859 311.471 145.318C311.915 145.393 312.401 145.469 312.912 145.536C319.614 144.582 325.88 142.423 328.502 135.12Z" fill="url(#paint173_linear_33_4021)"/>
<path d="M249.429 9.39136C249.471 8.21055 249.4 7.02847 249.22 5.86079C249.176 5.11434 248.949 4.39016 248.558 3.75249C248.158 3.30073 247.634 2.97754 247.05 2.82384C246.355 2.57285 245.651 2.34696 244.931 2.14617C243.562 1.75957 242.159 1.50188 240.742 1.37647C237.391 1.07529 233.68 1.99558 230.631 0.439453C230.595 0.506861 230.564 0.576763 230.538 0.64861C230.599 1.69329 231.005 2.68822 231.695 3.47641C232.712 4.3134 233.965 4.81339 235.28 4.90704C236.696 5.06114 238.12 5.12262 239.544 5.0911C242.393 5.14015 245.209 5.70716 247.854 6.76435C248.198 6.89899 248.509 7.10422 248.767 7.36672L248.667 7.65954C248.135 9.03123 247.186 10.2017 245.953 11.006C243.515 12.6793 240.734 13.0056 238.304 13.1227C235.716 13.2398 233.186 12.9805 230.605 13.0223C229.299 13.0487 227.998 13.1943 226.718 13.4574C225.338 13.6921 224.049 14.2997 222.99 15.2143C221.808 16.3156 221.049 17.7956 220.846 19.3974C220.762 20.5141 220.804 21.6366 220.972 22.7439C221.034 23.6027 221.22 24.448 221.524 25.2538C222.005 26.2184 222.73 27.0405 223.627 27.6382C224.725 28.4748 225.839 29.2445 226.903 30.1481C227.967 31.0516 229.123 32.0556 230.187 33.0846C230.67 33.5631 231.092 34.0998 231.443 34.6826C231.503 34.7706 231.556 34.8629 231.602 34.9587C230.848 37.6693 228.008 38.3805 226.367 39.2171C225.259 39.7438 224.345 40.6041 223.753 41.6768C222.915 43.166 222.957 44.9814 222.731 46.5627C222.669 47.3561 222.706 48.1542 222.84 48.9387C222.874 49.3098 222.93 49.6785 223.007 50.043C223.007 50.0012 223.091 50.4446 223.125 50.1853C223.384 48.3781 223.376 46.4455 224.465 44.8476C225.292 43.7878 226.409 42.9912 227.682 42.5552C228.949 42.1128 230.096 41.3825 231.033 40.4218C232.256 39.0414 232.306 37.2343 232.206 35.5694C232.071 33.4862 231.803 31.654 230.748 30.3154C229.85 29.2565 228.854 28.2845 227.774 27.4123C226.635 26.4 225.487 25.4797 224.323 24.6431C223.337 24.0262 222.45 23.2647 221.692 22.3842C221.588 22.245 221.493 22.0997 221.407 21.9491C221.53 21.5651 221.687 21.1927 221.876 20.8364C222.594 19.4753 223.76 18.4028 225.177 17.7995C226.41 17.3126 227.715 17.0301 229.039 16.9628C230.326 16.853 231.618 16.8223 232.909 16.8708C235.477 17.0447 238.054 17.014 240.616 16.7788C242.962 16.4692 245.911 15.7915 247.955 13.2817C248.825 12.1617 249.339 10.8063 249.429 9.39136Z" fill="url(#paint174_linear_33_4021)"/>
<path d="M249.429 9.39134C249.471 8.21053 249.4 7.02845 249.22 5.86077C249.22 5.75201 249.22 5.63488 249.178 5.52612C249.083 6.14365 248.914 6.74756 248.675 7.32487L248.742 7.38343L248.642 7.67625C248.11 9.04794 247.161 10.2184 245.928 11.0228C243.49 12.696 240.708 13.0223 238.279 13.1394C235.69 13.2566 233.161 12.9972 230.58 13.039C229.283 13.0614 227.99 13.2014 226.718 13.4573C225.338 13.692 224.049 14.2997 222.99 15.2143C221.808 16.3156 221.049 17.7956 220.846 19.3974C220.762 20.5141 220.804 21.6366 220.972 22.7439C220.972 22.9781 221.03 23.2208 221.064 23.455C221.064 23.3295 221.064 23.204 221.064 23.0785C221.117 22.5725 221.274 22.0828 221.524 21.6395C221.633 21.3551 221.759 21.0874 221.893 20.8029C222.611 19.4419 223.777 18.3694 225.194 17.766C226.427 17.2792 227.731 16.9966 229.056 16.9293C230.343 16.8195 231.635 16.7888 232.926 16.8373C235.493 17.0112 238.071 16.9805 240.633 16.7453C242.979 16.4357 245.928 15.7581 247.972 13.2482C248.83 12.1355 249.337 10.7929 249.429 9.39134Z" fill="url(#paint175_linear_33_4021)"/>
<path d="M232.172 35.5191C232.13 34.7621 232.046 34.008 231.92 33.2603C231.909 33.3311 231.892 33.401 231.87 33.4694C231.855 33.9533 231.758 34.4312 231.585 34.8833C230.831 37.594 227.991 38.3051 226.349 39.1417C225.242 39.6685 224.328 40.5287 223.736 41.6014C223.138 43.0208 222.809 44.5383 222.764 46.0774C222.716 46.3933 222.685 46.7117 222.672 47.0311C222.672 48.4618 223.007 50.5784 223.107 50.1099C223.861 46.6212 224.682 44.2535 225.126 43.9858C225.871 43.3429 226.721 42.8334 227.64 42.4799C228.907 42.0374 230.054 41.3071 230.991 40.3465C232.222 38.9995 232.272 37.1924 232.172 35.5191Z" fill="url(#paint176_linear_33_4021)"/>
<path d="M251.851 236.41C252.906 238.87 250.686 240.978 249.103 242.576C247.31 244.375 245.894 246.123 246.59 248.491C246.221 247.746 245.844 247.186 245.383 246.232C244.227 243.873 245.316 241.764 246.967 239.991C248.617 238.217 251.423 236.05 250.317 233.398C250.644 234.16 251.474 235.44 251.892 236.41H251.851Z" fill="url(#paint177_linear_33_4021)"/>
<path d="M233.906 226.462C237.82 227.016 241.665 227.983 245.374 229.349C246.824 229.884 248.608 230.554 249.454 231.951C250.308 233.183 251.014 234.511 251.557 235.908C251.213 234.82 250.183 233.942 249.881 232.837C249.822 232.615 249.74 232.4 249.638 232.193L251.23 235.055L251.054 234.762L251.18 234.971C249.672 232.913 246.681 232.202 244.369 231.474C241.527 230.594 238.619 229.945 235.673 229.533C235.447 229.533 234.894 228.186 234.794 228.002C234.693 227.818 234.132 226.488 233.956 226.462H233.906Z" fill="url(#paint178_linear_33_4021)"/>
<path d="M259.063 251.369C259.542 251.84 259.855 252.452 259.958 253.115C260.061 253.778 259.947 254.457 259.633 255.05C258.921 256.589 258.376 257.911 259.348 259.501C258.753 258.522 257.563 257.903 256.96 256.916C256.617 256.332 256.436 255.668 256.436 254.991C256.436 254.315 256.617 253.651 256.96 253.067C257.622 251.737 258.007 250.557 257.094 249.219L257.253 249.403L257.027 249.144C256.592 248.658 257.404 249.52 257.471 249.595C258.016 250.181 258.56 250.767 259.096 251.369H259.063Z" fill="url(#paint179_linear_33_4021)"/>
<path d="M245.902 247.186C246.156 247.562 246.482 247.884 246.862 248.132C247.242 248.381 247.667 248.551 248.114 248.633C250.426 249.127 253.509 248.006 255.612 248.34C256.254 248.486 256.858 248.769 257.38 249.171C257.902 249.573 258.33 250.083 258.636 250.666C258.908 250.971 259.136 251.311 259.314 251.678L259.641 252.164C258.716 251.562 257.637 251.236 256.533 251.227C254.782 251.143 252.855 251.653 251.146 251.662C250.491 251.695 249.837 251.566 249.244 251.285C248.65 251.005 248.136 250.582 247.745 250.055C247.745 250.055 247.745 250.055 247.745 250.097L247.678 249.988L247.603 249.896C246.907 249.009 246.304 248.053 245.802 247.043C245.832 247.093 245.865 247.141 245.902 247.186Z" fill="url(#paint180_linear_33_4021)"/>
<path d="M339.862 308.26C341.37 309.038 343.037 308.728 344.637 308.318C346.798 307.783 348.935 307.164 351.071 306.57C353.207 305.976 355.352 305.39 357.513 304.896L357.831 304.821C357.161 305.432 356.449 305.992 355.754 306.553C353.078 308.678 350.52 310.946 348.088 313.346C347.502 313.924 346.924 314.518 346.354 315.112C345.805 315.564 345.366 316.137 345.073 316.785C345.009 317.067 345.044 317.362 345.173 317.621C345.614 318.585 346.139 319.509 346.74 320.382C347.098 321.006 347.55 321.57 348.08 322.056C348.381 322.232 348.728 322.316 349.077 322.298C352.189 322.324 355.295 322.018 358.342 321.386C360.252 321.052 362.162 320.692 364.081 320.407C364.583 320.332 365.094 320.265 365.605 320.207C364.701 321.288 363.694 322.28 362.598 323.168C361.381 324.146 360.304 325.286 359.398 326.557C359.216 326.814 359.086 327.104 359.017 327.412C358.948 327.719 358.941 328.037 358.996 328.347C359.224 329.04 359.551 329.697 359.968 330.296C360.319 330.89 360.688 331.484 361.082 332.053C361.325 332.451 361.621 332.814 361.961 333.132C362.204 333.296 362.481 333.403 362.771 333.445C363.061 333.487 363.357 333.463 363.637 333.375C364.474 333.233 365.362 333.057 366.209 332.84C367.252 332.564 368.278 332.229 369.283 331.836C368.831 332.672 368.328 333.509 367.926 334.346C367.161 335.777 366.955 337.44 367.348 339.014C367.748 340.052 368.286 341.031 368.948 341.925C369.233 342.38 369.547 342.815 369.886 343.231C369.886 343.231 370.305 343.691 370.196 343.364C369.568 341.365 370.489 339.357 371.461 337.583C372.034 336.616 372.537 335.609 372.969 334.571C373.152 334.105 373.238 333.607 373.222 333.106C373.206 332.606 373.089 332.114 372.877 331.66C372.83 331.482 372.75 331.315 372.642 331.166C372.031 329.946 371.302 328.789 370.464 327.711C370.165 327.248 369.737 326.881 369.233 326.657C368.211 326.314 367.021 327.084 366.075 327.427L365.639 327.577C366.259 327.042 366.87 326.506 367.44 325.904C368.454 324.951 369.239 323.781 369.735 322.482C369.974 321.9 370.044 321.262 369.937 320.642C369.707 319.944 369.379 319.282 368.965 318.676C368.444 317.637 367.775 316.679 366.979 315.831C366.746 315.644 366.477 315.507 366.189 315.426C365.902 315.346 365.6 315.324 365.304 315.363C364.508 315.363 363.704 315.48 362.916 315.572C361.367 315.747 359.825 316.007 358.284 316.274C355.997 316.676 353.71 317.111 351.406 317.387C352.339 316.484 353.285 315.597 354.246 314.727C355.528 313.581 356.851 312.468 358.192 311.38C359.34 310.499 360.439 309.555 361.484 308.552C362.502 307.589 363.267 306.391 363.712 305.064C363.794 304.743 363.756 304.404 363.603 304.11C363.169 303.14 362.644 302.213 362.037 301.341C361.467 300.504 360.948 299.458 359.8 299.341C359.07 299.338 358.344 299.431 357.639 299.617C356.801 299.768 355.963 299.952 355.075 300.136C353.4 300.504 351.808 300.922 350.191 301.366C347.846 301.993 345.517 302.671 343.179 303.298C341.345 303.784 338.991 304.612 337.248 303.683C336.989 303.549 337.19 303.943 337.248 304.018C337.468 304.511 337.72 304.989 338.002 305.449C338.346 306.043 338.714 306.628 339.116 307.197C339.259 307.54 339.56 308.109 339.862 308.26Z" fill="url(#paint181_linear_33_4021)"/>
<path d="M370.448 327.77L370.322 327.619C370.908 329.702 369.267 331.886 369.267 331.886C368.814 332.723 368.311 333.559 367.909 334.396C367.145 335.827 366.939 337.49 367.331 339.064C367.731 340.102 368.269 341.082 368.931 341.976C369.217 342.43 369.53 342.866 369.87 343.281C369.87 343.281 370.289 343.741 370.18 343.415C369.551 341.415 370.473 339.407 371.445 337.634C372.017 336.666 372.521 335.66 372.953 334.622C373.135 334.155 373.221 333.657 373.206 333.157C373.19 332.656 373.072 332.164 372.86 331.71C372.813 331.533 372.734 331.365 372.626 331.217C372.014 329.999 371.285 328.845 370.448 327.77Z" fill="url(#paint182_linear_33_4021)"/>
<path d="M364.106 320.458C364.608 320.382 365.119 320.315 365.63 320.257C364.726 321.339 363.719 322.33 362.623 323.218C361.406 324.196 360.329 325.336 359.423 326.607C359.241 326.864 359.111 327.154 359.042 327.462C358.973 327.769 358.966 328.087 359.021 328.397C359.249 329.09 359.576 329.747 359.992 330.346C360.344 330.94 360.713 331.534 361.106 332.103C361.302 332.397 361.517 332.676 361.752 332.94C361.752 330.982 365.236 327.979 365.236 327.979L365.84 327.552L365.647 327.619C366.267 327.084 366.878 326.548 367.448 325.946C368.462 324.993 369.247 323.823 369.743 322.524C369.983 321.942 370.052 321.304 369.945 320.683C369.945 320.683 369.568 319.529 364.106 320.458Z" fill="url(#paint183_linear_33_4021)"/>
<path d="M357.773 304.913C357.128 305.498 356.433 306.051 355.754 306.586C353.079 308.711 350.52 310.979 348.089 313.379C347.502 313.957 346.924 314.551 346.355 315.145C345.805 315.597 345.367 316.17 345.073 316.818C345.009 317.1 345.045 317.396 345.174 317.655C345.615 318.618 346.139 319.542 346.74 320.415C347.098 321.039 347.55 321.603 348.081 322.089L347.913 321.695C347.913 321.695 347.796 320.173 351.373 317.437C352.305 316.534 353.252 315.647 354.213 314.777C355.494 313.63 356.818 312.518 358.158 311.43C359.307 310.549 360.406 309.605 361.451 308.602C362.469 307.639 363.234 306.441 363.679 305.114C363.716 304.937 363.716 304.755 363.679 304.578C363.671 304.461 363.101 303.825 357.773 304.913Z" fill="url(#paint184_linear_33_4021)"/>
<path d="M139.025 171.404C138.487 172.184 138.254 173.133 138.371 174.073C138.371 175.353 138.463 176.633 138.522 177.913C138.581 179.193 138.623 180.473 138.623 181.745V181.929C138.371 181.469 138.145 181 137.919 180.532C137.071 178.757 136.128 177.028 135.096 175.353C134.844 174.943 134.585 174.516 134.325 174.148C134.144 173.78 133.881 173.459 133.554 173.211C133.405 173.132 133.231 173.114 133.068 173.161C132.467 173.278 131.878 173.452 131.309 173.68C130.903 173.793 130.519 173.971 130.17 174.207C130.033 174.353 129.943 174.536 129.91 174.734C129.489 176.478 129.256 178.262 129.215 180.055C129.156 181.168 129.106 182.28 129.014 183.401C129.014 183.694 128.963 183.987 128.93 184.238C128.44 183.588 128.014 182.894 127.657 182.163C127.267 181.352 126.765 180.6 126.165 179.929C126.044 179.794 125.898 179.683 125.734 179.604C125.57 179.525 125.392 179.479 125.21 179.469C124.791 179.511 124.38 179.61 123.987 179.762C123.61 179.888 123.225 180.013 122.856 180.164C122.601 180.244 122.359 180.359 122.136 180.507C122.014 180.622 121.919 180.762 121.858 180.919C121.797 181.075 121.772 181.243 121.784 181.41C121.784 181.912 121.742 182.422 121.784 182.924C121.804 183.546 121.857 184.166 121.943 184.782C121.533 184.414 121.106 184.029 120.704 183.694C120.011 183.081 119.115 182.747 118.19 182.757C117.554 182.85 116.931 183.025 116.339 183.276C116.053 183.38 115.774 183.501 115.501 183.636C115.501 183.636 115.191 183.811 115.384 183.795C116.599 183.694 117.604 184.481 118.475 185.259C118.944 185.705 119.445 186.116 119.975 186.488C120.216 186.656 120.489 186.773 120.777 186.83C121.066 186.888 121.363 186.886 121.65 186.823C121.757 186.818 121.863 186.793 121.96 186.748C122.724 186.567 123.468 186.309 124.18 185.978C124.482 185.871 124.746 185.679 124.942 185.426C125.269 184.899 124.984 184.129 124.942 183.552C124.942 183.468 124.942 183.376 124.942 183.293C125.169 183.703 125.386 184.129 125.638 184.514C126.046 185.203 126.6 185.795 127.263 186.246C127.56 186.458 127.912 186.58 128.277 186.597C128.698 186.558 129.112 186.462 129.508 186.313C130.16 186.155 130.787 185.904 131.368 185.568C131.629 185.361 131.8 185.061 131.845 184.732C131.937 184.288 131.988 183.82 132.038 183.368C132.139 182.473 132.197 181.569 132.247 180.674C132.323 179.335 132.373 177.997 132.515 176.675C132.901 177.311 133.278 177.955 133.638 178.607C134.124 179.444 134.576 180.364 135.012 181.26C135.354 182.018 135.74 182.755 136.168 183.468C136.58 184.167 137.155 184.755 137.843 185.183C138.016 185.265 138.211 185.286 138.396 185.242C138.997 185.123 139.586 184.949 140.156 184.723C140.717 184.514 141.354 184.355 141.571 183.728C141.668 183.319 141.71 182.9 141.697 182.481C141.697 181.979 141.697 181.477 141.739 180.975C141.739 180.005 141.739 179.034 141.689 178.072C141.63 176.675 141.555 175.278 141.513 173.889C141.513 172.801 141.312 171.379 142.066 170.542C142.174 170.417 141.923 170.475 141.881 170.484C141.574 170.54 141.272 170.618 140.977 170.718C140.591 170.835 140.214 170.969 139.846 171.12C139.553 171.149 139.272 171.246 139.025 171.404Z" fill="url(#paint185_linear_33_4021)"/>
<path d="M124.071 186.028L124.172 185.978C123.738 185.946 123.314 185.829 122.926 185.632C122.537 185.435 122.192 185.163 121.91 184.832C121.5 184.464 121.072 184.079 120.67 183.744C119.978 183.131 119.082 182.797 118.157 182.807C117.52 182.901 116.898 183.075 116.306 183.326C116.02 183.431 115.74 183.551 115.468 183.686C115.468 183.686 115.158 183.861 115.351 183.845C116.565 183.744 117.571 184.531 118.442 185.309C118.911 185.755 119.412 186.166 119.941 186.539C120.183 186.707 120.456 186.823 120.744 186.881C121.033 186.938 121.33 186.936 121.617 186.873C121.724 186.868 121.829 186.843 121.927 186.798C122.665 186.612 123.384 186.355 124.071 186.028Z" fill="url(#paint186_linear_33_4021)"/>
<path d="M129.014 183.41C129.014 183.703 128.963 183.995 128.93 184.246C128.44 183.597 128.014 182.902 127.656 182.171C127.267 181.36 126.765 180.608 126.165 179.938C126.044 179.802 125.898 179.691 125.734 179.613C125.57 179.534 125.392 179.488 125.21 179.478C124.791 179.519 124.38 179.618 123.987 179.77C123.61 179.896 123.225 180.021 122.856 180.172C122.661 180.24 122.471 180.321 122.287 180.415C123.392 180.674 124.632 183.016 124.632 183.016L124.791 183.41C124.791 183.41 124.791 183.334 124.791 183.301C125.018 183.711 125.235 184.138 125.487 184.522C125.895 185.212 126.45 185.803 127.112 186.254C127.409 186.466 127.761 186.588 128.126 186.606C128.126 186.606 128.829 186.606 129.014 183.41Z" fill="url(#paint187_linear_33_4021)"/>
<path d="M138.597 181.929C138.355 181.485 138.137 181.025 137.919 180.573C137.071 178.798 136.128 177.07 135.096 175.395C134.844 174.985 134.585 174.558 134.325 174.19C134.145 173.822 133.881 173.501 133.554 173.253C133.405 173.174 133.231 173.156 133.068 173.203C132.467 173.319 131.878 173.493 131.309 173.721C130.904 173.835 130.519 174.013 130.17 174.248L130.413 174.198C130.413 174.198 131.251 174.332 132.356 176.708C132.742 177.344 133.119 177.988 133.479 178.641C133.965 179.477 134.417 180.398 134.853 181.293C135.195 182.051 135.581 182.789 136.009 183.502C136.421 184.2 136.995 184.788 137.684 185.217C137.774 185.266 137.875 185.292 137.978 185.292C138.07 185.275 138.505 185.024 138.597 181.929Z" fill="url(#paint188_linear_33_4021)"/>
</g>
<defs>
<linearGradient id="paint0_linear_33_4021" x1="262.59" y1="257.409" x2="269.669" y2="257.409" gradientUnits="userSpaceOnUse">
<stop stop-color="#F8B54A"/>
<stop offset="1" stop-color="#F8A629"/>
</linearGradient>
<linearGradient id="paint1_linear_33_4021" x1="229.407" y1="301.951" x2="236.93" y2="301.951" gradientUnits="userSpaceOnUse">
<stop stop-color="#B5188D"/>
<stop offset="1" stop-color="#4E69AE"/>
</linearGradient>
<linearGradient id="paint2_linear_33_4021" x1="170.314" y1="296.354" x2="181.984" y2="296.354" gradientUnits="userSpaceOnUse">
<stop stop-color="#F44274"/>
<stop offset="1" stop-color="#E51F9A"/>
</linearGradient>
<linearGradient id="paint3_linear_33_4021" x1="150.78" y1="265.373" x2="156.395" y2="276.459" gradientUnits="userSpaceOnUse">
<stop stop-color="#6DD0E7"/>
<stop offset="1" stop-color="#01A7DB"/>
</linearGradient>
<linearGradient id="paint4_linear_33_4021" x1="117.772" y1="273.673" x2="128.612" y2="273.673" gradientUnits="userSpaceOnUse">
<stop stop-color="#F71873"/>
<stop offset="1" stop-color="#F8A629"/>
</linearGradient>
<linearGradient id="paint5_linear_33_4021" x1="915.376" y1="-42951.7" x2="1021.61" y2="-43218.4" gradientUnits="userSpaceOnUse">
<stop stop-color="#F44274"/>
<stop offset="1" stop-color="#E51F9A"/>
</linearGradient>
<linearGradient id="paint6_linear_33_4021" x1="15.6523" y1="165.313" x2="27.9586" y2="165.313" gradientUnits="userSpaceOnUse">
<stop stop-color="#BE1E68"/>
<stop offset="1" stop-color="#B5188D"/>
</linearGradient>
<linearGradient id="paint7_linear_33_4021" x1="-4.31885" y1="106.407" x2="6.36222" y2="106.407" gradientUnits="userSpaceOnUse">
<stop stop-color="#FBE422"/>
<stop offset="1" stop-color="#C8D92B"/>
</linearGradient>
<linearGradient id="paint8_linear_33_4021" x1="8333.44" y1="2489.8" x2="9387.41" y2="2489.8" gradientUnits="userSpaceOnUse">
<stop stop-color="#F44274"/>
<stop offset="1" stop-color="#E51F9A"/>
</linearGradient>
<linearGradient id="paint9_linear_33_4021" x1="93.8125" y1="193.374" x2="110.508" y2="193.374" gradientUnits="userSpaceOnUse">
<stop stop-color="#B4DF86"/>
<stop offset="1" stop-color="#84C743"/>
</linearGradient>
<linearGradient id="paint10_linear_33_4021" x1="2881.97" y1="1465.41" x2="2957.5" y2="1465.41" gradientUnits="userSpaceOnUse">
<stop stop-color="#F44274"/>
<stop offset="1" stop-color="#E51F9A"/>
</linearGradient>
<linearGradient id="paint11_linear_33_4021" x1="2374.93" y1="2278.2" x2="2407.21" y2="2278.2" gradientUnits="userSpaceOnUse">
<stop stop-color="#B5188D"/>
<stop offset="1" stop-color="#4E69AE"/>
</linearGradient>
<linearGradient id="paint12_linear_33_4021" x1="6299.74" y1="3230.47" x2="6547.86" y2="3230.47" gradientUnits="userSpaceOnUse">
<stop stop-color="#6DD0E7"/>
<stop offset="1" stop-color="#01A7DB"/>
</linearGradient>
<linearGradient id="paint13_linear_33_4021" x1="5801.25" y1="2564.94" x2="5975.21" y2="2564.94" gradientUnits="userSpaceOnUse">
<stop stop-color="#B4DF86"/>
<stop offset="1" stop-color="#84C743"/>
</linearGradient>
<linearGradient id="paint14_linear_33_4021" x1="4053.61" y1="1289.19" x2="4110.35" y2="1289.19" gradientUnits="userSpaceOnUse">
<stop stop-color="#BE1E68"/>
<stop offset="1" stop-color="#B5188D"/>
</linearGradient>
<linearGradient id="paint15_linear_33_4021" x1="4292.78" y1="3900.36" x2="4508.04" y2="3900.36" gradientUnits="userSpaceOnUse">
<stop stop-color="#F44274"/>
<stop offset="1" stop-color="#E51F9A"/>
</linearGradient>
<linearGradient id="paint16_linear_33_4021" x1="4332.71" y1="1946.43" x2="4469.53" y2="1946.43" gradientUnits="userSpaceOnUse">
<stop stop-color="#6DD0E7"/>
<stop offset="1" stop-color="#01A7DB"/>
</linearGradient>
<linearGradient id="paint17_linear_33_4021" x1="4240.36" y1="2765.64" x2="4332.04" y2="2765.64" gradientUnits="userSpaceOnUse">
<stop stop-color="#BE1E68"/>
<stop offset="1" stop-color="#B5188D"/>
</linearGradient>
<linearGradient id="paint18_linear_33_4021" x1="6344.7" y1="1973.35" x2="6481.21" y2="1973.35" gradientUnits="userSpaceOnUse">
<stop stop-color="#B5188D"/>
<stop offset="1" stop-color="#4E69AE"/>
</linearGradient>
<linearGradient id="paint19_linear_33_4021" x1="3504.63" y1="3277.67" x2="3676.54" y2="3277.67" gradientUnits="userSpaceOnUse">
<stop stop-color="#B5188D"/>
<stop offset="1" stop-color="#4E69AE"/>
</linearGradient>
<linearGradient id="paint20_linear_33_4021" x1="4840.33" y1="2935.86" x2="5064.83" y2="2935.86" gradientUnits="userSpaceOnUse">
<stop stop-color="#F8B54A"/>
<stop offset="1" stop-color="#F8A629"/>
</linearGradient>
<linearGradient id="paint21_linear_33_4021" x1="4255.1" y1="3392.46" x2="4413.94" y2="3392.46" gradientUnits="userSpaceOnUse">
<stop stop-color="#B4DF86"/>
<stop offset="1" stop-color="#84C743"/>
</linearGradient>
<linearGradient id="paint22_linear_33_4021" x1="7239.18" y1="3034.55" x2="7501.93" y2="3034.55" gradientUnits="userSpaceOnUse">
<stop stop-color="#F8B54A"/>
<stop offset="1" stop-color="#F8A629"/>
</linearGradient>
<linearGradient id="paint23_linear_33_4021" x1="4730.32" y1="700.344" x2="4824.45" y2="700.344" gradientUnits="userSpaceOnUse">
<stop stop-color="#6DD0E7"/>
<stop offset="1" stop-color="#01A7DB"/>
</linearGradient>
<linearGradient id="paint24_linear_33_4021" x1="4867.17" y1="393.275" x2="4990.23" y2="393.275" gradientUnits="userSpaceOnUse">
<stop stop-color="#BE1E68"/>
<stop offset="1" stop-color="#B5188D"/>
</linearGradient>
<linearGradient id="paint25_linear_33_4021" x1="2780.05" y1="5154.38" x2="3031.5" y2="5154.38" gradientUnits="userSpaceOnUse">
<stop stop-color="#B4DF86"/>
<stop offset="1" stop-color="#84C743"/>
</linearGradient>
<linearGradient id="paint26_linear_33_4021" x1="4103.54" y1="5743.72" x2="4311.35" y2="5743.72" gradientUnits="userSpaceOnUse">
<stop stop-color="#FBE422"/>
<stop offset="1" stop-color="#C8D92B"/>
</linearGradient>
<linearGradient id="paint27_linear_33_4021" x1="3112.14" y1="2394.84" x2="3202.75" y2="2394.84" gradientUnits="userSpaceOnUse">
<stop stop-color="#F8B54A"/>
<stop offset="1" stop-color="#F8A629"/>
</linearGradient>
<linearGradient id="paint28_linear_33_4021" x1="3235.17" y1="2209.15" x2="3318.44" y2="2209.15" gradientUnits="userSpaceOnUse">
<stop stop-color="#BE1E68"/>
<stop offset="1" stop-color="#B5188D"/>
</linearGradient>
<linearGradient id="paint29_linear_33_4021" x1="3478.91" y1="3992.15" x2="3693.64" y2="3992.15" gradientUnits="userSpaceOnUse">
<stop stop-color="#6DD0E7"/>
<stop offset="1" stop-color="#01A7DB"/>
</linearGradient>
<linearGradient id="paint30_linear_33_4021" x1="2466.71" y1="3947.46" x2="2575.39" y2="3947.46" gradientUnits="userSpaceOnUse">
<stop stop-color="#F44274"/>
<stop offset="1" stop-color="#E51F9A"/>
</linearGradient>
<linearGradient id="paint31_linear_33_4021" x1="2859.62" y1="3872.74" x2="3065.06" y2="3872.74" gradientUnits="userSpaceOnUse">
<stop stop-color="#B5188D"/>
<stop offset="1" stop-color="#4E69AE"/>
</linearGradient>
<linearGradient id="paint32_linear_33_4021" x1="1140.85" y1="2793.28" x2="1207.06" y2="2793.28" gradientUnits="userSpaceOnUse">
<stop stop-color="#BE1E68"/>
<stop offset="1" stop-color="#B5188D"/>
</linearGradient>
<linearGradient id="paint33_linear_33_4021" x1="2181.75" y1="1962.24" x2="2274.45" y2="1962.24" gradientUnits="userSpaceOnUse">
<stop stop-color="#BE1E68"/>
<stop offset="1" stop-color="#B5188D"/>
</linearGradient>
<linearGradient id="paint34_linear_33_4021" x1="1725.92" y1="1086.75" x2="1868.15" y2="1086.75" gradientUnits="userSpaceOnUse">
<stop stop-color="#6DD0E7"/>
<stop offset="1" stop-color="#01A7DB"/>
</linearGradient>
<linearGradient id="paint35_linear_33_4021" x1="4262.16" y1="2128.61" x2="4406.36" y2="2128.61" gradientUnits="userSpaceOnUse">
<stop stop-color="#F71873"/>
<stop offset="1" stop-color="#F8A629"/>
</linearGradient>
<linearGradient id="paint36_linear_33_4021" x1="3357.49" y1="1003.22" x2="3450.37" y2="1003.22" gradientUnits="userSpaceOnUse">
<stop stop-color="#FBE422"/>
<stop offset="1" stop-color="#C8D92B"/>
</linearGradient>
<linearGradient id="paint37_linear_33_4021" x1="3158.03" y1="1685.4" x2="3229.89" y2="1685.4" gradientUnits="userSpaceOnUse">
<stop stop-color="#BE1E68"/>
<stop offset="1" stop-color="#B5188D"/>
</linearGradient>
<linearGradient id="paint38_linear_33_4021" x1="5562.39" y1="1494.52" x2="5771.39" y2="1494.52" gradientUnits="userSpaceOnUse">
<stop stop-color="#6DD0E7"/>
<stop offset="1" stop-color="#01A7DB"/>
</linearGradient>
<linearGradient id="paint39_linear_33_4021" x1="3122.08" y1="3313.84" x2="3245.59" y2="3313.84" gradientUnits="userSpaceOnUse">
<stop stop-color="#FBE422"/>
<stop offset="1" stop-color="#C8D92B"/>
</linearGradient>
<linearGradient id="paint40_linear_33_4021" x1="3906.81" y1="2184.72" x2="4021.79" y2="2184.72" gradientUnits="userSpaceOnUse">
<stop stop-color="#BE1E68"/>
<stop offset="1" stop-color="#B5188D"/>
</linearGradient>
<linearGradient id="paint41_linear_33_4021" x1="6401.81" y1="4361.5" x2="6667.54" y2="4361.5" gradientUnits="userSpaceOnUse">
<stop stop-color="#B4DF86"/>
<stop offset="1" stop-color="#84C743"/>
</linearGradient>
<linearGradient id="paint42_linear_33_4021" x1="5506.67" y1="2634.15" x2="5625.9" y2="2634.15" gradientUnits="userSpaceOnUse">
<stop stop-color="#B5188D"/>
<stop offset="1" stop-color="#4E69AE"/>
</linearGradient>
<linearGradient id="paint43_linear_33_4021" x1="12556.6" y1="5132.56" x2="13252.4" y2="5132.56" gradientUnits="userSpaceOnUse">
<stop stop-color="#6DD0E7"/>
<stop offset="1" stop-color="#01A7DB"/>
</linearGradient>
<linearGradient id="paint44_linear_33_4021" x1="6176.13" y1="4851.34" x2="6306.4" y2="4851.34" gradientUnits="userSpaceOnUse">
<stop stop-color="#F71873"/>
<stop offset="1" stop-color="#F8A629"/>
</linearGradient>
<linearGradient id="paint45_linear_33_4021" x1="5850.86" y1="676.304" x2="5972.91" y2="676.304" gradientUnits="userSpaceOnUse">
<stop stop-color="#FBE422"/>
<stop offset="1" stop-color="#C8D92B"/>
</linearGradient>
<linearGradient id="paint46_linear_33_4021" x1="252.144" y1="75.6522" x2="261.56" y2="75.6522" gradientUnits="userSpaceOnUse">
<stop stop-color="#F71873"/>
<stop offset="1" stop-color="#C6211B"/>
</linearGradient>
<linearGradient id="paint47_linear_33_4021" x1="3179.06" y1="363.065" x2="3244.38" y2="363.065" gradientUnits="userSpaceOnUse">
<stop stop-color="#F71873"/>
<stop offset="1" stop-color="#F8A629"/>
</linearGradient>
<linearGradient id="paint48_linear_33_4021" x1="2513.89" y1="1164.55" x2="2585.41" y2="1164.55" gradientUnits="userSpaceOnUse">
<stop stop-color="#6DD0E7"/>
<stop offset="1" stop-color="#01A7DB"/>
</linearGradient>
<linearGradient id="paint49_linear_33_4021" x1="1480.26" y1="336.424" x2="1586.48" y2="336.424" gradientUnits="userSpaceOnUse">
<stop stop-color="#F71873"/>
<stop offset="1" stop-color="#C6211B"/>
</linearGradient>
<linearGradient id="paint50_linear_33_4021" x1="6486.76" y1="4826.21" x2="6615.36" y2="4826.21" gradientUnits="userSpaceOnUse">
<stop stop-color="#FBE422"/>
<stop offset="1" stop-color="#C8D92B"/>
</linearGradient>
<linearGradient id="paint51_linear_33_4021" x1="5881.38" y1="1187.68" x2="6000.21" y2="1187.68" gradientUnits="userSpaceOnUse">
<stop stop-color="#6DD0E7"/>
<stop offset="1" stop-color="#01A7DB"/>
</linearGradient>
<linearGradient id="paint52_linear_33_4021" x1="5508.24" y1="2975.75" x2="5679.54" y2="2975.75" gradientUnits="userSpaceOnUse">
<stop stop-color="#F71873"/>
<stop offset="1" stop-color="#F8A629"/>
</linearGradient>
<linearGradient id="paint53_linear_33_4021" x1="-7551.99" y1="6710.69" x2="-7404.77" y2="6827.87" gradientUnits="userSpaceOnUse">
<stop stop-color="#F71873"/>
<stop offset="1" stop-color="#F8A629"/>
</linearGradient>
<linearGradient id="paint54_linear_33_4021" x1="4253.19" y1="835.635" x2="4348.56" y2="835.635" gradientUnits="userSpaceOnUse">
<stop stop-color="#F8B54A"/>
<stop offset="1" stop-color="#F8A629"/>
</linearGradient>
<linearGradient id="paint55_linear_33_4021" x1="3694.59" y1="1902.55" x2="3792.66" y2="1902.55" gradientUnits="userSpaceOnUse">
<stop stop-color="#F71873"/>
<stop offset="1" stop-color="#C6211B"/>
</linearGradient>
<linearGradient id="paint56_linear_33_4021" x1="3438.22" y1="3972.88" x2="3545.38" y2="3972.88" gradientUnits="userSpaceOnUse">
<stop stop-color="#B4DF86"/>
<stop offset="1" stop-color="#84C743"/>
</linearGradient>
<linearGradient id="paint57_linear_33_4021" x1="4982.35" y1="8193.57" x2="5110.95" y2="8193.57" gradientUnits="userSpaceOnUse">
<stop stop-color="#FBE422"/>
<stop offset="1" stop-color="#C8D92B"/>
</linearGradient>
<linearGradient id="paint58_linear_33_4021" x1="5978.23" y1="5972.98" x2="6149.54" y2="5972.98" gradientUnits="userSpaceOnUse">
<stop stop-color="#F71873"/>
<stop offset="1" stop-color="#F8A629"/>
</linearGradient>
<linearGradient id="paint59_linear_33_4021" x1="2245.71" y1="-28276.2" x2="2270.66" y2="-28358.9" gradientUnits="userSpaceOnUse">
<stop stop-color="#F8B54A"/>
<stop offset="1" stop-color="#F8A629"/>
</linearGradient>
<linearGradient id="paint60_linear_33_4021" x1="1338.29" y1="1473.59" x2="1377.09" y2="1482.2" gradientUnits="userSpaceOnUse">
<stop stop-color="#F71873"/>
<stop offset="1" stop-color="#F8A629"/>
</linearGradient>
<linearGradient id="paint61_linear_33_4021" x1="2425.37" y1="1221.22" x2="2510.65" y2="1221.22" gradientUnits="userSpaceOnUse">
<stop stop-color="#BE1E68"/>
<stop offset="1" stop-color="#B5188D"/>
</linearGradient>
<linearGradient id="paint62_linear_33_4021" x1="1602.91" y1="1157.17" x2="1643.48" y2="1157.17" gradientUnits="userSpaceOnUse">
<stop stop-color="#F71873"/>
<stop offset="1" stop-color="#F8A629"/>
</linearGradient>
<linearGradient id="paint63_linear_33_4021" x1="2647.63" y1="1117.39" x2="2715.49" y2="1117.39" gradientUnits="userSpaceOnUse">
<stop stop-color="#F71873"/>
<stop offset="1" stop-color="#F8A629"/>
</linearGradient>
<linearGradient id="paint64_linear_33_4021" x1="2582.5" y1="902.907" x2="2648.22" y2="902.907" gradientUnits="userSpaceOnUse">
<stop stop-color="#F8B54A"/>
<stop offset="1" stop-color="#F8A629"/>
</linearGradient>
<linearGradient id="paint65_linear_33_4021" x1="4237.9" y1="834.832" x2="4347.06" y2="834.832" gradientUnits="userSpaceOnUse">
<stop stop-color="#F8B54A"/>
<stop offset="1" stop-color="#F8A629"/>
</linearGradient>
<linearGradient id="paint66_linear_33_4021" x1="1877.59" y1="1825.85" x2="2012.92" y2="1825.85" gradientUnits="userSpaceOnUse">
<stop stop-color="#6DD0E7"/>
<stop offset="1" stop-color="#01A7DB"/>
</linearGradient>
<linearGradient id="paint67_linear_33_4021" x1="2337.63" y1="2217.45" x2="2571.54" y2="2217.45" gradientUnits="userSpaceOnUse">
<stop stop-color="#F8B54A"/>
<stop offset="1" stop-color="#F8A629"/>
</linearGradient>
<linearGradient id="paint68_linear_33_4021" x1="3954.31" y1="4233.43" x2="4049.15" y2="4233.43" gradientUnits="userSpaceOnUse">
<stop stop-color="#BE1E68"/>
<stop offset="1" stop-color="#B5188D"/>
</linearGradient>
<linearGradient id="paint69_linear_33_4021" x1="6664.3" y1="4200.05" x2="6816.98" y2="4200.05" gradientUnits="userSpaceOnUse">
<stop stop-color="#F71873"/>
<stop offset="1" stop-color="#F8A629"/>
</linearGradient>
<linearGradient id="paint70_linear_33_4021" x1="130.696" y1="8539.39" x2="270.645" y2="8575.5" gradientUnits="userSpaceOnUse">
<stop stop-color="#F71873"/>
<stop offset="1" stop-color="#F8A629"/>
</linearGradient>
<linearGradient id="paint71_linear_33_4021" x1="162.831" y1="7281.82" x2="222.947" y2="7297.33" gradientUnits="userSpaceOnUse">
<stop stop-color="#B4DF86"/>
<stop offset="1" stop-color="#84C743"/>
</linearGradient>
<linearGradient id="paint72_linear_33_4021" x1="3415" y1="1288.17" x2="3505.09" y2="1288.17" gradientUnits="userSpaceOnUse">
<stop stop-color="#B4DF86"/>
<stop offset="1" stop-color="#84C743"/>
</linearGradient>
<linearGradient id="paint73_linear_33_4021" x1="2511.45" y1="750.939" x2="2628.39" y2="750.939" gradientUnits="userSpaceOnUse">
<stop stop-color="#FBE422"/>
<stop offset="1" stop-color="#C8D92B"/>
</linearGradient>
<linearGradient id="paint74_linear_33_4021" x1="5212.74" y1="4211.57" x2="5367.23" y2="4211.57" gradientUnits="userSpaceOnUse">
<stop stop-color="#F44274"/>
<stop offset="1" stop-color="#E51F9A"/>
</linearGradient>
<linearGradient id="paint75_linear_33_4021" x1="3395.08" y1="4745.53" x2="3477.85" y2="4745.53" gradientUnits="userSpaceOnUse">
<stop stop-color="#B5188D"/>
<stop offset="1" stop-color="#4E69AE"/>
</linearGradient>
<linearGradient id="paint76_linear_33_4021" x1="3193.66" y1="4517.51" x2="3313.69" y2="4517.51" gradientUnits="userSpaceOnUse">
<stop stop-color="#F44274"/>
<stop offset="1" stop-color="#E51F9A"/>
</linearGradient>
<linearGradient id="paint77_linear_33_4021" x1="3197.85" y1="5934.47" x2="3341.17" y2="5934.47" gradientUnits="userSpaceOnUse">
<stop stop-color="#6DD0E7"/>
<stop offset="1" stop-color="#01A7DB"/>
</linearGradient>
<linearGradient id="paint78_linear_33_4021" x1="-6527.74" y1="-70349.1" x2="-5809.53" y2="-72055.6" gradientUnits="userSpaceOnUse">
<stop stop-color="#B4DF86"/>
<stop offset="1" stop-color="#84C743"/>
</linearGradient>
<linearGradient id="paint79_linear_33_4021" x1="-14996.8" y1="-79736.1" x2="-14652.6" y2="-81528.1" gradientUnits="userSpaceOnUse">
<stop stop-color="#F71873"/>
<stop offset="1" stop-color="#C6211B"/>
</linearGradient>
<linearGradient id="paint80_linear_33_4021" x1="7210.05" y1="4532.12" x2="7134.28" y2="4745.53" gradientUnits="userSpaceOnUse">
<stop stop-color="#6DD0E7"/>
<stop offset="1" stop-color="#01A7DB"/>
</linearGradient>
<linearGradient id="paint81_linear_33_4021" x1="4951.8" y1="3541.28" x2="5095.78" y2="3541.28" gradientUnits="userSpaceOnUse">
<stop stop-color="#F71873"/>
<stop offset="1" stop-color="#C6211B"/>
</linearGradient>
<linearGradient id="paint82_linear_33_4021" x1="11163.2" y1="-7298.54" x2="11550.8" y2="-7051.29" gradientUnits="userSpaceOnUse">
<stop stop-color="#F71873"/>
<stop offset="1" stop-color="#F8A629"/>
</linearGradient>
<linearGradient id="paint83_linear_33_4021" x1="-21783.2" y1="23258.4" x2="-22621.7" y2="23859.6" gradientUnits="userSpaceOnUse">
<stop stop-color="#FBE422"/>
<stop offset="1" stop-color="#C8D92B"/>
</linearGradient>
<linearGradient id="paint84_linear_33_4021" x1="-81140" y1="16181.6" x2="-81420.8" y2="15803.4" gradientUnits="userSpaceOnUse">
<stop stop-color="#BE1E68"/>
<stop offset="1" stop-color="#B5188D"/>
</linearGradient>
<linearGradient id="paint85_linear_33_4021" x1="15763.4" y1="4603.64" x2="15763.4" y2="4133.3" gradientUnits="userSpaceOnUse">
<stop stop-color="#B5188D"/>
<stop offset="1" stop-color="#4E69AE"/>
</linearGradient>
<linearGradient id="paint86_linear_33_4021" x1="-45752.3" y1="-81821" x2="-47068" y2="-81939.6" gradientUnits="userSpaceOnUse">
<stop stop-color="#F8B54A"/>
<stop offset="1" stop-color="#F8A629"/>
</linearGradient>
<linearGradient id="paint87_linear_33_4021" x1="15237" y1="-12845.7" x2="15949.1" y2="-13438.5" gradientUnits="userSpaceOnUse">
<stop stop-color="#F71873"/>
<stop offset="1" stop-color="#C6211B"/>
</linearGradient>
<linearGradient id="paint88_linear_33_4021" x1="-7122.33" y1="-346.637" x2="-7126.03" y2="-344.779" gradientUnits="userSpaceOnUse">
<stop stop-color="#F8B54A"/>
<stop offset="1" stop-color="#F8A629"/>
</linearGradient>
<linearGradient id="paint89_linear_33_4021" x1="-3976.64" y1="1069.58" x2="-3979.73" y2="1071.13" gradientUnits="userSpaceOnUse">
<stop stop-color="#B5188D"/>
<stop offset="1" stop-color="#4E69AE"/>
</linearGradient>
<linearGradient id="paint90_linear_33_4021" x1="-11630.9" y1="-546.576" x2="-11639.4" y2="-542.286" gradientUnits="userSpaceOnUse">
<stop stop-color="#F44274"/>
<stop offset="1" stop-color="#E51F9A"/>
</linearGradient>
<linearGradient id="paint91_linear_33_4021" x1="-9181.3" y1="-7135.12" x2="-9190.91" y2="-7142.24" gradientUnits="userSpaceOnUse">
<stop stop-color="#6DD0E7"/>
<stop offset="1" stop-color="#01A7DB"/>
</linearGradient>
<linearGradient id="paint92_linear_33_4021" x1="-8631.22" y1="-1493.05" x2="-8637.4" y2="-1489.95" gradientUnits="userSpaceOnUse">
<stop stop-color="#F71873"/>
<stop offset="1" stop-color="#F8A629"/>
</linearGradient>
<linearGradient id="paint93_linear_33_4021" x1="-5993.76" y1="1010.37" x2="-5998.2" y2="1012.6" gradientUnits="userSpaceOnUse">
<stop stop-color="#F44274"/>
<stop offset="1" stop-color="#E51F9A"/>
</linearGradient>
<linearGradient id="paint94_linear_33_4021" x1="-11819.6" y1="873.253" x2="-11829.2" y2="878.065" gradientUnits="userSpaceOnUse">
<stop stop-color="#BE1E68"/>
<stop offset="1" stop-color="#B5188D"/>
</linearGradient>
<linearGradient id="paint95_linear_33_4021" x1="-9957.99" y1="804.909" x2="-9965.33" y2="808.597" gradientUnits="userSpaceOnUse">
<stop stop-color="#FBE422"/>
<stop offset="1" stop-color="#C8D92B"/>
</linearGradient>
<linearGradient id="paint96_linear_33_4021" x1="-7173" y1="3665.69" x2="-7179.45" y2="3673.75" gradientUnits="userSpaceOnUse">
<stop stop-color="#F44274"/>
<stop offset="1" stop-color="#E51F9A"/>
</linearGradient>
<linearGradient id="paint97_linear_33_4021" x1="-11072.2" y1="2565.97" x2="-11079.5" y2="2575.11" gradientUnits="userSpaceOnUse">
<stop stop-color="#F44274"/>
<stop offset="1" stop-color="#E51F9A"/>
</linearGradient>
<linearGradient id="paint98_linear_33_4021" x1="-11244.4" y1="3625.29" x2="-11253.3" y2="3636.32" gradientUnits="userSpaceOnUse">
<stop stop-color="#B4DF86"/>
<stop offset="1" stop-color="#84C743"/>
</linearGradient>
<linearGradient id="paint99_linear_33_4021" x1="-5198.72" y1="1594.67" x2="-5201.48" y2="1598.1" gradientUnits="userSpaceOnUse">
<stop stop-color="#F44274"/>
<stop offset="1" stop-color="#E51F9A"/>
</linearGradient>
<linearGradient id="paint100_linear_33_4021" x1="-4418.92" y1="1686.52" x2="-4420.62" y2="1688.62" gradientUnits="userSpaceOnUse">
<stop stop-color="#B5188D"/>
<stop offset="1" stop-color="#4E69AE"/>
</linearGradient>
<linearGradient id="paint101_linear_33_4021" x1="-10458.1" y1="3962.77" x2="-10466.7" y2="3973.43" gradientUnits="userSpaceOnUse">
<stop stop-color="#6DD0E7"/>
<stop offset="1" stop-color="#01A7DB"/>
</linearGradient>
<linearGradient id="paint102_linear_33_4021" x1="-8833.62" y1="3926.38" x2="-8840.18" y2="3934.52" gradientUnits="userSpaceOnUse">
<stop stop-color="#B4DF86"/>
<stop offset="1" stop-color="#84C743"/>
</linearGradient>
<linearGradient id="paint103_linear_33_4021" x1="-4730.95" y1="1096.69" x2="-4733.1" y2="1099.35" gradientUnits="userSpaceOnUse">
<stop stop-color="#BE1E68"/>
<stop offset="1" stop-color="#B5188D"/>
</linearGradient>
<linearGradient id="paint104_linear_33_4021" x1="-10338.1" y1="-2451.49" x2="-10346.5" y2="-2447.24" gradientUnits="userSpaceOnUse">
<stop stop-color="#F44274"/>
<stop offset="1" stop-color="#E51F9A"/>
</linearGradient>
<linearGradient id="paint105_linear_33_4021" x1="-9478.2" y1="-742.636" x2="-9484.94" y2="-739.256" gradientUnits="userSpaceOnUse">
<stop stop-color="#6DD0E7"/>
<stop offset="1" stop-color="#01A7DB"/>
</linearGradient>
<linearGradient id="paint106_linear_33_4021" x1="-11123.4" y1="-822.969" x2="-11129.5" y2="-819.873" gradientUnits="userSpaceOnUse">
<stop stop-color="#BE1E68"/>
<stop offset="1" stop-color="#B5188D"/>
</linearGradient>
<linearGradient id="paint107_linear_33_4021" x1="-8054.38" y1="-1433.63" x2="-8060.17" y2="-1430.72" gradientUnits="userSpaceOnUse">
<stop stop-color="#B5188D"/>
<stop offset="1" stop-color="#4E69AE"/>
</linearGradient>
<linearGradient id="paint108_linear_33_4021" x1="-12156" y1="-316.156" x2="-12165.3" y2="-311.515" gradientUnits="userSpaceOnUse">
<stop stop-color="#FBE422"/>
<stop offset="1" stop-color="#C8D92B"/>
</linearGradient>
<linearGradient id="paint109_linear_33_4021" x1="-10489.2" y1="483.979" x2="-10498" y2="488.385" gradientUnits="userSpaceOnUse">
<stop stop-color="#B5188D"/>
<stop offset="1" stop-color="#4E69AE"/>
</linearGradient>
<linearGradient id="paint110_linear_33_4021" x1="-10778.9" y1="1265.33" x2="-10789.4" y2="1270.58" gradientUnits="userSpaceOnUse">
<stop stop-color="#F8B54A"/>
<stop offset="1" stop-color="#F8A629"/>
</linearGradient>
<linearGradient id="paint111_linear_33_4021" x1="-13552.2" y1="-1052.63" x2="-13561.9" y2="-1047.75" gradientUnits="userSpaceOnUse">
<stop stop-color="#B4DF86"/>
<stop offset="1" stop-color="#84C743"/>
</linearGradient>
<linearGradient id="paint112_linear_33_4021" x1="-12010.5" y1="-3190.73" x2="-12021" y2="-3185.45" gradientUnits="userSpaceOnUse">
<stop stop-color="#F8B54A"/>
<stop offset="1" stop-color="#F8A629"/>
</linearGradient>
<linearGradient id="paint113_linear_33_4021" x1="-5896.98" y1="-1281.58" x2="-5901.05" y2="-1279.54" gradientUnits="userSpaceOnUse">
<stop stop-color="#6DD0E7"/>
<stop offset="1" stop-color="#01A7DB"/>
</linearGradient>
<linearGradient id="paint114_linear_33_4021" x1="-5968.82" y1="-2356.41" x2="-5973.22" y2="-2354.19" gradientUnits="userSpaceOnUse">
<stop stop-color="#BE1E68"/>
<stop offset="1" stop-color="#B5188D"/>
</linearGradient>
<linearGradient id="paint115_linear_33_4021" x1="-11190.5" y1="1361.51" x2="-11201.7" y2="1367.17" gradientUnits="userSpaceOnUse">
<stop stop-color="#B4DF86"/>
<stop offset="1" stop-color="#84C743"/>
</linearGradient>
<linearGradient id="paint116_linear_33_4021" x1="-13358.9" y1="88.3878" x2="-13370" y2="93.9945" gradientUnits="userSpaceOnUse">
<stop stop-color="#FBE422"/>
<stop offset="1" stop-color="#C8D92B"/>
</linearGradient>
<linearGradient id="paint117_linear_33_4021" x1="-7785.66" y1="-232.829" x2="-7790.61" y2="-230.343" gradientUnits="userSpaceOnUse">
<stop stop-color="#F8B54A"/>
<stop offset="1" stop-color="#F8A629"/>
</linearGradient>
<linearGradient id="paint118_linear_33_4021" x1="-5828.69" y1="-987.701" x2="-5832.52" y2="-985.778" gradientUnits="userSpaceOnUse">
<stop stop-color="#BE1E68"/>
<stop offset="1" stop-color="#B5188D"/>
</linearGradient>
<linearGradient id="paint119_linear_33_4021" x1="-10118" y1="-2487.9" x2="-10126.4" y2="-2483.69" gradientUnits="userSpaceOnUse">
<stop stop-color="#6DD0E7"/>
<stop offset="1" stop-color="#01A7DB"/>
</linearGradient>
<linearGradient id="paint120_linear_33_4021" x1="-5257.07" y1="-2017.84" x2="-5260.91" y2="-2015.92" gradientUnits="userSpaceOnUse">
<stop stop-color="#F44274"/>
<stop offset="1" stop-color="#E51F9A"/>
</linearGradient>
<linearGradient id="paint121_linear_33_4021" x1="-9234.99" y1="1574.28" x2="-9243.95" y2="1578.78" gradientUnits="userSpaceOnUse">
<stop stop-color="#B5188D"/>
<stop offset="1" stop-color="#4E69AE"/>
</linearGradient>
<linearGradient id="paint122_linear_33_4021" x1="-4486.6" y1="-648.498" x2="-4489.58" y2="-647.001" gradientUnits="userSpaceOnUse">
<stop stop-color="#BE1E68"/>
<stop offset="1" stop-color="#B5188D"/>
</linearGradient>
<linearGradient id="paint123_linear_33_4021" x1="-5394.08" y1="-309.644" x2="-5396.66" y2="-308.348" gradientUnits="userSpaceOnUse">
<stop stop-color="#F8B54A"/>
<stop offset="1" stop-color="#F8A629"/>
</linearGradient>
<linearGradient id="paint124_linear_33_4021" x1="-10706.7" y1="-896.598" x2="-10712.8" y2="-893.525" gradientUnits="userSpaceOnUse">
<stop stop-color="#BE1E68"/>
<stop offset="1" stop-color="#B5188D"/>
</linearGradient>
<linearGradient id="paint125_linear_33_4021" x1="-7479.4" y1="-1976.34" x2="-7484.99" y2="-1973.53" gradientUnits="userSpaceOnUse">
<stop stop-color="#6DD0E7"/>
<stop offset="1" stop-color="#01A7DB"/>
</linearGradient>
<linearGradient id="paint126_linear_33_4021" x1="-10748.4" y1="571.128" x2="-10756.4" y2="575.173" gradientUnits="userSpaceOnUse">
<stop stop-color="#F71873"/>
<stop offset="1" stop-color="#F8A629"/>
</linearGradient>
<linearGradient id="paint127_linear_33_4021" x1="-13498.2" y1="539.939" x2="-13509.4" y2="545.551" gradientUnits="userSpaceOnUse">
<stop stop-color="#FBE422"/>
<stop offset="1" stop-color="#C8D92B"/>
</linearGradient>
<linearGradient id="paint128_linear_33_4021" x1="-9075.29" y1="-721.31" x2="-9080.08" y2="-718.905" gradientUnits="userSpaceOnUse">
<stop stop-color="#BE1E68"/>
<stop offset="1" stop-color="#B5188D"/>
</linearGradient>
<linearGradient id="paint129_linear_33_4021" x1="-11920.3" y1="690.6" x2="-11930.1" y2="695.492" gradientUnits="userSpaceOnUse">
<stop stop-color="#6DD0E7"/>
<stop offset="1" stop-color="#01A7DB"/>
</linearGradient>
<linearGradient id="paint130_linear_33_4021" x1="-13215.5" y1="-1435.88" x2="-13223.7" y2="-1431.79" gradientUnits="userSpaceOnUse">
<stop stop-color="#FBE422"/>
<stop offset="1" stop-color="#C8D92B"/>
</linearGradient>
<linearGradient id="paint131_linear_33_4021" x1="-7393.65" y1="894.933" x2="-7399.31" y2="897.774" gradientUnits="userSpaceOnUse">
<stop stop-color="#BE1E68"/>
<stop offset="1" stop-color="#B5188D"/>
</linearGradient>
<linearGradient id="paint132_linear_33_4021" x1="-13183.6" y1="-2651.91" x2="-13195" y2="-2646.17" gradientUnits="userSpaceOnUse">
<stop stop-color="#B4DF86"/>
<stop offset="1" stop-color="#84C743"/>
</linearGradient>
<linearGradient id="paint133_linear_33_4021" x1="-9406.12" y1="-439.323" x2="-9412.49" y2="-436.123" gradientUnits="userSpaceOnUse">
<stop stop-color="#B5188D"/>
<stop offset="1" stop-color="#4E69AE"/>
</linearGradient>
<linearGradient id="paint134_linear_33_4021" x1="-14044.1" y1="800.096" x2="-14056.7" y2="806.424" gradientUnits="userSpaceOnUse">
<stop stop-color="#6DD0E7"/>
<stop offset="1" stop-color="#01A7DB"/>
</linearGradient>
<linearGradient id="paint135_linear_33_4021" x1="-7950.66" y1="953.91" x2="-7956.95" y2="957.067" gradientUnits="userSpaceOnUse">
<stop stop-color="#F71873"/>
<stop offset="1" stop-color="#F8A629"/>
</linearGradient>
<linearGradient id="paint136_linear_33_4021" x1="-10398.1" y1="322.737" x2="-10405.1" y2="326.284" gradientUnits="userSpaceOnUse">
<stop stop-color="#FBE422"/>
<stop offset="1" stop-color="#C8D92B"/>
</linearGradient>
<linearGradient id="paint137_linear_33_4021" x1="-11633.8" y1="-818.361" x2="-11640.7" y2="-814.888" gradientUnits="userSpaceOnUse">
<stop stop-color="#F71873"/>
<stop offset="1" stop-color="#C6211B"/>
</linearGradient>
<linearGradient id="paint138_linear_33_4021" x1="-5513.61" y1="-103.551" x2="-5517.01" y2="-101.847" gradientUnits="userSpaceOnUse">
<stop stop-color="#F71873"/>
<stop offset="1" stop-color="#F8A629"/>
</linearGradient>
<linearGradient id="paint139_linear_33_4021" x1="-5046.47" y1="-654.788" x2="-5049.76" y2="-653.135" gradientUnits="userSpaceOnUse">
<stop stop-color="#6DD0E7"/>
<stop offset="1" stop-color="#01A7DB"/>
</linearGradient>
<linearGradient id="paint140_linear_33_4021" x1="-6928.26" y1="-1370.76" x2="-6932.92" y2="-1368.43" gradientUnits="userSpaceOnUse">
<stop stop-color="#F87D5E"/>
<stop offset="1" stop-color="#EB622C"/>
</linearGradient>
<linearGradient id="paint141_linear_33_4021" x1="-10031.3" y1="169.082" x2="-10038.3" y2="172.584" gradientUnits="userSpaceOnUse">
<stop stop-color="#FBE422"/>
<stop offset="1" stop-color="#C8D92B"/>
</linearGradient>
<linearGradient id="paint142_linear_33_4021" x1="-9913.82" y1="-247.769" x2="-9920.36" y2="-244.484" gradientUnits="userSpaceOnUse">
<stop stop-color="#6DD0E7"/>
<stop offset="1" stop-color="#01A7DB"/>
</linearGradient>
<linearGradient id="paint143_linear_33_4021" x1="-8238.64" y1="-2871.27" x2="-8244.68" y2="-2868.24" gradientUnits="userSpaceOnUse">
<stop stop-color="#F71873"/>
<stop offset="1" stop-color="#F8A629"/>
</linearGradient>
<linearGradient id="paint144_linear_33_4021" x1="-8496.87" y1="-60.4931" x2="-8502.21" y2="-57.8119" gradientUnits="userSpaceOnUse">
<stop stop-color="#F8B54A"/>
<stop offset="1" stop-color="#F8A629"/>
</linearGradient>
<linearGradient id="paint145_linear_33_4021" x1="-5050.18" y1="-2149.62" x2="-5053.71" y2="-2147.85" gradientUnits="userSpaceOnUse">
<stop stop-color="#F71873"/>
<stop offset="1" stop-color="#C6211B"/>
</linearGradient>
<linearGradient id="paint146_linear_33_4021" x1="-8931.61" y1="82.3678" x2="-8937.63" y2="85.3881" gradientUnits="userSpaceOnUse">
<stop stop-color="#F8B54A"/>
<stop offset="1" stop-color="#F8A629"/>
</linearGradient>
<linearGradient id="paint147_linear_33_4021" x1="-9073.42" y1="413.67" x2="-9080.11" y2="417.025" gradientUnits="userSpaceOnUse">
<stop stop-color="#F71873"/>
<stop offset="1" stop-color="#F8A629"/>
</linearGradient>
<linearGradient id="paint148_linear_33_4021" x1="-5871.18" y1="-825.821" x2="-5875.15" y2="-823.829" gradientUnits="userSpaceOnUse">
<stop stop-color="#BE1E68"/>
<stop offset="1" stop-color="#B5188D"/>
</linearGradient>
<linearGradient id="paint149_linear_33_4021" x1="-3484.42" y1="1142.72" x2="-3487.48" y2="1144.25" gradientUnits="userSpaceOnUse">
<stop stop-color="#F71873"/>
<stop offset="1" stop-color="#F8A629"/>
</linearGradient>
<linearGradient id="paint150_linear_33_4021" x1="-3480.28" y1="1151.65" x2="-3483.26" y2="1153.14" gradientUnits="userSpaceOnUse">
<stop stop-color="#F71873"/>
<stop offset="1" stop-color="#F8A629"/>
</linearGradient>
<linearGradient id="paint151_linear_33_4021" x1="-5736.81" y1="1349.63" x2="-5741.76" y2="1352.12" gradientUnits="userSpaceOnUse">
<stop stop-color="#F8B54A"/>
<stop offset="1" stop-color="#F8A629"/>
</linearGradient>
<linearGradient id="paint152_linear_33_4021" x1="-6241.65" y1="1284.93" x2="-6246.7" y2="1287.46" gradientUnits="userSpaceOnUse">
<stop stop-color="#F8B54A"/>
<stop offset="1" stop-color="#F8A629"/>
</linearGradient>
<linearGradient id="paint153_linear_33_4021" x1="-5412.66" y1="1298.59" x2="-5417.36" y2="1300.95" gradientUnits="userSpaceOnUse">
<stop stop-color="#6DD0E7"/>
<stop offset="1" stop-color="#01A7DB"/>
</linearGradient>
<linearGradient id="paint154_linear_33_4021" x1="-5660.04" y1="-1488.88" x2="-5664.01" y2="-1486.89" gradientUnits="userSpaceOnUse">
<stop stop-color="#6DD0E7"/>
<stop offset="1" stop-color="#01A7DB"/>
</linearGradient>
<linearGradient id="paint155_linear_33_4021" x1="-5356.8" y1="755.438" x2="-5360.62" y2="757.357" gradientUnits="userSpaceOnUse">
<stop stop-color="#F44274"/>
<stop offset="1" stop-color="#E51F9A"/>
</linearGradient>
<linearGradient id="paint156_linear_33_4021" x1="-10438.5" y1="-156.742" x2="-10446" y2="-152.964" gradientUnits="userSpaceOnUse">
<stop stop-color="#6DD0E7"/>
<stop offset="1" stop-color="#01A7DB"/>
</linearGradient>
<linearGradient id="paint157_linear_33_4021" x1="-10797.5" y1="-2830.43" x2="-10806.7" y2="-2825.81" gradientUnits="userSpaceOnUse">
<stop stop-color="#F8B54A"/>
<stop offset="1" stop-color="#F8A629"/>
</linearGradient>
<linearGradient id="paint158_linear_33_4021" x1="-9519.96" y1="-372.176" x2="-9525.68" y2="-369.306" gradientUnits="userSpaceOnUse">
<stop stop-color="#BE1E68"/>
<stop offset="1" stop-color="#B5188D"/>
</linearGradient>
<linearGradient id="paint159_linear_33_4021" x1="-8752.03" y1="1199.19" x2="-8759.26" y2="1202.82" gradientUnits="userSpaceOnUse">
<stop stop-color="#F71873"/>
<stop offset="1" stop-color="#F8A629"/>
</linearGradient>
<linearGradient id="paint160_linear_33_4021" x1="-9521.65" y1="-1355.06" x2="-9526.08" y2="-1352.84" gradientUnits="userSpaceOnUse">
<stop stop-color="#B4DF86"/>
<stop offset="1" stop-color="#84C743"/>
</linearGradient>
<linearGradient id="paint161_linear_33_4021" x1="-8836.27" y1="-206.542" x2="-8841.64" y2="-203.851" gradientUnits="userSpaceOnUse">
<stop stop-color="#B4DF86"/>
<stop offset="1" stop-color="#84C743"/>
</linearGradient>
<linearGradient id="paint162_linear_33_4021" x1="-4876.67" y1="1177.57" x2="-4880.55" y2="1179.52" gradientUnits="userSpaceOnUse">
<stop stop-color="#F71873"/>
<stop offset="1" stop-color="#C6211B"/>
</linearGradient>
<linearGradient id="paint163_linear_33_4021" x1="-6947.16" y1="1273.58" x2="-6952.74" y2="1276.38" gradientUnits="userSpaceOnUse">
<stop stop-color="#FBE422"/>
<stop offset="1" stop-color="#C8D92B"/>
</linearGradient>
<linearGradient id="paint164_linear_33_4021" x1="-7537.11" y1="1316.06" x2="-7543.88" y2="1319.46" gradientUnits="userSpaceOnUse">
<stop stop-color="#F44274"/>
<stop offset="1" stop-color="#E51F9A"/>
</linearGradient>
<linearGradient id="paint165_linear_33_4021" x1="-8712.5" y1="-456.976" x2="-8717.55" y2="-454.44" gradientUnits="userSpaceOnUse">
<stop stop-color="#B5188D"/>
<stop offset="1" stop-color="#4E69AE"/>
</linearGradient>
<linearGradient id="paint166_linear_33_4021" x1="-8058.84" y1="-1256.68" x2="-8064.45" y2="-1253.86" gradientUnits="userSpaceOnUse">
<stop stop-color="#F44274"/>
<stop offset="1" stop-color="#E51F9A"/>
</linearGradient>
<linearGradient id="paint167_linear_33_4021" x1="-7019.47" y1="-2570.5" x2="-7024.72" y2="-2567.86" gradientUnits="userSpaceOnUse">
<stop stop-color="#6DD0E7"/>
<stop offset="1" stop-color="#01A7DB"/>
</linearGradient>
<linearGradient id="paint168_linear_33_4021" x1="-66696.3" y1="142013" x2="-64001.6" y2="143459" gradientUnits="userSpaceOnUse">
<stop stop-color="#F71873"/>
<stop offset="1" stop-color="#C6211B"/>
</linearGradient>
<linearGradient id="paint169_linear_33_4021" x1="-7807.84" y1="19051.7" x2="-7924.98" y2="19374.3" gradientUnits="userSpaceOnUse">
<stop stop-color="#F44274"/>
<stop offset="1" stop-color="#E51F9A"/>
</linearGradient>
<linearGradient id="paint170_linear_33_4021" x1="-29843.5" y1="61343.8" x2="-30220.5" y2="63111.4" gradientUnits="userSpaceOnUse">
<stop stop-color="#F44274"/>
<stop offset="1" stop-color="#E51F9A"/>
</linearGradient>
<linearGradient id="paint171_linear_33_4021" x1="-25884" y1="52754.6" x2="-25453.1" y2="53540.2" gradientUnits="userSpaceOnUse">
<stop stop-color="#F44274"/>
<stop offset="1" stop-color="#E51F9A"/>
</linearGradient>
<linearGradient id="paint172_linear_33_4021" x1="29719.7" y1="-93189.2" x2="30247.4" y2="-92390.3" gradientUnits="userSpaceOnUse">
<stop stop-color="#F44274"/>
<stop offset="1" stop-color="#E51F9A"/>
</linearGradient>
<linearGradient id="paint173_linear_33_4021" x1="12445.4" y1="-43075" x2="13894.8" y2="-43713.8" gradientUnits="userSpaceOnUse">
<stop stop-color="#B5188D"/>
<stop offset="1" stop-color="#4E69AE"/>
</linearGradient>
<linearGradient id="paint174_linear_33_4021" x1="-12467.9" y1="61220.8" x2="-11683.4" y2="61492" gradientUnits="userSpaceOnUse">
<stop stop-color="#F71873"/>
<stop offset="1" stop-color="#C6211B"/>
</linearGradient>
<linearGradient id="paint175_linear_33_4021" x1="751.634" y1="23018.6" x2="1649.45" y2="22791" gradientUnits="userSpaceOnUse">
<stop stop-color="#F8B54A"/>
<stop offset="1" stop-color="#F8A629"/>
</linearGradient>
<linearGradient id="paint176_linear_33_4021" x1="-3884.22" y1="20632.7" x2="-3708.67" y2="20630.9" gradientUnits="userSpaceOnUse">
<stop stop-color="#F8B54A"/>
<stop offset="1" stop-color="#F8A629"/>
</linearGradient>
<linearGradient id="paint177_linear_33_4021" x1="-22139" y1="16470.9" x2="-22369.9" y2="16572.5" gradientUnits="userSpaceOnUse">
<stop stop-color="#6DD0E7"/>
<stop offset="1" stop-color="#01A7DB"/>
</linearGradient>
<linearGradient id="paint178_linear_33_4021" x1="-63132.2" y1="31874.9" x2="-63524.7" y2="32047.6" gradientUnits="userSpaceOnUse">
<stop stop-color="#B4DF86"/>
<stop offset="1" stop-color="#84C743"/>
</linearGradient>
<linearGradient id="paint179_linear_33_4021" x1="-8793.15" y1="8960.35" x2="-8712.05" y2="8823.75" gradientUnits="userSpaceOnUse">
<stop stop-color="#6DD0E7"/>
<stop offset="1" stop-color="#01A7DB"/>
</linearGradient>
<linearGradient id="paint180_linear_33_4021" x1="-49125.7" y1="24093.8" x2="-49368.9" y2="24044.6" gradientUnits="userSpaceOnUse">
<stop stop-color="#B4DF86"/>
<stop offset="1" stop-color="#84C743"/>
</linearGradient>
<linearGradient id="paint181_linear_33_4021" x1="-212486" y1="-31655.8" x2="-213335" y2="-31151.5" gradientUnits="userSpaceOnUse">
<stop stop-color="#FBE422"/>
<stop offset="1" stop-color="#C8D92B"/>
</linearGradient>
<linearGradient id="paint182_linear_33_4021" x1="-45470.2" y1="-27532.7" x2="-45555.5" y2="-27401.4" gradientUnits="userSpaceOnUse">
<stop stop-color="#B4DF86"/>
<stop offset="1" stop-color="#84C743"/>
</linearGradient>
<linearGradient id="paint183_linear_33_4021" x1="-60650.2" y1="-7540.07" x2="-60792.7" y2="-7414.77" gradientUnits="userSpaceOnUse">
<stop stop-color="#B4DF86"/>
<stop offset="1" stop-color="#84C743"/>
</linearGradient>
<linearGradient id="paint184_linear_33_4021" x1="-99777.9" y1="-2804.96" x2="-100130" y2="-2458.89" gradientUnits="userSpaceOnUse">
<stop stop-color="#B4DF86"/>
<stop offset="1" stop-color="#84C743"/>
</linearGradient>
<linearGradient id="paint185_linear_33_4021" x1="-50922.9" y1="-114782" x2="-51050.8" y2="-115185" gradientUnits="userSpaceOnUse">
<stop stop-color="#F71873"/>
<stop offset="1" stop-color="#F8A629"/>
</linearGradient>
<linearGradient id="paint186_linear_33_4021" x1="-14370.9" y1="-36120.2" x2="-14420.5" y2="-36121.9" gradientUnits="userSpaceOnUse">
<stop stop-color="#F71873"/>
<stop offset="1" stop-color="#C6211B"/>
</linearGradient>
<linearGradient id="paint187_linear_33_4021" x1="-13760" y1="-25402" x2="-13792.6" y2="-25460.1" gradientUnits="userSpaceOnUse">
<stop stop-color="#F71873"/>
<stop offset="1" stop-color="#C6211B"/>
</linearGradient>
<linearGradient id="paint188_linear_33_4021" x1="-20358.6" y1="-31892.6" x2="-20417.7" y2="-32009" gradientUnits="userSpaceOnUse">
<stop stop-color="#F71873"/>
<stop offset="1" stop-color="#C6211B"/>
</linearGradient>
<clipPath id="clip0_33_4021">
<rect width="551" height="426.537" fill="white" transform="translate(-88 0.439453)"/>
</clipPath>
</defs>
</svg>
