<svg width="50" height="50" viewBox="0 0 50 50" fill="none" xmlns="http://www.w3.org/2000/svg">
<rect opacity="0.12" width="50" height="50" rx="8" fill="#E586F5"/>
<g filter="url(#filter0_d_1171_6563)">
<path d="M30.8125 35.2504V35.6129C28.9625 36.8004 26.75 37.5004 24.375 37.5004C21.9625 37.5004 19.7125 36.7754 17.8375 35.5379V35.2504C17.8375 32.3379 20.75 29.9629 24.325 29.9629C27.9125 29.9629 30.8125 32.3379 30.8125 35.2504Z" fill="#E586F5"/>
<path opacity="0.3" d="M36.25 25.625C36.25 29.8125 34.0875 33.4875 30.8125 35.6125V35.25C30.8125 32.3375 27.9125 29.9625 24.325 29.9625C20.75 29.9625 17.8375 32.3375 17.8375 35.25V35.5375C14.625 33.4125 12.5 29.775 12.5 25.625C12.5 19.0625 17.8125 13.75 24.375 13.75C26.0125 13.75 27.575 14.075 29 14.675C28.8375 15.175 28.75 15.7 28.75 16.25C28.75 17.1875 29.0125 18.075 29.475 18.825C29.725 19.25 30.05 19.6375 30.425 19.9625C31.3 20.7625 32.4625 21.25 33.75 21.25C34.3 21.25 34.825 21.1625 35.3125 20.9875C35.9125 22.4125 36.25 23.9875 36.25 25.625Z" fill="#E586F5"/>
<path d="M37.4625 12.9125C36.5625 11.8875 35.225 11.25 33.75 11.25C32.35 11.25 31.075 11.825 30.1625 12.7625C29.6375 13.3 29.2375 13.95 29 14.675C28.8375 15.175 28.75 15.7 28.75 16.25C28.75 17.1875 29.0125 18.075 29.475 18.825C29.725 19.25 30.05 19.6375 30.425 19.9625C31.3 20.7625 32.4625 21.25 33.75 21.25C34.3 21.25 34.825 21.1625 35.3125 20.9875C36.4625 20.625 37.425 19.8375 38.025 18.825C38.2875 18.4 38.4875 17.9125 38.6 17.4125C38.7 17.0375 38.75 16.65 38.75 16.25C38.75 14.975 38.2625 13.8 37.4625 12.9125ZM35.6125 17.1625H34.6875V18.1375C34.6875 18.65 34.2625 19.075 33.75 19.075C33.2375 19.075 32.8125 18.65 32.8125 18.1375V17.1625H31.8875C31.375 17.1625 30.95 16.7375 30.95 16.225C30.95 15.7125 31.375 15.2875 31.8875 15.2875H32.8125V14.4C32.8125 13.8875 33.2375 13.4625 33.75 13.4625C34.2625 13.4625 34.6875 13.8875 34.6875 14.4V15.2875H35.6125C36.125 15.2875 36.55 15.7125 36.55 16.225C36.55 16.7375 36.1375 17.1625 35.6125 17.1625Z" fill="#E586F5"/>
<path d="M24.325 28.4127C26.2649 28.4127 27.8375 26.8401 27.8375 24.9002C27.8375 22.9603 26.2649 21.3877 24.325 21.3877C22.3851 21.3877 20.8125 22.9603 20.8125 24.9002C20.8125 26.8401 22.3851 28.4127 24.325 28.4127Z" fill="#E586F5"/>
</g>
<defs>
<filter id="filter0_d_1171_6563" x="2" y="6" width="46" height="46" filterUnits="userSpaceOnUse" color-interpolation-filters="sRGB">
<feFlood flood-opacity="0" result="BackgroundImageFix"/>
<feColorMatrix in="SourceAlpha" type="matrix" values="0 0 0 0 0 0 0 0 0 0 0 0 0 0 0 0 0 0 127 0" result="hardAlpha"/>
<feOffset dy="4"/>
<feGaussianBlur stdDeviation="4"/>
<feColorMatrix type="matrix" values="0 0 0 0 0.898039 0 0 0 0 0.52549 0 0 0 0 0.960784 0 0 0 0.26 0"/>
<feBlend mode="normal" in2="BackgroundImageFix" result="effect1_dropShadow_1171_6563"/>
<feBlend mode="normal" in="SourceGraphic" in2="effect1_dropShadow_1171_6563" result="shape"/>
</filter>
</defs>
</svg>
