<svg width="50" height="50" viewBox="0 0 50 50" fill="none" xmlns="http://www.w3.org/2000/svg">
<rect opacity="0.12" width="50" height="50" rx="8" fill="#48EA81"/>
<g filter="url(#filter0_d_1171_6318)">
<path opacity="0.3" d="M36.3624 36.875C36.3624 37.225 36.0874 37.5 35.7374 37.5H14.2625C13.9125 37.5 13.6375 37.225 13.6375 36.875C13.6375 31.7 18.7374 27.5 24.9999 27.5C26.2874 27.5 27.5375 27.675 28.6875 28.0125C27.95 28.8875 27.4999 30.025 27.4999 31.25C27.4999 32.1875 27.7624 33.075 28.2249 33.825C28.4749 34.25 28.7999 34.6375 29.1749 34.9625C30.0499 35.7625 31.2124 36.25 32.4999 36.25C33.8999 36.25 35.1625 35.675 36.0625 34.75C36.2625 35.425 36.3624 36.1375 36.3624 36.875Z" fill="#48EA81"/>
<path d="M36.2125 27.9125C35.3125 26.8875 33.975 26.25 32.5 26.25C31.1 26.25 29.825 26.825 28.9125 27.7625C28.0375 28.6625 27.5 29.9 27.5 31.25C27.5 32.1875 27.7625 33.075 28.225 33.825C28.475 34.25 28.8 34.6375 29.175 34.9625C30.05 35.7625 31.2125 36.25 32.5 36.25C34.325 36.25 35.9125 35.275 36.775 33.825C37.0375 33.4 37.2375 32.9125 37.35 32.4125C37.45 32.0375 37.5 31.65 37.5 31.25C37.5 29.975 37.0125 28.8 36.2125 27.9125ZM34.375 32.1625H33.4375V33.1375C33.4375 33.65 33.0125 34.075 32.5 34.075C31.9875 34.075 31.5625 33.65 31.5625 33.1375V32.1625H30.625C30.1125 32.1625 29.6875 31.7375 29.6875 31.225C29.6875 30.7125 30.1125 30.2875 30.625 30.2875H31.5625V29.4C31.5625 28.8875 31.9875 28.4625 32.5 28.4625C33.0125 28.4625 33.4375 28.8875 33.4375 29.4V30.2875H34.375C34.8875 30.2875 35.3125 30.7125 35.3125 31.225C35.3125 31.7375 34.8875 32.1625 34.375 32.1625Z" fill="#48EA81"/>
<path d="M25 25C28.4518 25 31.25 22.2018 31.25 18.75C31.25 15.2982 28.4518 12.5 25 12.5C21.5482 12.5 18.75 15.2982 18.75 18.75C18.75 22.2018 21.5482 25 25 25Z" fill="#48EA81"/>
</g>
<defs>
<filter id="filter0_d_1171_6318" x="2" y="6" width="46" height="46" filterUnits="userSpaceOnUse" color-interpolation-filters="sRGB">
<feFlood flood-opacity="0" result="BackgroundImageFix"/>
<feColorMatrix in="SourceAlpha" type="matrix" values="0 0 0 0 0 0 0 0 0 0 0 0 0 0 0 0 0 0 127 0" result="hardAlpha"/>
<feOffset dy="4"/>
<feGaussianBlur stdDeviation="4"/>
<feColorMatrix type="matrix" values="0 0 0 0 0.282353 0 0 0 0 0.917647 0 0 0 0 0.505882 0 0 0 0.26 0"/>
<feBlend mode="normal" in2="BackgroundImageFix" result="effect1_dropShadow_1171_6318"/>
<feBlend mode="normal" in="SourceGraphic" in2="effect1_dropShadow_1171_6318" result="shape"/>
</filter>
</defs>
</svg>
