<svg width="132" height="474" viewBox="0 0 132 474" fill="none" xmlns="http://www.w3.org/2000/svg">
<path d="M378.708 298.81C394.333 283.19 394.335 257.86 378.712 242.238L231.762 95.2879C216.14 79.6655 190.81 79.6671 175.19 95.2915L28.277 242.242C12.6595 257.863 12.6611 283.187 28.2807 298.807L175.193 445.719C190.813 461.339 216.137 461.341 231.758 445.723L378.708 298.81ZM117.57 298.842C101.936 283.209 101.95 257.857 117.602 242.242L175.222 184.752C190.836 169.174 216.113 169.174 231.726 184.752L289.347 242.242C304.998 257.857 305.012 283.209 289.379 298.842L231.758 356.463C216.137 372.084 190.811 372.084 175.19 356.463L117.57 298.842Z" fill="#5E5F6E"/>
<path d="M165.195 28.8204L85.2863 108.718C69.6642 124.338 69.6642 149.662 85.2863 165.282L165.195 245.18C180.817 260.799 206.146 260.799 221.768 245.18L301.676 165.282C317.299 149.662 317.299 124.338 301.676 108.718L221.768 28.8204C206.146 13.2006 180.817 13.2006 165.195 28.8204Z" fill="#F56662"/>
</svg>
