<svg width="182" height="195" viewBox="0 0 182 195" fill="none" xmlns="http://www.w3.org/2000/svg">
<rect opacity="0.12" x="16" width="150" height="150" rx="25" fill="#F58986"/>
<g filter="url(#filter0_d_0_1)">
<path d="M128.792 46.7913C122.084 46.1247 115.375 45.6247 108.625 45.2497V45.208L107.709 39.7913C107.084 35.958 106.167 30.208 96.4169 30.208H85.5002C75.7919 30.208 74.8752 35.708 74.2086 39.7497L73.3336 45.083C69.4586 45.333 65.5836 45.583 61.7086 45.958L53.2086 46.7913C51.4586 46.958 50.2086 48.4997 50.3752 50.208C50.5419 51.9163 52.0419 53.1663 53.7919 52.9997L62.2919 52.1663C84.1252 49.9997 106.125 50.833 128.209 53.0413C128.334 53.0413 128.417 53.0413 128.542 53.0413C130.125 53.0413 131.5 51.833 131.667 50.208C131.792 48.4997 130.542 46.958 128.792 46.7913Z" fill="#F58986"/>
<path opacity="0.3" d="M121.126 58.917C120.126 57.8753 118.751 57.292 117.335 57.292H64.6679C63.2512 57.292 61.8346 57.8753 60.8762 58.917C59.9179 59.9587 59.3762 61.3753 59.4596 62.8337L62.0429 105.584C62.5012 111.917 63.0846 119.834 77.6262 119.834H104.376C118.918 119.834 119.501 111.959 119.96 105.584L122.543 62.8753C122.626 61.3753 122.085 59.9587 121.126 58.917Z" fill="#F58986"/>
<path fill-rule="evenodd" clip-rule="evenodd" d="M80.917 95.833C80.917 94.1071 82.3161 92.708 84.042 92.708H97.917C99.6429 92.708 101.042 94.1071 101.042 95.833C101.042 97.5589 99.6429 98.958 97.917 98.958H84.042C82.3161 98.958 80.917 97.5589 80.917 95.833Z" fill="#F58986"/>
<path fill-rule="evenodd" clip-rule="evenodd" d="M77.458 79.167C77.458 77.4411 78.8571 76.042 80.583 76.042H101.416C103.142 76.042 104.541 77.4411 104.541 79.167C104.541 80.8929 103.142 82.292 101.416 82.292H80.583C78.8571 82.292 77.458 80.8929 77.458 79.167Z" fill="#F58986"/>
</g>
<defs>
<filter id="filter0_d_0_1" x="-9" y="0" width="200" height="200" filterUnits="userSpaceOnUse" color-interpolation-filters="sRGB">
<feFlood flood-opacity="0" result="BackgroundImageFix"/>
<feColorMatrix in="SourceAlpha" type="matrix" values="0 0 0 0 0 0 0 0 0 0 0 0 0 0 0 0 0 0 127 0" result="hardAlpha"/>
<feOffset dy="25"/>
<feGaussianBlur stdDeviation="25"/>
<feColorMatrix type="matrix" values="0 0 0 0 0.960784 0 0 0 0 0.537255 0 0 0 0 0.52549 0 0 0 0.25 0"/>
<feBlend mode="normal" in2="BackgroundImageFix" result="effect1_dropShadow_0_1"/>
<feBlend mode="normal" in="SourceGraphic" in2="effect1_dropShadow_0_1" result="shape"/>
</filter>
</defs>
</svg>
