<svg width="80" height="80" viewBox="0 0 80 80" fill="none" xmlns="http://www.w3.org/2000/svg">
<path opacity="0.12" d="M56.0001 30H24.0001C13.3334 30 6.66675 36.6667 6.66675 47.3333V55.9667C6.66675 66.6667 13.3334 73.3333 24.0001 73.3333H55.9668C66.6334 73.3333 73.3001 66.6667 73.3001 56V47.3333C73.3334 36.6667 66.6667 30 56.0001 30Z" fill="#5E5F6E"/>
<path d="M52.933 41.4337L41.7663 52.6003C40.7996 53.567 39.1996 53.567 38.233 52.6003L27.0663 41.4337C26.0996 40.467 26.0996 38.867 27.0663 37.9003C28.033 36.9337 29.633 36.9337 30.5996 37.9003L37.4996 44.8003V9.16699C37.4996 7.80033 38.633 6.66699 39.9996 6.66699C41.3663 6.66699 42.4996 7.80033 42.4996 9.16699V44.8003L49.3996 37.9003C49.8996 37.4003 50.533 37.167 51.1663 37.167C51.7996 37.167 52.433 37.4003 52.933 37.9003C53.933 38.867 53.933 40.4337 52.933 41.4337Z" fill="#5E5F6E"/>
</svg>
