<svg width="770" height="450" viewBox="0 0 770 450" fill="none" xmlns="http://www.w3.org/2000/svg">
<rect width="770" height="450" rx="15" fill="url(#paint0_linear_142_4160)"/>
<g opacity="0.1">
<mask id="mask0_142_4160" style="mask-type:alpha" maskUnits="userSpaceOnUse" x="0" y="0" width="770" height="450">
<rect width="770" height="450" rx="15" fill="url(#paint1_linear_142_4160)"/>
</mask>
<g mask="url(#mask0_142_4160)">
<mask id="mask1_142_4160" style="mask-type:alpha" maskUnits="userSpaceOnUse" x="-287" y="-135" width="1344" height="720">
<path d="M1057 -134.592H-287V584.718H1057V-134.592Z" fill="white"/>
</mask>
<g mask="url(#mask1_142_4160)">
<path d="M-378.392 283.758C-195.428 476.245 17.1028 265.2 212.789 349.647C408.476 434.094 655.055 523.72 761.858 405.322C911.131 239.88 425.32 146.945 660.968 -69.2793C845.186 -238.317 375.682 -339.452 375.682 -339.452" stroke="white" stroke-miterlimit="10"/>
<path d="M-379.646 291.383C-196.863 478.835 18.1774 274.263 216.373 357.847C414.926 441.287 662.76 529.475 770.1 411.939C920.808 247.073 443.061 149.967 672.078 -66.6897C720.283 -112.438 722.075 -153.151 700.212 -188.685C639.284 -287.518 390.734 -342.329 390.734 -342.329" stroke="#FBFBFB" stroke-miterlimit="10"/>
<path d="M-381.08 299.151C-198.475 481.568 19.0734 283.614 219.957 366.047C421.198 448.624 670.465 535.229 778.343 418.413C930.305 254.267 461.518 153.275 683.368 -64.3879C730.318 -110.28 731.572 -151.424 710.785 -187.534C652.008 -289.82 405.608 -345.207 405.608 -345.207" stroke="#F8F8F8" stroke-miterlimit="10"/>
<path d="M-382.334 306.92C-199.729 484.158 19.9699 292.965 223.541 374.391C427.65 455.961 678.171 541.127 786.408 425.175C939.624 261.747 479.438 156.584 694.478 -61.6544C739.995 -107.834 740.891 -149.266 721.358 -185.807C664.731 -292.121 420.661 -348.084 420.661 -348.084" stroke="#F4F4F4" stroke-miterlimit="10"/>
<path d="M-383.589 314.545C-201.163 486.748 21.0446 302.029 227.125 382.591C434.101 463.298 685.876 547.026 794.651 431.648C949.121 268.94 497.537 159.605 705.768 -59.2088C750.03 -105.676 750.388 -147.396 731.931 -184.369C677.454 -294.567 435.534 -350.961 435.534 -350.961" stroke="#F0F0F0" stroke-miterlimit="10"/>
<path d="M-385.022 322.313C-202.776 489.481 21.9406 311.38 230.709 390.936C440.552 470.635 693.582 552.924 802.894 438.41C958.619 276.278 515.636 162.914 717.057 -56.6191C759.886 -103.374 759.886 -145.382 742.683 -182.786C690.177 -297.013 450.587 -353.838 450.587 -353.838" stroke="#ECECEC" stroke-miterlimit="10"/>
<path d="M-386.276 329.938C-204.209 491.927 23.0161 320.443 234.293 398.992C447.003 477.684 701.287 558.535 811.137 444.74C968.116 283.327 533.736 165.792 728.347 -54.3173C769.921 -101.216 769.563 -143.656 753.435 -181.491C703.08 -299.458 465.461 -356.859 465.461 -356.859" stroke="#E9E9E9" stroke-miterlimit="10"/>
<path d="M-387.711 337.706C-205.823 494.66 23.9113 329.794 237.876 407.336C453.274 485.165 708.813 564.289 819.38 451.501C977.255 290.52 551.655 168.956 739.636 -51.728C779.777 -98.9148 779.06 -141.642 764.007 -179.909C715.981 -302.048 480.513 -359.593 480.513 -359.593" stroke="#E5E5E5" stroke-miterlimit="10"/>
<path d="M-388.964 345.331C-207.255 497.249 24.988 339.001 241.462 415.536C459.727 492.358 716.52 570.044 827.624 458.119C986.754 297.857 569.756 172.121 750.927 -49.1385C789.813 -96.613 788.738 -139.772 774.76 -178.47C728.885 -304.494 495.388 -362.47 495.388 -362.47" stroke="#E1E1E1" stroke-miterlimit="10"/>
<path d="M-390.398 353.1C-208.869 499.839 25.883 348.209 244.865 423.88C465.998 499.695 724.046 575.942 835.508 464.737C995.892 305.05 587.496 175.286 761.857 -46.5489C799.31 -94.3111 798.056 -137.757 784.974 -176.888C741.966 -307.227 510.26 -365.347 510.26 -365.347" stroke="#DDDDDD" stroke-miterlimit="10"/>
<path d="M-391.652 360.725C-210.302 502.429 26.7796 357.416 248.629 431.936C472.629 506.889 731.932 581.553 843.932 471.211C1005.39 312.243 605.775 178.164 773.327 -44.247C809.525 -92.2969 807.912 -136.175 795.906 -175.593C755.048 -309.816 525.314 -368.368 525.314 -368.368" stroke="#DADADA" stroke-miterlimit="10"/>
<path d="M-393.087 368.493C-211.916 505.162 27.6745 366.623 252.033 440.28C478.721 514.225 739.457 587.451 851.994 477.828C1014.71 319.436 623.514 181.185 784.436 -41.6576C819.38 -89.9952 817.409 -134.161 806.477 -174.011C768.129 -312.406 540.186 -371.102 540.186 -371.102" stroke="#D6D6D6" stroke-miterlimit="10"/>
<path d="M-394.34 376.118C-213.348 507.608 28.7512 375.83 255.798 448.48C485.353 521.562 747.343 593.206 860.418 484.446C1024.39 326.773 641.794 184.35 795.906 -39.2119C829.416 -87.8372 827.266 -132.434 817.231 -172.572C781.391 -315.139 555.24 -373.979 555.24 -373.979" stroke="#D2D2D2" stroke-miterlimit="10"/>
<path d="M-395.595 383.886C-214.782 510.341 29.8259 385.037 259.381 456.824C491.803 528.899 755.048 599.104 868.661 491.063C1033.88 334.11 659.714 187.371 807.195 -36.6225C839.272 -85.5356 837.122 -130.564 827.982 -171.134C794.83 -317.873 570.293 -376.856 570.293 -376.856" stroke="#CECECE" stroke-miterlimit="10"/>
<path d="M-397.029 391.655C-216.396 513.074 30.721 394.388 262.964 465.024C498.254 536.092 762.753 604.858 876.903 497.681C1043.38 341.303 677.812 190.392 818.484 -34.1768C849.306 -83.3776 846.797 -128.694 838.554 -169.695C808.09 -320.606 585.165 -379.733 585.165 -379.733" stroke="#CBCBCB" stroke-miterlimit="10"/>
<path d="M-398.283 399.28C-217.829 515.52 31.7966 403.595 266.548 473.225C504.526 543.429 770.279 610.613 884.967 504.155C1052.7 348.496 695.553 193.269 829.595 -31.731C858.983 -81.2196 856.475 -126.968 849.127 -168.256C821.531 -323.339 600.039 -382.754 600.039 -382.754" stroke="#C7C7C7" stroke-miterlimit="10"/>
<path d="M-399.717 407.048C-219.442 518.254 32.5134 412.803 269.953 481.569C510.798 550.766 777.985 616.511 893.031 510.917C1062.02 355.977 713.294 196.29 840.705 -28.9976C868.839 -78.7739 866.151 -124.954 859.7 -166.53C834.971 -326.073 615.092 -385.488 615.092 -385.488" stroke="#C3C3C3" stroke-miterlimit="10"/>
<path d="M-400.971 414.673C-220.696 520.843 33.5891 422.01 273.717 489.769C517.429 558.103 785.87 622.266 901.454 517.39C1071.69 363.026 731.394 199.167 852.174 -26.6959C878.875 -76.7599 876.008 -123.371 870.453 -165.235C848.59 -328.806 629.966 -388.365 629.966 -388.365" stroke="#C0C0C0" stroke-miterlimit="10"/>
<path d="M-402.404 422.441C-222.308 523.432 34.4852 431.217 277.122 497.969C523.701 565.296 793.397 628.02 909.518 524.008C1081.01 370.363 749.135 202.189 863.285 -24.1064C888.731 -74.4581 885.685 -121.357 881.026 -163.652C862.21 -331.539 645.019 -391.386 645.019 -391.386" stroke="#BCBCBC" stroke-miterlimit="10"/>
<path d="M-403.659 430.066C-223.742 526.022 35.5598 440.424 280.884 506.169C530.331 572.49 801.281 633.775 917.94 530.482C1090.69 377.556 767.054 205.066 874.574 -21.6607C898.587 -72.3001 895.54 -119.631 891.598 -162.358C875.828 -334.273 659.892 -394.263 659.892 -394.263" stroke="#B8B8B8" stroke-miterlimit="10"/>
<path d="M-405.093 437.835C-225.355 528.755 36.4559 449.631 284.289 514.513C536.603 579.97 808.808 639.673 926.004 537.243C1100.19 384.893 784.974 208.087 885.863 -19.0713C908.443 -69.9984 905.396 -117.761 902.35 -160.775C889.627 -337.006 674.945 -397.141 674.945 -397.141" stroke="#B4B4B4" stroke-miterlimit="10"/>
<path d="M-406.347 445.459C-226.788 531.345 37.5317 458.838 288.053 522.713C543.055 587.163 816.693 645.427 934.248 543.717C1109.69 392.086 802.716 210.82 897.154 -16.7694C918.3 -67.9843 915.253 -116.178 913.103 -159.481C903.426 -339.74 689.82 -400.018 689.82 -400.018" stroke="#B1B1B1" stroke-miterlimit="10"/>
<path d="M-407.602 453.228C-228.222 533.934 38.4271 468.189 291.637 530.913C549.505 594.5 824.398 651.182 942.491 550.335C1119.18 399.423 820.635 213.841 908.443 -14.1798C928.334 -65.6824 925.288 -114.164 923.675 -157.898C917.224 -342.473 704.872 -402.895 704.872 -402.895" stroke="#ADADAD" stroke-miterlimit="10"/>
<path d="M-409.035 460.853C-229.835 536.524 39.3231 477.253 295.041 539.114C555.777 601.694 831.924 656.937 950.555 556.809C1128.5 406.617 838.196 216.575 919.553 -11.7341C938.011 -63.5244 934.964 -112.438 934.248 -156.459C931.201 -345.062 719.745 -405.772 719.745 -405.772" stroke="#A9A9A9" stroke-miterlimit="10"/>
<path d="M-410.289 468.621C-231.268 539.257 40.3989 486.604 298.805 547.458C562.408 609.03 839.81 662.835 958.978 563.57C1138.18 413.954 856.117 219.74 931.023 -9.14456C948.047 -61.2226 945 -110.567 945 -155.021C945.179 -347.796 734.799 -408.649 734.799 -408.649" stroke="#A5A5A5" stroke-miterlimit="10"/>
<path d="M-411.723 476.389C-232.881 541.847 41.2948 495.811 302.21 555.801C568.68 616.511 847.515 668.877 967.042 570.188C1147.5 421.29 873.679 222.617 942.133 -6.55537C957.723 -58.9211 954.677 -108.697 955.573 -153.438C959.157 -350.529 749.672 -411.383 749.672 -411.383" stroke="#A2A2A2" stroke-miterlimit="10"/>
<path d="M-412.978 484.014C-234.315 544.436 42.3694 505.018 305.973 563.858C575.131 623.56 855.399 674.488 975.463 576.661C1157.35 428.483 891.598 225.35 953.601 -4.25346C967.758 -56.9069 964.891 -106.971 966.503 -152.144C973.134 -353.263 764.724 -414.404 764.724 -414.404" stroke="#9E9E9E" stroke-miterlimit="10"/>
<path d="M-414.411 491.783C-235.928 547.17 43.2655 514.369 309.377 572.202C581.403 631.041 862.926 680.386 983.348 583.279C1166.49 435.821 908.98 228.371 964.532 -1.66388C977.256 -54.749 974.388 -105.101 976.718 -150.561C987.291 -355.852 779.598 -417.281 779.598 -417.281" stroke="#9A9A9A" stroke-miterlimit="10"/>
<path d="M-415.665 499.408C-237.361 549.615 44.3413 523.433 313.141 580.402C588.034 638.234 870.812 686.14 991.771 589.897C1176.17 443.158 926.722 231.249 976.002 0.925706C987.471 -52.4471 984.603 -103.087 987.65 -148.979C1001.45 -358.585 794.652 -420.158 794.652 -420.158" stroke="#979797" stroke-miterlimit="10"/>
<path d="M-417.1 507.176C-238.975 552.349 45.0569 532.784 316.545 588.746C594.305 645.571 878.337 692.039 999.834 596.514C1185.49 450.494 944.282 234.126 987.111 3.37134C997.146 -50.2892 994.279 -101.36 998.042 -147.54C1015.6 -361.175 809.524 -423.036 809.524 -423.036" stroke="#939393" stroke-miterlimit="10"/>
<path d="M-418.354 514.801C-240.229 554.938 46.1327 541.847 320.129 596.802C600.757 652.764 886.222 697.793 1008.08 602.988C1195.16 457.687 961.844 236.859 998.401 5.81681C1007 -48.1314 1004.31 -99.6341 1008.79 -146.245C1029.94 -363.765 824.577 -425.913 824.577 -425.913" stroke="#8F8F8F" stroke-miterlimit="10"/>
<path d="M-419.608 522.569C-241.663 557.528 47.2075 551.198 323.892 605.146C607.207 660.102 894.106 703.692 1016.5 609.606C1204.84 465.025 979.585 239.881 1009.69 8.26276C1016.68 -45.9732 1014.17 -97.7635 1019.37 -144.806C1044.1 -366.498 839.45 -428.79 839.45 -428.79" stroke="#8B8B8B" stroke-miterlimit="10"/>
<path d="M-421.041 530.194C-243.275 560.117 48.1044 560.261 327.298 613.346C613.48 667.295 901.634 709.446 1024.56 616.224C1214.16 472.361 996.968 242.758 1020.8 10.8521C1026.36 -43.6716 1024.03 -95.8935 1029.94 -143.224C1058.43 -369.088 854.325 -431.667 854.325 -431.667" stroke="#888888" stroke-miterlimit="10"/>
<path d="M-422.296 537.963C-244.709 562.851 49.1792 569.612 331.061 621.69C620.11 674.775 909.518 715.344 1032.81 622.841C1223.83 479.698 1014.53 245.779 1032.09 13.2978C1036.21 -41.5137 1033.88 -94.0233 1040.69 -141.785C1072.95 -371.677 869.377 -434.545 869.377 -434.545" stroke="#848484" stroke-miterlimit="10"/>
<path d="M-423.729 545.587C-246.322 565.296 50.0751 578.819 334.465 629.746C626.382 681.825 917.044 721.099 1040.87 629.315C1233.15 486.891 1031.91 248.512 1043.2 15.7434C1045.89 -39.3558 1043.74 -92.297 1051.09 -140.347C1087.1 -374.267 884.071 -437.566 884.071 -437.566" stroke="#808080" stroke-miterlimit="10"/>
<path d="M-424.984 553.356C-247.756 568.03 50.9706 588.027 338.049 638.091C632.833 689.305 925.108 727.141 1049.11 636.077C1243.01 494.66 1049.29 251.677 1054.49 18.4767C1055.74 -36.9102 1053.77 -90.1391 1061.84 -138.764C1101.62 -376.712 899.124 -440.299 899.124 -440.299" stroke="#7C7C7C" stroke-miterlimit="10"/>
<path d="M-426.417 561.124C-249.367 570.763 51.8676 597.378 341.634 646.435C639.106 696.642 932.815 733.039 1057.36 642.694C1252.51 501.853 1066.86 254.698 1065.78 20.9226C1065.6 -34.752 1063.63 -88.2687 1072.41 -137.326C1115.96 -379.302 913.999 -443.176 913.999 -443.176" stroke="#797979" stroke-miterlimit="10"/>
<path d="M-427.672 568.749C-250.802 573.209 52.9424 606.441 345.217 654.635C645.557 703.835 940.52 738.938 1065.6 649.312C1262 509.19 1084.24 257.575 1077.07 23.5119C1075.28 -32.4504 1073.67 -86.3987 1083.16 -135.743C1130.65 -381.747 929.23 -445.91 929.23 -445.91" stroke="#757575" stroke-miterlimit="10"/>
<path d="M-428.927 576.518C-252.236 575.942 54.0171 615.792 348.98 662.835C652.187 711.173 948.404 744.692 1074.02 655.786C1271.68 516.383 1101.98 260.453 1088.54 25.8138C1085.31 -30.4363 1083.88 -84.6722 1094.09 -134.448C1145.17 -384.337 944.103 -448.931 944.103 -448.931" stroke="#717171" stroke-miterlimit="10"/>
<path d="M-430.36 584.142C-253.848 578.532 54.9131 624.855 352.385 671.035C658.458 718.366 955.93 750.447 1081.91 662.403C1281 523.72 1119 263.474 1099.47 28.4033C1094.81 -28.1344 1093.38 -82.802 1104.31 -132.866C1159.68 -386.782 959.156 -451.808 959.156 -451.808" stroke="#6D6D6D" stroke-miterlimit="10"/>
<path d="M-431.614 591.911C-255.282 581.121 55.9888 634.206 356.149 679.379C665.089 725.846 963.816 756.345 1090.33 669.021C1290.68 531.057 1136.21 266.639 1110.94 30.9928C1104.67 -25.8327 1103.59 -80.788 1115.24 -131.284C1174.38 -389.228 974.03 -454.685 974.03 -454.685" stroke="#6A6A6A" stroke-miterlimit="10"/>
<path d="M-433.048 599.536C-75.3648 567.454 848.053 846.115 1098.39 675.495C1348.74 504.874 1062.55 131.696 1125.81 -130.133C1188.89 -391.962 989.083 -457.707 989.083 -457.707" stroke="#666666" stroke-miterlimit="10"/>
<path d="M194.69 800.942C-175.537 589.897 -234.494 495.235 -99.7358 334.829C34.8433 174.423 -219.621 199.743 -213.349 88.2498C-207.077 -23.2432 257.947 89.9762 297.909 -87.4057C337.87 -264.644 106.344 -327.224 106.344 -327.224" stroke="white" stroke-miterlimit="10"/>
<path d="M190.927 801.374C-177.688 591.623 -243.096 495.667 -112.638 334.829C17.6403 174.135 -231.985 193.988 -221.771 81.9199C-211.736 -30.1486 238.594 80.769 276.584 -92.1532C314.395 -265.219 85.1987 -324.778 85.1987 -324.778" stroke="#F9F9F9" stroke-miterlimit="10"/>
<path d="M187.342 801.806C-180.018 593.35 -251.698 495.955 -125.72 334.83C0.257581 173.704 -244.35 188.09 -230.552 75.5902C-216.574 -37.0538 218.882 71.706 254.901 -97.0442C291.099 -265.651 64.0528 -322.476 64.0528 -322.476" stroke="#F3F3F3" stroke-miterlimit="10"/>
<path d="M183.579 802.093C-182.168 595.22 -260.299 496.243 -138.622 334.829C-16.9456 173.416 -256.715 182.336 -238.974 69.26C-221.233 -43.9594 199.528 62.4985 233.576 -101.792C267.624 -266.082 42.9072 -320.175 42.9072 -320.175" stroke="#EDEDED" stroke-miterlimit="10"/>
<path d="M179.816 802.525C-184.318 596.946 -268.9 496.53 -151.524 334.829C-34.1484 173.129 -269.08 176.581 -247.576 62.7864C-226.072 -50.8646 179.996 53.1476 212.072 -106.683C244.149 -266.514 21.762 -317.873 21.762 -317.873" stroke="#E7E7E7" stroke-miterlimit="10"/>
<path d="M176.052 802.957C-186.649 598.672 -277.503 496.962 -164.428 334.829C-51.3526 172.697 -281.266 170.827 -255.999 56.4564C-230.732 -57.9139 160.641 44.0843 190.926 -111.574C221.031 -267.089 0.615366 -315.571 0.615366 -315.571" stroke="#E1E1E1" stroke-miterlimit="10"/>
<path d="M172.469 803.388C-188.798 600.543 -286.104 497.25 -177.33 334.83C-68.5552 172.409 -293.63 164.928 -264.421 50.1265C-235.211 -64.6754 141.288 34.8772 169.602 -116.322C197.736 -267.521 -20.3504 -313.269 -20.3504 -313.269" stroke="#DADADA" stroke-miterlimit="10"/>
<path d="M168.705 803.82C-190.949 602.269 -294.885 497.537 -190.411 334.829C-85.9377 172.121 -305.995 159.174 -273.022 43.7965C-240.05 -71.5808 121.934 25.8137 148.097 -121.213C174.261 -268.096 -41.6753 -310.967 -41.6753 -310.967" stroke="#D4D4D4" stroke-miterlimit="10"/>
<path d="M164.942 804.108C-193.278 603.995 -303.486 497.825 -203.314 334.83C-103.141 171.834 -318.36 153.42 -281.624 37.4667C-244.888 -78.4861 102.402 16.6067 126.594 -125.961C150.965 -268.528 -62.8208 -308.521 -62.8208 -308.521" stroke="#CECECE" stroke-miterlimit="10"/>
<path d="M161.179 804.539C-195.608 605.721 -312.087 498.113 -216.216 334.829C-120.344 171.546 -330.724 147.665 -290.225 31.1366C-249.726 -85.3916 82.8691 7.54322 105.09 -130.708C127.49 -268.96 -84.1452 -306.076 -84.1452 -306.076" stroke="#C8C8C8" stroke-miterlimit="10"/>
<path d="M157.596 804.971C-197.758 607.592 -320.689 498.545 -229.118 334.83C-137.546 171.115 -343.089 141.767 -298.647 24.663C-254.206 -92.4407 63.5159 -1.80761 83.9447 -135.743C104.374 -269.679 -105.111 -304.062 -105.111 -304.062" stroke="#C2C2C2" stroke-miterlimit="10"/>
<path d="M153.832 805.402C-199.909 609.318 -329.291 498.832 -242.021 334.829C-154.75 170.827 -355.275 136.012 -307.07 18.3329C-258.865 -99.3463 43.9824 -10.8711 62.44 -140.347C80.8976 -269.967 -126.258 -301.472 -126.258 -301.472" stroke="#BCBCBC" stroke-miterlimit="10"/>
<path d="M150.068 805.834C-202.06 611.044 -337.893 499.12 -254.924 334.829C-171.954 170.539 -367.64 130.257 -315.672 12.0029C-263.704 -106.252 24.6282 -20.0783 41.1146 -145.238C57.601 -270.398 -147.404 -299.171 -147.404 -299.171" stroke="#B6B6B6" stroke-miterlimit="10"/>
<path d="M146.305 806.265C-204.389 612.915 -346.674 499.551 -268.005 334.829C-189.336 170.251 -380.005 124.503 -324.274 5.67313C-268.543 -113.157 5.09545 -29.2853 19.6106 -150.129C34.1258 -270.973 -168.728 -296.869 -168.728 -296.869" stroke="#B0B0B0" stroke-miterlimit="10"/>
<path d="M142.721 806.553C-206.539 614.641 -355.275 499.839 -280.907 334.829C-206.539 169.82 -392.37 118.605 -332.875 -0.656757C-273.381 -119.918 -14.2578 -38.3486 -1.71377 -154.877C10.8302 -271.405 -189.695 -294.567 -189.695 -294.567" stroke="#AAAAAA" stroke-miterlimit="10"/>
<path d="M138.958 806.985C-208.69 616.367 -363.877 500.127 -293.81 334.829C-223.742 169.676 -404.734 112.85 -341.298 -6.9867C-277.861 -126.824 -33.6112 -47.5558 -23.0384 -159.768C-12.4656 -271.981 -210.84 -292.265 -210.84 -292.265" stroke="#A4A4A4" stroke-miterlimit="10"/>
<path d="M135.195 807.416C-211.019 618.238 -372.478 500.415 -306.712 334.83C-240.945 169.244 -416.92 107.096 -349.72 -13.3165C-282.52 -133.729 -52.9645 -56.619 -44.3629 -164.516C-35.7613 -272.412 -231.985 -289.819 -231.985 -289.819" stroke="#9D9D9D" stroke-miterlimit="10"/>
<path d="M131.432 807.848C-213.17 619.964 -381.08 500.846 -319.615 334.829C-258.328 168.957 -429.464 101.341 -358.322 -19.6466C-287.359 -140.635 -72.4979 -65.8263 -65.8675 -169.263C-59.2371 -272.7 -253.131 -287.374 -253.131 -287.374" stroke="#979797" stroke-miterlimit="10"/>
<path d="M127.848 808.279C-215.499 621.69 -389.682 501.134 -332.696 334.829C-275.531 168.669 -441.65 95.5868 -366.923 -25.9767C-292.018 -147.54 -92.0305 -74.8898 -87.3713 -174.155C-82.7121 -273.276 -274.456 -285.216 -274.456 -285.216" stroke="#919191" stroke-miterlimit="10"/>
<path d="M124.085 808.567C-217.649 623.561 -398.282 501.422 -345.598 334.83C-292.734 168.381 -454.014 89.8325 -375.345 -32.4502C-296.676 -154.589 -111.383 -84.2406 -108.516 -179.046C-105.828 -273.851 -295.242 -282.914 -295.242 -282.914" stroke="#8B8B8B" stroke-miterlimit="10"/>
<path d="M120.322 808.999C-219.8 625.287 -407.064 501.709 -358.5 334.829C-309.937 167.949 -466.379 83.934 -383.947 -38.7803C-301.515 -161.495 -130.917 -93.4479 -130.021 -183.793C-129.304 -274.282 -316.568 -280.469 -316.568 -280.469" stroke="#858585" stroke-miterlimit="10"/>
<path d="M116.558 809.43C-222.13 627.013 -415.666 502.141 -371.403 334.829C-327.141 167.518 -478.744 78.1795 -392.549 -45.1102C-306.354 -168.4 -150.27 -102.511 -151.525 -188.685C-152.779 -274.858 -337.893 -278.167 -337.893 -278.167" stroke="#7F7F7F" stroke-miterlimit="10"/>
<path d="M-484.837 490.2C-242.738 260.597 -25.9058 341.591 44.5198 421.003C114.766 500.415 148.456 552.78 285.185 540.84C421.915 529.043 520.833 356.696 674.408 431.073C827.982 505.45 891.06 471.642 935.323 405.753C979.585 339.864 819.559 192.981 901.633 106.808C983.707 20.6346 1244.44 93.285 1244.44 93.285" stroke="#F2F2F2" stroke-miterlimit="10"/>
<path d="M-479.819 503.723C-237.72 273.976 -19.2755 344.036 51.1501 423.448C121.396 502.86 148.635 561.268 285.364 549.471C422.094 537.675 521.012 372.521 674.587 446.754C828.161 521.131 883.713 472.793 927.796 406.904C972.059 341.015 833.716 210.676 915.79 124.503C997.863 38.3296 1244.62 101.917 1244.62 101.917" stroke="#F0F0F0" stroke-miterlimit="10"/>
<path d="M-474.802 517.247C-232.703 287.643 -12.4659 346.626 57.7805 425.894C128.027 505.306 148.993 569.9 285.723 557.96C422.452 546.163 521.371 388.059 674.945 462.291C828.519 536.524 876.366 473.8 920.628 408.055C964.891 342.31 848.231 228.228 930.305 142.054C1012.38 55.881 1244.98 110.405 1244.98 110.405" stroke="#EEEEEE" stroke-miterlimit="10"/>
<path d="M-469.605 530.769C-227.506 301.022 -5.83604 349.072 64.4103 428.483C134.657 507.895 149.172 578.532 285.901 566.735C422.631 554.938 521.729 403.883 675.303 478.26C828.877 552.636 869.197 475.383 913.28 409.494C957.543 343.605 862.567 246.21 944.64 160.037C1026.71 73.8635 1245.34 119.18 1245.34 119.18" stroke="#ECECEC" stroke-miterlimit="10"/>
<path d="M-464.587 544.292C-222.488 314.545 0.795333 351.517 71.0417 430.929C141.288 510.341 149.352 587.163 286.082 575.223C422.811 563.426 521.909 419.42 675.483 493.797C829.058 568.173 861.672 476.39 905.934 410.501C950.197 344.612 876.904 263.761 958.977 177.588C1041.05 91.4147 1245.52 127.668 1245.52 127.668" stroke="#EAEAEA" stroke-miterlimit="10"/>
<path d="M-459.57 557.815C-217.471 328.068 7.42475 354.107 77.6711 433.375C147.918 512.787 149.53 595.651 286.439 583.854C423.169 572.058 522.266 435.101 675.841 509.478C829.415 583.854 854.503 477.684 898.586 411.795C942.849 345.907 891.239 281.456 973.133 195.283C1055.03 109.11 1245.52 136.3 1245.52 136.3" stroke="#E8E8E8" stroke-miterlimit="10"/>
<path d="M-454.373 571.338C-212.274 341.591 14.2347 356.552 84.4811 435.964C154.727 515.376 150.068 604.427 286.798 592.486C423.527 580.689 522.804 450.926 676.378 525.159C829.953 599.535 847.335 478.835 891.597 412.946C935.86 347.057 905.754 299.151 987.828 212.978C1069.9 126.805 1246.23 144.931 1246.23 144.931" stroke="#E7E7E7" stroke-miterlimit="10"/>
<path d="M-449.354 584.861C-207.255 355.114 20.6868 358.998 91.1124 438.41C161.359 517.822 150.248 612.914 286.978 601.118C423.707 589.321 522.984 466.607 676.559 540.839C830.133 615.216 839.989 479.986 884.072 414.241C928.155 348.496 919.912 316.846 1001.99 230.817C1084.06 144.787 1246.24 153.707 1246.24 153.707" stroke="#E5E5E5" stroke-miterlimit="10"/>
<path d="M-444.338 598.385C-202.239 368.637 27.3163 361.588 97.7419 440.856C167.988 520.267 150.427 621.546 287.156 609.606C423.886 597.809 523.162 482.144 676.737 556.377C830.311 630.753 832.462 481.137 876.724 415.248C920.986 349.359 934.247 334.398 1016.32 248.224C1098.39 162.051 1246.41 161.907 1246.41 161.907" stroke="#E3E3E3" stroke-miterlimit="10"/>
<path d="M-439.141 611.907C-197.221 382.16 34.1265 364.033 104.373 443.445C174.619 522.857 150.606 630.178 287.336 618.381C424.066 606.585 523.342 497.969 676.917 572.345C830.491 646.722 825.115 482.576 869.198 416.687C913.461 350.798 948.405 352.38 1030.48 266.207C1112.55 180.034 1246.59 170.826 1246.59 170.826" stroke="#E1E1E1" stroke-miterlimit="10"/>
<path d="M-434.123 625.431C-192.024 395.683 40.7567 366.479 111.003 445.891C181.249 525.303 150.965 638.666 287.694 626.869C424.424 615.073 523.88 513.506 677.454 587.883C831.028 662.259 817.947 483.727 862.209 417.838C906.472 351.949 963.099 369.932 1045.17 283.902C1127.25 197.729 1247.13 179.458 1247.13 179.458" stroke="#DFDFDF" stroke-miterlimit="10"/>
<path d="M-429.105 638.954C-187.006 409.206 47.3871 369.068 117.634 448.336C187.88 527.748 151.144 647.298 287.873 635.501C424.603 623.704 524.059 529.331 677.633 603.563C831.208 677.94 810.6 484.877 854.683 418.988C898.945 353.1 977.256 387.627 1059.15 301.453C1141.04 215.28 1246.95 187.946 1246.95 187.946" stroke="#DDDDDD" stroke-miterlimit="10"/>
<path d="M-423.909 652.476C-181.81 422.729 54.017 371.514 124.443 450.926C194.689 530.338 151.502 655.929 288.231 644.133C424.961 632.336 524.417 545.012 677.991 619.244C831.565 693.621 803.252 486.028 847.514 420.139C891.777 354.251 991.591 405.322 1073.66 319.148C1155.74 232.975 1247.49 196.578 1247.49 196.578" stroke="#DBDBDB" stroke-miterlimit="10"/>
<path d="M-418.892 665.999C-176.792 436.252 60.6474 373.959 131.073 453.371C201.319 532.783 151.681 664.561 288.59 652.764C425.319 640.967 524.954 560.692 678.529 634.925C832.103 709.302 796.263 487.323 840.346 421.434C884.609 355.545 1006.11 423.016 1088.18 336.987C1170.25 250.813 1247.85 205.209 1247.85 205.209" stroke="#D9D9D9" stroke-miterlimit="10"/>
<path d="M-413.874 679.523C-171.775 449.775 67.2779 376.549 137.524 455.817C207.771 535.229 151.86 673.049 288.59 661.252C425.319 649.456 524.955 576.23 678.529 650.606C832.103 724.983 788.558 488.474 832.82 422.585C877.082 356.696 1020.26 440.712 1102.34 354.538C1184.41 268.365 1247.85 213.698 1247.85 213.698" stroke="#D7D7D7" stroke-miterlimit="10"/>
<path d="M-408.855 693.046C-166.756 463.298 73.9091 378.995 144.335 458.407C214.581 537.819 152.219 681.824 288.949 670.028C425.679 658.231 525.314 592.054 678.888 666.431C832.462 740.808 781.39 489.769 825.473 424.024C869.736 358.135 1034.6 458.551 1116.67 372.521C1198.75 286.348 1248.21 222.617 1248.21 222.617" stroke="#D5D5D5" stroke-miterlimit="10"/>
<path d="M-403.659 706.569C-161.739 476.821 80.7182 381.441 150.965 460.852C221.211 540.264 152.398 690.312 289.128 678.516C425.857 666.719 525.492 607.736 679.067 681.968C832.641 756.345 773.863 490.92 818.126 425.031C862.388 359.142 1048.94 476.102 1131.01 389.928C1213.08 303.755 1248.38 230.961 1248.38 230.961" stroke="#D4D4D4" stroke-miterlimit="10"/>
<path d="M-398.642 720.092C-156.543 490.344 87.3485 384.03 157.595 463.298C227.841 542.71 152.577 698.944 289.486 687.147C426.216 675.351 526.03 623.416 679.604 697.649C833.179 772.026 766.875 492.07 810.958 426.182C855.22 360.293 1063.45 493.797 1145.34 407.623C1227.42 321.45 1248.56 239.449 1248.56 239.449" stroke="#D2D2D2" stroke-miterlimit="10"/>
<path d="M-393.624 733.615C-151.525 503.867 93.7999 386.476 164.225 465.888C234.472 545.299 152.936 707.576 289.665 695.779C426.395 683.982 526.209 639.098 679.784 713.33C833.358 787.707 759.349 493.365 803.611 427.476C847.873 361.588 1077.61 511.492 1159.68 425.462C1241.75 339.289 1248.92 248.224 1248.92 248.224" stroke="#D0D0D0" stroke-miterlimit="10"/>
<path d="M-388.428 747.138C-146.329 517.39 100.609 388.921 171.035 468.333C241.281 547.745 153.294 716.208 290.023 704.411C426.753 692.614 526.567 654.778 680.142 729.155C833.716 803.532 752.18 494.66 796.263 428.771C840.526 362.882 1091.94 529.331 1174.02 443.157C1256.09 356.984 1249.1 256.856 1249.1 256.856" stroke="#CECECE" stroke-miterlimit="10"/>
<path d="M-383.409 760.661C-141.31 530.913 107.24 391.511 177.487 470.923C247.733 550.335 153.295 724.839 290.024 713.043C426.754 701.246 526.747 670.459 680.322 744.836C833.896 819.213 744.655 495.811 788.917 429.922C833.179 364.033 1106.28 547.026 1188.35 460.852C1270.43 374.679 1249.46 265.488 1249.46 265.488" stroke="#CCCCCC" stroke-miterlimit="10"/>
<path d="M-378.392 774.184C-136.293 544.436 113.871 393.956 184.296 473.368C254.542 552.78 153.653 733.471 290.562 721.674C427.291 709.878 527.285 686.14 680.859 760.517C834.433 834.894 737.665 497.106 781.749 431.217C826.011 365.328 1120.79 564.721 1202.87 478.691C1284.94 392.518 1249.82 274.263 1249.82 274.263" stroke="#CACACA" stroke-miterlimit="10"/>
<path d="M-440.395 251.821C-349.899 265.488 -245.963 276.565 -174.82 229.666C-129.303 199.743 -108.158 151.981 -99.0187 105.369C-89.1627 55.0178 -86.6539 -3.53406 -36.4779 -34.7521C-14.7947 -48.2751 12.9812 -54.0296 40.3988 -55.3244C73.0132 -56.763 106.165 -51.8717 136.092 -41.3698C187.164 -23.387 234.114 11.7153 289.487 6.24856C349.519 0.20636 386.972 -48.8506 437.685 -71.2931C500.226 -99.0584 582.479 -104.669 648.066 -80.2125C714.191 -55.4683 740.712 7.68718 789.275 51.4212C852.354 108.247 957.902 130.258 1049.47 110.117C1140.87 89.8324 1215.77 30.1297 1247.49 -41.6575" stroke="#ECECEC" stroke-miterlimit="10"/>
<path d="M-441.291 241.894C-343.089 253.547 -237.361 276.421 -166.04 229.522C-120.523 199.599 -107.8 143.924 -99.9152 95.4429C-91.672 45.0912 -87.5504 -13.4607 -37.3744 -44.6787C-15.6912 -58.2017 12.0848 -63.9562 39.5024 -65.251C72.1167 -66.6896 106.165 -61.3667 135.554 -49.8578C186.088 -30.1487 233.755 8.83794 289.128 3.37118C349.16 -2.67102 387.867 -54.6052 437.685 -78.0547C499.329 -107.115 581.403 -114.883 646.99 -90.283C713.115 -65.5387 740.532 -2.95875 788.2 41.3507C851.636 100.19 955.035 133.71 1046.07 111.268C1136.21 88.9691 1208.6 17.0381 1240.14 -54.7491" stroke="#EAEAEA" stroke-miterlimit="10"/>
<path d="M-442.187 231.824C-336.1 241.319 -228.58 276.134 -157.259 229.378C-111.742 199.455 -107.62 135.868 -100.811 85.5164C-94.0011 35.1647 -88.4458 -23.3872 -38.2699 -54.6052C-16.5867 -68.1283 11.1893 -73.8828 38.6069 -75.1775C71.2213 -76.6161 106.165 -70.7178 135.196 -58.2018C185.192 -36.7663 233.576 6.24841 288.949 0.781657C348.981 -5.26055 389.122 -60.072 437.864 -84.3847C498.434 -114.596 580.687 -124.522 646.274 -100.066C712.399 -75.3214 740.712 -13.173 787.483 31.5681C851.099 92.4218 952.527 137.594 1043.2 112.85C1132.08 88.6814 1201.79 4.52205 1233.51 -67.2651" stroke="#E9E9E9" stroke-miterlimit="10"/>
<path d="M-443.083 221.754C-329.291 229.235 -219.8 275.846 -148.478 229.091C-102.961 199.167 -107.262 127.812 -101.707 75.4461C-96.3311 25.0944 -89.3423 -33.4575 -39.1663 -64.6755C-17.4831 -78.1986 10.2928 -83.9531 37.7104 -85.2478C70.3248 -86.6865 106.165 -80.2126 134.658 -66.8335C184.117 -43.8155 233.218 3.22733 288.59 -2.23942C348.622 -8.28163 390.197 -65.9703 437.864 -91.1462C497.537 -122.652 579.79 -134.736 645.377 -110.136C711.502 -85.3917 740.712 -23.6749 786.587 21.4978C850.203 84.3655 949.838 141.047 1040.15 114.001C1127.78 87.8182 1194.98 -8.4255 1226.7 -80.2127" stroke="#E7E7E7" stroke-miterlimit="10"/>
<path d="M-443.979 211.683C-322.302 217.15 -211.019 275.702 -139.697 228.803C-94.1802 198.88 -106.724 119.612 -102.603 65.2318C-98.6602 14.8801 -90.2378 -43.6717 -40.0618 -74.8898C-18.3786 -88.4128 9.39736 -94.1673 36.8149 -95.462C69.4293 -96.9007 106.165 -89.8514 134.3 -75.6091C183.221 -50.8648 233.039 0.20619 288.412 -5.26057C348.444 -11.3028 391.452 -71.8687 438.044 -97.9077C496.463 -130.564 578.716 -144.663 644.303 -120.206C710.428 -95.462 740.533 -34.3207 785.512 11.4274C849.308 76.3092 946.971 144.5 1036.93 115.296C1123.3 87.2427 1188 -21.2292 1219.71 -93.1602" stroke="#E6E6E6" stroke-miterlimit="10"/>
<path d="M-444.875 201.757C-315.493 205.21 -202.238 275.558 -131.096 228.659C-85.5791 198.736 -106.546 111.699 -103.678 55.3054C-101.17 4.95366 -91.3135 -53.5982 -41.1376 -84.8162C-19.4544 -98.3393 8.32157 -104.094 35.7392 -105.389C68.3535 -106.827 105.986 -99.2024 133.582 -84.0969C181.966 -57.6263 232.501 -2.52718 287.873 -8.1378C347.905 -14.18 392.168 -77.6231 437.685 -104.669C495.387 -138.764 577.64 -155.021 643.227 -130.421C709.352 -105.676 740.353 -44.9665 784.436 1.21323C848.411 68.1091 943.924 147.953 1033.7 116.303C1118.82 86.2357 1180.83 -34.4645 1212.55 -106.252" stroke="#E4E4E4" stroke-miterlimit="10"/>
<path d="M-445.771 191.686C-308.683 193.125 -193.457 275.27 -122.315 228.371C-76.7978 198.448 -106.007 103.499 -104.574 45.2348C-103.319 -4.97302 -92.209 -63.6687 -42.033 -94.8868C-20.3498 -108.41 7.42612 -114.164 34.8437 -115.459C67.4581 -116.898 105.986 -108.554 133.224 -92.585C181.071 -64.388 232.322 -5.40459 287.695 -10.8714C347.727 -16.9136 393.423 -83.3778 437.864 -111.143C494.671 -146.389 577.103 -164.804 642.69 -140.203C708.815 -115.459 740.533 -55.1808 783.9 -8.56955C848.053 60.4842 941.595 151.837 1030.84 117.885C1114.7 85.9478 1174.2 -46.9807 1205.92 -118.768" stroke="#E2E2E2" stroke-miterlimit="10"/>
<path d="M-446.667 181.616C-301.694 181.041 -184.677 274.983 -113.534 228.228C-68.0176 198.304 -105.47 95.587 -105.291 35.3088C-105.112 -14.8991 -92.9264 -73.5948 -42.7504 -104.813C-21.0672 -118.336 6.70876 -124.09 34.1263 -125.385C66.7407 -126.824 106.165 -117.904 132.866 -101.072C180.353 -71.0053 232.142 -8.13758 287.515 -13.7482C347.547 -19.7904 394.677 -89.1319 438.043 -117.76C493.595 -154.301 576.027 -174.874 641.614 -150.417C707.739 -125.673 740.353 -65.8263 782.824 -18.7834C846.977 52.2845 938.728 155.29 1027.61 118.893C1110.22 85.085 1167.21 -60.0718 1198.93 -131.859" stroke="#E1E1E1" stroke-miterlimit="10"/>
<path d="M-447.384 171.546C-294.705 168.957 -175.717 274.695 -104.574 227.94C-59.0575 198.017 -104.753 87.3868 -106.008 25.2384C-107.083 -24.8256 -93.6431 -83.6652 -43.4671 -114.883C-21.7839 -128.406 5.99214 -134.161 33.4097 -135.456C66.0241 -136.894 106.344 -127.399 132.507 -109.704C179.458 -77.9107 232.142 -11.1587 287.336 -16.6255C347.368 -22.6677 395.752 -94.8864 438.222 -124.378C492.878 -162.214 575.31 -184.944 640.898 -160.344C707.022 -135.599 740.533 -76.1843 782.107 -28.7099C846.261 44.5159 936.219 159.03 1024.74 120.331C1106.1 84.7973 1160.58 -72.8755 1192.12 -144.663" stroke="#DFDFDF" stroke-miterlimit="10"/>
<path d="M-448.279 161.619C-287.716 157.016 -166.935 274.695 -95.7931 227.796C-50.2763 197.873 -104.036 79.4742 -106.903 15.1679C-109.054 -34.8961 -94.5387 -93.7357 -44.3627 -124.954C-22.6795 -138.477 5.09651 -144.231 32.5141 -145.526C65.1285 -146.965 106.344 -136.894 132.149 -118.192C178.562 -84.6724 231.964 -13.8923 287.157 -19.5029C347.189 -25.5451 397.007 -100.785 438.402 -131.14C491.983 -170.414 574.415 -195.015 640.002 -170.558C706.127 -145.814 740.354 -86.8303 781.211 -38.9243C845.544 36.4595 933.531 162.483 1021.7 121.482C1101.8 84.0778 1153.59 -85.8233 1185.31 -157.61" stroke="#DDDDDD" stroke-miterlimit="10"/>
<path d="M-449.176 151.549C-280.907 144.932 -158.155 274.407 -87.0128 227.508C-41.496 197.585 -103.499 71.2742 -107.8 5.0977C-111.205 -44.9663 -95.4351 -103.806 -45.2592 -135.024C-23.576 -148.547 4.20005 -154.301 31.6176 -155.596C64.232 -157.035 106.344 -146.389 131.611 -126.824C177.486 -91.5776 231.605 -16.9132 286.798 -22.3799C346.83 -28.4222 397.902 -106.539 438.401 -137.757C490.907 -178.326 573.518 -205.085 639.105 -180.484C705.23 -155.74 740.174 -97.1882 780.315 -48.8506C844.648 28.5472 930.843 166.367 1018.65 122.777C1097.5 83.6464 1146.78 -98.6268 1178.5 -170.414" stroke="#DCDCDC" stroke-miterlimit="10"/>
<path d="M-450.072 141.479C-273.919 132.847 -149.375 274.12 -78.2323 227.221C-32.7155 197.297 -102.783 63.2181 -108.696 -4.97255C-113.176 -54.8927 -96.3315 -113.876 -46.1555 -145.094C-24.4723 -158.617 3.30369 -164.372 30.7213 -165.666C63.3357 -167.105 106.344 -155.74 131.252 -135.455C176.411 -98.339 231.425 -19.7904 286.619 -25.401C346.651 -31.4432 399.156 -112.581 438.58 -144.519C490.19 -186.383 572.801 -215.299 638.388 -190.698C704.513 -165.954 740.353 -107.834 779.598 -59.0647C843.931 20.491 928.334 169.964 1015.78 123.928C1093.56 82.9272 1140.15 -111.718 1171.69 -183.505" stroke="#DADADA" stroke-miterlimit="10"/>
<path d="M-450.968 131.408C-267.109 120.763 -140.593 273.832 -69.4511 227.077C-23.9343 197.153 -101.886 55.3055 -109.592 -14.8992C-114.968 -64.8193 -97.2271 -123.803 -47.0511 -155.021C-25.3679 -168.544 2.40812 -174.298 29.8257 -175.593C62.4401 -177.032 106.344 -165.091 130.715 -143.943C175.336 -105.101 231.067 -22.6678 286.261 -28.1345C346.293 -34.1767 400.053 -118.192 438.581 -150.993C489.115 -194.151 571.726 -225.082 637.313 -200.625C703.438 -175.881 739.995 -118.048 778.523 -68.9913C842.856 12.7223 925.467 173.704 1012.38 125.222C1088.9 82.4954 1132.8 -124.522 1164.52 -196.309" stroke="#D9D9D9" stroke-miterlimit="10"/>
<path d="M-451.864 121.482C-260.3 108.822 -131.992 273.688 -60.6708 226.933C-15.154 197.009 -101.17 47.2491 -110.488 -24.8258C-116.94 -74.7459 -98.1236 -133.729 -47.9476 -164.947C-26.2645 -178.47 1.51158 -184.225 28.9292 -185.52C61.5436 -186.958 106.344 -174.442 130.177 -152.288C174.26 -111.575 230.708 -25.2573 286.081 -30.8679C346.113 -36.9102 401.307 -123.947 438.759 -157.467C488.219 -201.92 571.009 -235.008 636.596 -210.408C702.721 -185.663 739.994 -128.263 777.806 -78.774C841.959 5.09752 923.137 177.732 1009.51 126.805C1084.78 82.3515 1126.17 -137.038 1157.89 -208.825" stroke="#D7D7D7" stroke-miterlimit="10"/>
<path d="M-452.76 111.412C-253.31 96.7377 -123.211 273.544 -51.8895 226.645C-6.37277 196.722 -100.274 39.049 -111.384 -35.0399C-118.91 -84.8162 -99.0191 -143.943 -48.8432 -175.162C-27.16 -188.685 0.61607 -194.439 28.0337 -195.734C60.648 -197.172 106.344 -183.937 129.819 -161.063C173.365 -118.624 230.53 -28.4223 285.902 -33.889C345.934 -39.9313 402.382 -129.845 438.76 -164.372C487.144 -210.12 569.934 -245.222 635.701 -220.766C701.825 -196.022 739.816 -139.052 776.91 -89.1321C841.064 -2.9587 920.449 181.185 1006.47 127.668C1080.65 81.4883 1119.36 -150.417 1151.08 -222.204" stroke="#D5D5D5" stroke-miterlimit="10"/>
<path d="M-453.656 101.341C-246.501 84.6534 -114.431 273.257 -43.1092 226.358C2.40763 196.434 -99.3779 30.9929 -112.28 -45.1101C-120.703 -94.8864 -99.9155 -154.014 -49.7396 -185.232C-28.0564 -198.755 -0.280324 -204.509 27.1373 -205.804C59.7517 -207.243 106.164 -193.432 129.281 -169.695C172.289 -125.385 230.171 -31.2994 285.544 -36.7661C345.576 -42.8083 403.457 -135.743 438.76 -170.989C486.068 -218.176 569.038 -255.293 634.625 -230.692C700.75 -205.948 739.457 -149.266 775.835 -99.0584C839.809 -10.7271 917.761 185.069 1003.24 129.107C1076.35 81.2007 1112.19 -163.077 1143.91 -234.864" stroke="#D4D4D4" stroke-miterlimit="10"/>
<path d="M-454.372 91.271C-239.332 72.5689 -105.47 272.969 -34.1482 226.07C11.3686 196.146 -98.3018 22.7927 -112.996 -55.1805C-122.315 -104.957 -100.631 -164.084 -50.4554 -195.302C-28.7722 -208.825 -0.996205 -214.58 26.4214 -215.874C59.0358 -217.313 106.345 -202.927 129.103 -178.183C171.394 -132.147 230.172 -34.1767 285.544 -39.6434C345.576 -45.6856 404.712 -141.642 439.119 -177.607C485.352 -226.089 568.501 -265.363 634.088 -240.763C700.213 -216.018 739.637 -159.768 775.298 -109.129C839.093 -18.6396 915.432 188.809 1000.55 130.258C1072.41 80.6252 1105.74 -176.025 1137.46 -247.812" stroke="#D2D2D2" stroke-miterlimit="10"/>
<path d="M-455.269 81.3446C-232.523 60.4846 -96.6894 272.825 -25.5471 225.926C19.9697 196.003 -97.4062 14.7365 -114.072 -65.1069C-124.465 -114.883 -101.707 -174.01 -51.5311 -205.229C-29.8479 -218.752 -2.07187 -224.506 25.3457 -225.801C57.9601 -227.239 106.165 -212.134 128.386 -186.67C170.139 -138.764 229.634 -36.9099 285.006 -42.3767C345.038 -48.4189 405.608 -147.252 438.939 -184.081C484.098 -233.857 567.246 -275.145 632.833 -250.545C698.958 -225.801 738.92 -169.982 774.043 -118.911C837.838 -26.2642 912.565 192.982 996.968 131.84C1067.75 80.6253 1098.39 -188.54 1130.11 -260.328" stroke="#D0D0D0" stroke-miterlimit="10"/>
<path d="M-456.164 71.2741C-225.713 48.4 -87.9082 272.537 -16.7658 225.782C28.751 195.859 -96.3306 6.68001 -114.967 -75.0336C-126.257 -124.81 -102.603 -183.937 -52.4266 -215.155C-30.7434 -228.678 -2.96738 -234.433 24.4502 -235.728C57.0646 -237.166 106.165 -221.485 127.849 -195.158C168.885 -145.526 229.276 -39.7874 284.649 -45.2542C344.68 -51.2964 406.505 -153.151 438.94 -190.843C483.023 -241.914 566.351 -285.36 631.938 -260.759C698.063 -236.015 738.741 -180.484 773.148 -129.126C836.764 -34.1768 910.056 196.578 993.922 132.847C1063.63 79.9058 1091.59 -201.776 1123.13 -273.563" stroke="#CFCFCF" stroke-miterlimit="10"/>
<path d="M-457.061 61.2038C-218.725 36.3157 -79.1279 272.393 -7.98556 225.494C37.5312 195.571 -95.2559 -1.52009 -115.685 -85.2478C-127.87 -135.024 -103.32 -194.151 -53.1439 -225.369C-31.4607 -238.892 -3.68474 -244.647 23.7328 -245.942C56.3472 -247.38 106.165 -231.124 127.669 -203.934C168.168 -152.431 229.275 -42.8085 284.648 -48.2752C344.68 -54.3174 407.758 -159.049 439.297 -197.604C482.305 -250.114 565.812 -295.43 631.4 -270.974C697.524 -246.229 738.92 -191.13 772.609 -139.34C835.867 -42.233 907.905 200.175 991.233 133.998C1059.87 79.3304 1084.95 -214.724 1116.67 -286.511" stroke="#CDCDCD" stroke-miterlimit="10"/>
<path d="M-457.957 51.2775C-211.916 24.3753 -70.3476 272.25 0.7948 225.35C46.3116 195.427 -94.1812 -9.57621 -116.581 -95.1741C-129.663 -144.95 -104.216 -204.078 -54.0404 -235.296C-32.3572 -248.819 -4.58117 -254.573 22.8364 -255.868C55.4508 -257.307 106.164 -240.331 127.131 -212.278C166.913 -159.049 229.096 -45.3978 284.289 -51.0085C344.321 -57.0507 408.654 -164.803 439.297 -204.078C481.051 -257.882 564.737 -305.357 630.324 -280.756C696.449 -256.012 738.382 -201.2 771.534 -149.122C834.612 -49.7137 905.396 204.347 988.007 135.581C1055.57 79.3305 1077.97 -227.239 1109.68 -299.027" stroke="#CCCCCC" stroke-miterlimit="10"/>
<path d="M-458.853 41.207C-204.926 12.2908 -61.5663 271.962 9.57611 225.063C55.0929 195.139 -93.1054 -17.7764 -117.477 -105.245C-131.454 -155.021 -105.112 -214.148 -54.9358 -245.366C-33.2527 -258.889 -5.47664 -264.644 21.9409 -265.938C54.5553 -267.377 106.165 -249.826 126.773 -220.91C166.018 -165.81 228.917 -48.419 284.11 -53.8858C344.142 -59.928 409.909 -170.702 439.477 -210.695C480.155 -265.795 564.021 -315.283 629.608 -290.827C695.733 -266.082 738.382 -211.702 770.817 -159.193C833.717 -57.6262 903.067 208.087 985.141 136.731C1051.8 78.755 1071.34 -240.331 1102.87 -312.118" stroke="#CACACA" stroke-miterlimit="10"/>
</g>
</g>
</g>
<g opacity="0.15" filter="url(#filter0_d_142_4160)">
<rect x="235" y="75" width="300" height="300" rx="150" fill="white"/>
</g>
<g filter="url(#filter1_d_142_4160)">
<path opacity="0.2" d="M422.71 135H347.29C314.53 135 295 154.53 295 187.29V262.71C295 295.47 314.53 315 347.29 315H422.71C455.47 315 475 295.47 475 262.71V187.29C475 154.53 455.47 135 422.71 135Z" fill="white"/>
<path d="M441.79 196.831C441.79 200.521 438.82 203.581 435.04 203.581H387.79C384.1 203.581 381.04 200.521 381.04 196.831C381.04 193.141 384.1 190.081 387.79 190.081H435.04C438.82 190.081 441.79 193.141 441.79 196.831Z" fill="white"/>
<path d="M366.73 188.101L346.48 208.351C345.13 209.701 343.42 210.331 341.71 210.331C340 210.331 338.2 209.701 336.94 208.351L330.19 201.601C327.49 198.991 327.49 194.671 330.19 192.061C332.8 189.451 337.03 189.451 339.73 192.061L341.71 194.041L357.19 178.561C359.8 175.951 364.03 175.951 366.73 178.561C369.34 181.171 369.34 185.491 366.73 188.101Z" fill="white"/>
<path d="M441.79 259.831C441.79 263.521 438.82 266.581 435.04 266.581H387.79C384.1 266.581 381.04 263.521 381.04 259.831C381.04 256.141 384.1 253.081 387.79 253.081H435.04C438.82 253.081 441.79 256.141 441.79 259.831Z" fill="white"/>
<path d="M366.73 251.101L346.48 271.351C345.13 272.701 343.42 273.331 341.71 273.331C340 273.331 338.2 272.701 336.94 271.351L330.19 264.601C327.49 261.991 327.49 257.671 330.19 255.061C332.8 252.451 337.03 252.451 339.73 255.061L341.71 257.041L357.19 241.561C359.8 238.951 364.03 238.951 366.73 241.561C369.34 244.171 369.34 248.491 366.73 251.101Z" fill="white"/>
</g>
<defs>
<filter id="filter0_d_142_4160" x="175" y="17" width="420" height="420" filterUnits="userSpaceOnUse" color-interpolation-filters="sRGB">
<feFlood flood-opacity="0" result="BackgroundImageFix"/>
<feColorMatrix in="SourceAlpha" type="matrix" values="0 0 0 0 0 0 0 0 0 0 0 0 0 0 0 0 0 0 127 0" result="hardAlpha"/>
<feOffset dy="2"/>
<feGaussianBlur stdDeviation="30"/>
<feComposite in2="hardAlpha" operator="out"/>
<feColorMatrix type="matrix" values="0 0 0 0 0.156863 0 0 0 0 0.164706 0 0 0 0 0.243137 0 0 0 0.05 0"/>
<feBlend mode="normal" in2="BackgroundImageFix" result="effect1_dropShadow_142_4160"/>
<feBlend mode="normal" in="SourceGraphic" in2="effect1_dropShadow_142_4160" result="shape"/>
</filter>
<filter id="filter1_d_142_4160" x="260" y="106" width="250" height="250" filterUnits="userSpaceOnUse" color-interpolation-filters="sRGB">
<feFlood flood-opacity="0" result="BackgroundImageFix"/>
<feColorMatrix in="SourceAlpha" type="matrix" values="0 0 0 0 0 0 0 0 0 0 0 0 0 0 0 0 0 0 127 0" result="hardAlpha"/>
<feOffset dy="6"/>
<feGaussianBlur stdDeviation="17.5"/>
<feColorMatrix type="matrix" values="0 0 0 0 1 0 0 0 0 1 0 0 0 0 1 0 0 0 0.2 0"/>
<feBlend mode="normal" in2="BackgroundImageFix" result="effect1_dropShadow_142_4160"/>
<feBlend mode="normal" in="SourceGraphic" in2="effect1_dropShadow_142_4160" result="shape"/>
</filter>
<linearGradient id="paint0_linear_142_4160" x1="-1.14739e-05" y1="450" x2="813.614" y2="101.954" gradientUnits="userSpaceOnUse">
<stop stop-color="#F28784"/>
<stop offset="1" stop-color="#FFBAB8"/>
</linearGradient>
<linearGradient id="paint1_linear_142_4160" x1="-1.14739e-05" y1="450" x2="813.614" y2="101.954" gradientUnits="userSpaceOnUse">
<stop stop-color="#F28784"/>
<stop offset="1" stop-color="#FFBAB8"/>
</linearGradient>
</defs>
</svg>
