<svg width="770" height="450" viewBox="0 0 770 450" fill="none" xmlns="http://www.w3.org/2000/svg">
<rect width="770" height="450" rx="15" fill="url(#paint0_linear_203_14843)"/>
<g opacity="0.1">
<mask id="mask0_203_14843" style="mask-type:alpha" maskUnits="userSpaceOnUse" x="0" y="0" width="770" height="450">
<rect width="770" height="450" rx="15" fill="url(#paint1_linear_203_14843)"/>
</mask>
<g mask="url(#mask0_203_14843)">
<mask id="mask1_203_14843" style="mask-type:alpha" maskUnits="userSpaceOnUse" x="-287" y="-135" width="1344" height="720">
<path d="M1057 -134.592H-287V584.718H1057V-134.592Z" fill="white"/>
</mask>
<g mask="url(#mask1_203_14843)">
<path d="M-378.392 283.758C-195.428 476.246 17.1028 265.2 212.789 349.647C408.476 434.094 655.055 523.72 761.858 405.322C911.131 239.88 425.32 146.945 660.968 -69.2792C845.186 -238.317 375.682 -339.452 375.682 -339.452" stroke="white" stroke-miterlimit="10"/>
<path d="M-379.646 291.383C-196.862 478.835 18.1779 274.263 216.373 357.847C414.927 441.287 662.76 529.475 770.101 411.939C920.808 247.073 443.061 149.967 672.079 -66.6897C720.283 -112.438 722.075 -153.151 700.213 -188.685C639.285 -287.518 390.735 -342.329 390.735 -342.329" stroke="#FBFBFB" stroke-miterlimit="10"/>
<path d="M-381.08 299.151C-198.475 481.568 19.0739 283.614 219.957 366.047C421.199 448.624 670.466 535.229 778.344 418.413C930.306 254.266 461.518 153.275 683.368 -64.388C730.318 -110.28 731.573 -151.425 710.786 -187.534C652.008 -289.82 405.608 -345.207 405.608 -345.207" stroke="#F8F8F8" stroke-miterlimit="10"/>
<path d="M-382.334 306.92C-199.73 484.158 19.9694 292.965 223.54 374.391C427.649 455.961 678.171 541.127 786.407 425.175C939.623 261.747 479.438 156.584 694.478 -61.6545C739.995 -107.834 740.891 -149.266 721.358 -185.807C664.731 -292.121 420.66 -348.084 420.66 -348.084" stroke="#F4F4F4" stroke-miterlimit="10"/>
<path d="M-383.589 314.545C-201.164 486.747 21.0442 302.029 227.124 382.591C434.1 463.298 685.876 547.026 794.65 431.648C949.121 268.94 497.537 159.605 705.767 -59.2089C750.029 -105.676 750.388 -147.396 731.93 -184.369C677.454 -294.567 435.534 -350.961 435.534 -350.961" stroke="#F0F0F0" stroke-miterlimit="10"/>
<path d="M-385.022 322.313C-202.776 489.481 21.9406 311.38 230.709 390.936C440.552 470.635 693.582 552.924 802.894 438.41C958.619 276.278 515.636 162.914 717.057 -56.6193C759.886 -103.374 759.886 -145.382 742.683 -182.786C690.177 -297.013 450.587 -353.838 450.587 -353.838" stroke="#ECECEC" stroke-miterlimit="10"/>
<path d="M-386.276 329.938C-204.209 491.927 23.0161 320.443 234.293 398.992C447.003 477.684 701.287 558.535 811.137 444.74C968.116 283.327 533.736 165.792 728.347 -54.3174C769.921 -101.216 769.563 -143.656 753.435 -181.491C703.08 -299.458 465.461 -356.859 465.461 -356.859" stroke="#E9E9E9" stroke-miterlimit="10"/>
<path d="M-387.71 337.706C-205.823 494.66 23.9118 329.794 237.876 407.336C453.275 485.165 708.814 564.289 819.38 451.501C977.255 290.52 551.656 168.956 739.636 -51.728C779.777 -98.9148 779.06 -141.642 764.007 -179.909C715.982 -302.048 480.513 -359.593 480.513 -359.593" stroke="#E5E5E5" stroke-miterlimit="10"/>
<path d="M-388.964 345.331C-207.256 497.249 24.9875 339.001 241.461 415.536C459.727 492.358 716.52 570.044 827.624 458.119C986.753 297.857 569.755 172.121 750.926 -49.1385C789.813 -96.613 788.738 -139.772 774.76 -178.47C728.885 -304.494 495.387 -362.47 495.387 -362.47" stroke="#E1E1E1" stroke-miterlimit="10"/>
<path d="M-390.398 353.1C-208.868 499.839 25.8835 348.208 244.866 423.88C465.999 499.695 724.047 575.942 835.509 464.737C995.893 305.05 587.496 175.286 761.858 -46.549C799.31 -94.3112 798.056 -137.758 784.974 -176.888C741.966 -307.227 510.261 -365.347 510.261 -365.347" stroke="#DDDDDD" stroke-miterlimit="10"/>
<path d="M-391.653 360.725C-210.302 502.429 26.7792 357.416 248.629 431.936C472.629 506.888 731.931 581.553 843.931 471.211C1005.39 312.243 605.774 178.164 773.326 -44.2471C809.525 -92.297 807.912 -136.175 795.905 -175.593C755.048 -309.816 525.313 -368.368 525.313 -368.368" stroke="#DADADA" stroke-miterlimit="10"/>
<path d="M-393.086 368.493C-211.915 505.162 27.675 366.623 252.033 440.28C478.721 514.225 739.457 587.451 851.995 477.828C1014.71 319.436 623.515 181.184 784.436 -41.6577C819.38 -89.9954 817.409 -134.161 806.478 -174.011C768.129 -312.406 540.187 -371.102 540.187 -371.102" stroke="#D6D6D6" stroke-miterlimit="10"/>
<path d="M-394.34 376.118C-213.348 507.608 28.7507 375.83 255.797 448.48C485.352 521.562 747.342 593.205 860.417 484.446C1024.39 326.773 641.794 184.35 795.905 -39.212C829.416 -87.8374 827.265 -132.435 817.23 -172.572C781.39 -315.139 555.24 -373.979 555.24 -373.979" stroke="#D2D2D2" stroke-miterlimit="10"/>
<path d="M-395.595 383.886C-214.782 510.341 29.8259 385.037 259.381 456.824C491.803 528.899 755.048 599.104 868.661 491.063C1033.88 334.11 659.714 187.371 807.195 -36.6225C839.272 -85.5356 837.122 -130.564 827.982 -171.133C794.83 -317.873 570.293 -376.856 570.293 -376.856" stroke="#CECECE" stroke-miterlimit="10"/>
<path d="M-397.029 391.655C-216.395 513.074 30.7215 394.388 262.965 465.024C498.254 536.092 762.753 604.858 876.903 497.681C1043.38 341.303 677.812 190.392 818.484 -34.1768C849.307 -83.3776 846.798 -128.694 838.555 -169.695C808.091 -320.606 585.166 -379.733 585.166 -379.733" stroke="#CBCBCB" stroke-miterlimit="10"/>
<path d="M-398.283 399.279C-217.829 515.52 31.7966 403.595 266.548 473.225C504.526 543.429 770.279 610.613 884.967 504.155C1052.7 348.496 695.553 193.269 829.595 -31.7312C858.983 -81.2197 856.475 -126.968 849.127 -168.256C821.531 -323.339 600.039 -382.755 600.039 -382.755" stroke="#C7C7C7" stroke-miterlimit="10"/>
<path d="M-399.716 407.048C-219.441 518.254 32.5139 412.803 269.954 481.569C510.799 550.766 777.986 616.511 893.032 510.917C1062.02 355.977 713.294 196.29 840.705 -28.9978C868.84 -78.774 866.152 -124.954 859.701 -166.53C834.971 -326.073 615.093 -385.488 615.093 -385.488" stroke="#C3C3C3" stroke-miterlimit="10"/>
<path d="M-400.971 414.673C-220.696 520.843 33.5891 422.01 273.717 489.769C517.429 558.103 785.87 622.266 901.454 517.39C1071.69 363.026 731.394 199.167 852.174 -26.696C878.875 -76.76 876.008 -123.371 870.453 -165.235C848.59 -328.806 629.966 -388.365 629.966 -388.365" stroke="#C0C0C0" stroke-miterlimit="10"/>
<path d="M-402.405 422.441C-222.309 523.432 34.4847 431.217 277.121 497.969C523.701 565.296 793.396 628.02 909.518 524.008C1081.01 370.363 749.134 202.188 863.284 -24.1065C888.731 -74.4582 885.684 -121.357 881.025 -163.653C862.209 -331.54 645.019 -391.386 645.019 -391.386" stroke="#BCBCBC" stroke-miterlimit="10"/>
<path d="M-403.66 430.066C-223.743 526.022 35.5593 440.424 280.884 506.169C530.33 572.49 801.281 633.775 917.94 530.482C1090.69 377.556 767.053 205.066 874.573 -21.6607C898.586 -72.3001 895.54 -119.631 891.597 -162.358C875.828 -334.273 659.892 -394.263 659.892 -394.263" stroke="#B8B8B8" stroke-miterlimit="10"/>
<path d="M-405.092 437.834C-225.355 528.755 36.4564 449.631 284.29 514.513C536.603 579.97 808.808 639.673 926.005 537.243C1100.19 384.893 784.974 208.087 885.864 -19.0713C908.443 -69.9985 905.397 -117.761 902.35 -160.775C889.627 -337.006 674.946 -397.141 674.946 -397.141" stroke="#B4B4B4" stroke-miterlimit="10"/>
<path d="M-406.347 445.459C-226.788 531.345 37.5317 458.838 288.053 522.713C543.055 587.163 816.693 645.427 934.248 543.717C1109.69 392.086 802.716 210.82 897.154 -16.7695C918.3 -67.9843 915.253 -116.178 913.103 -159.481C903.426 -339.74 689.82 -400.018 689.82 -400.018" stroke="#B1B1B1" stroke-miterlimit="10"/>
<path d="M-407.602 453.228C-228.222 533.934 38.4271 468.189 291.637 530.913C549.505 594.5 824.398 651.182 942.491 550.335C1119.18 399.423 820.635 213.841 908.443 -14.1799C928.334 -65.6825 925.288 -114.164 923.675 -157.898C917.224 -342.473 704.872 -402.895 704.872 -402.895" stroke="#ADADAD" stroke-miterlimit="10"/>
<path d="M-409.036 460.853C-229.836 536.524 39.3226 477.253 295.041 539.113C555.777 601.693 831.924 656.936 950.554 556.808C1128.5 406.617 838.196 216.575 919.553 -11.7342C938.01 -63.5246 934.964 -112.438 934.247 -156.459C931.201 -345.063 719.745 -405.772 719.745 -405.772" stroke="#A9A9A9" stroke-miterlimit="10"/>
<path d="M-410.289 468.621C-231.268 539.257 40.3989 486.604 298.805 547.457C562.408 609.03 839.81 662.835 958.978 563.57C1138.18 413.953 856.117 219.74 931.023 -9.14475C948.047 -61.2228 945 -110.567 945 -155.021C945.179 -347.796 734.799 -408.65 734.799 -408.65" stroke="#A5A5A5" stroke-miterlimit="10"/>
<path d="M-411.723 476.389C-232.881 541.847 41.2948 495.811 302.21 555.801C568.68 616.511 847.515 668.877 967.042 570.188C1147.5 421.29 873.679 222.617 942.133 -6.55537C957.723 -58.9211 954.677 -108.697 955.573 -153.438C959.157 -350.529 749.672 -411.383 749.672 -411.383" stroke="#A2A2A2" stroke-miterlimit="10"/>
<path d="M-412.978 484.014C-234.315 544.436 42.3694 505.018 305.973 563.858C575.131 623.56 855.399 674.488 975.463 576.661C1157.35 428.483 891.598 225.35 953.601 -4.25346C967.758 -56.9069 964.891 -106.971 966.503 -152.144C973.134 -353.263 764.724 -414.404 764.724 -414.404" stroke="#9E9E9E" stroke-miterlimit="10"/>
<path d="M-414.412 491.783C-235.928 547.17 43.265 514.369 309.377 572.202C581.402 631.041 862.926 680.386 983.348 583.279C1166.49 435.821 908.98 228.371 964.532 -1.66388C977.255 -54.749 974.388 -105.101 976.717 -150.561C987.29 -355.852 779.598 -417.281 779.598 -417.281" stroke="#9A9A9A" stroke-miterlimit="10"/>
<path d="M-415.665 499.408C-237.361 549.615 44.3413 523.433 313.141 580.402C588.034 638.234 870.812 686.14 991.771 589.897C1176.17 443.158 926.722 231.249 976.002 0.925706C987.471 -52.4471 984.603 -103.087 987.65 -148.979C1001.45 -358.585 794.652 -420.158 794.652 -420.158" stroke="#979797" stroke-miterlimit="10"/>
<path d="M-417.099 507.176C-238.974 552.349 45.0574 532.783 316.545 588.746C594.305 645.571 878.337 692.039 999.835 596.514C1185.49 450.494 944.283 234.126 987.111 3.37122C997.147 -50.2893 994.279 -101.36 998.043 -147.54C1015.6 -361.175 809.524 -423.036 809.524 -423.036" stroke="#939393" stroke-miterlimit="10"/>
<path d="M-418.354 514.801C-240.229 554.938 46.1327 541.847 320.129 596.802C600.757 652.764 886.222 697.793 1008.08 602.988C1195.16 457.687 961.844 236.859 998.401 5.81687C1007 -48.1314 1004.31 -99.634 1008.79 -146.245C1029.94 -363.765 824.577 -425.913 824.577 -425.913" stroke="#8F8F8F" stroke-miterlimit="10"/>
<path d="M-419.608 522.569C-241.662 557.528 47.208 551.198 323.893 605.146C607.208 660.101 894.107 703.692 1016.5 609.606C1204.84 465.024 979.585 239.88 1009.69 8.26258C1016.68 -45.9734 1014.17 -97.7637 1019.37 -144.807C1044.1 -366.498 839.451 -428.79 839.451 -428.79" stroke="#8B8B8B" stroke-miterlimit="10"/>
<path d="M-421.041 530.194C-243.275 560.117 48.1044 560.261 327.298 613.346C613.48 667.295 901.634 709.446 1024.56 616.224C1214.16 472.361 996.968 242.758 1020.8 10.8521C1026.36 -43.6716 1024.03 -95.8935 1029.94 -143.224C1058.43 -369.088 854.325 -431.667 854.325 -431.667" stroke="#888888" stroke-miterlimit="10"/>
<path d="M-422.296 537.963C-244.709 562.851 49.1792 569.612 331.061 621.69C620.11 674.775 909.518 715.344 1032.81 622.841C1223.83 479.698 1014.53 245.779 1032.09 13.2978C1036.21 -41.5137 1033.88 -94.0233 1040.69 -141.785C1072.95 -371.677 869.377 -434.545 869.377 -434.545" stroke="#848484" stroke-miterlimit="10"/>
<path d="M-423.729 545.587C-246.322 565.296 50.0751 578.819 334.465 629.746C626.382 681.824 917.044 721.099 1040.87 629.315C1233.15 486.891 1031.91 248.512 1043.2 15.7433C1045.89 -39.3559 1043.74 -92.2971 1051.09 -140.347C1087.1 -374.267 884.071 -437.566 884.071 -437.566" stroke="#808080" stroke-miterlimit="10"/>
<path d="M-424.984 553.356C-247.755 568.03 50.9711 588.027 338.049 638.091C632.833 689.305 925.108 727.141 1049.11 636.077C1243.01 494.66 1049.29 251.677 1054.49 18.4767C1055.75 -36.9102 1053.77 -90.1391 1061.84 -138.764C1101.62 -376.712 899.124 -440.299 899.124 -440.299" stroke="#7C7C7C" stroke-miterlimit="10"/>
<path d="M-426.417 561.124C-249.367 570.763 51.8676 597.378 341.634 646.435C639.106 696.642 932.815 733.039 1057.36 642.694C1252.51 501.853 1066.86 254.698 1065.78 20.9225C1065.6 -34.7521 1063.63 -88.2688 1072.41 -137.326C1115.96 -379.302 913.999 -443.176 913.999 -443.176" stroke="#797979" stroke-miterlimit="10"/>
<path d="M-427.672 568.749C-250.802 573.209 52.9424 606.441 345.217 654.635C645.557 703.835 940.52 738.938 1065.6 649.312C1262 509.19 1084.24 257.575 1077.07 23.5119C1075.28 -32.4504 1073.67 -86.3987 1083.16 -135.743C1130.65 -381.747 929.23 -445.91 929.23 -445.91" stroke="#757575" stroke-miterlimit="10"/>
<path d="M-428.926 576.518C-252.235 575.942 54.0176 615.792 348.981 662.835C652.187 711.172 948.405 744.692 1074.02 655.786C1271.68 516.383 1101.98 260.453 1088.54 25.8137C1085.31 -30.4363 1083.88 -84.6723 1094.09 -134.449C1145.17 -384.337 944.104 -448.931 944.104 -448.931" stroke="#717171" stroke-miterlimit="10"/>
<path d="M-430.36 584.142C-253.848 578.532 54.9131 624.855 352.385 671.035C658.458 718.366 955.93 750.447 1081.91 662.403C1281 523.72 1119 263.474 1099.47 28.4032C1094.81 -28.1346 1093.38 -82.8021 1104.31 -132.866C1159.68 -386.783 959.156 -451.808 959.156 -451.808" stroke="#6D6D6D" stroke-miterlimit="10"/>
<path d="M-431.614 591.911C-255.281 581.121 55.9893 634.206 356.149 679.379C665.09 725.846 963.816 756.345 1090.33 669.021C1290.68 531.057 1136.21 266.639 1110.94 30.9927C1104.67 -25.8328 1103.59 -80.7881 1115.24 -131.284C1174.38 -389.228 974.031 -454.685 974.031 -454.685" stroke="#6A6A6A" stroke-miterlimit="10"/>
<path d="M-433.048 599.536C-75.3648 567.454 848.053 846.115 1098.39 675.495C1348.74 504.874 1062.55 131.696 1125.81 -130.133C1188.89 -391.962 989.083 -457.707 989.083 -457.707" stroke="#666666" stroke-miterlimit="10"/>
<path d="M194.689 800.942C-175.538 589.897 -234.495 495.235 -99.7363 334.829C34.8428 174.423 -219.621 199.743 -213.349 88.2496C-207.077 -23.2434 257.947 89.976 297.908 -87.4059C337.87 -264.644 106.344 -327.224 106.344 -327.224" stroke="white" stroke-miterlimit="10"/>
<path d="M190.927 801.374C-177.688 591.623 -243.096 495.667 -112.638 334.829C17.6403 174.135 -231.985 193.988 -221.771 81.9197C-211.736 -30.1488 238.594 80.7688 276.584 -92.1534C314.395 -265.219 85.1987 -324.778 85.1987 -324.778" stroke="#F9F9F9" stroke-miterlimit="10"/>
<path d="M187.342 801.806C-180.018 593.349 -251.698 495.955 -125.72 334.829C0.257581 173.704 -244.35 188.09 -230.552 75.5899C-216.574 -37.0541 218.882 71.7056 254.901 -97.0445C291.099 -265.651 64.0528 -322.476 64.0528 -322.476" stroke="#F3F3F3" stroke-miterlimit="10"/>
<path d="M183.579 802.093C-182.168 595.219 -260.3 496.242 -138.623 334.829C-16.946 173.416 -256.716 182.335 -238.975 69.2598C-221.234 -43.9597 199.527 62.4982 233.575 -101.792C267.623 -266.083 42.9067 -320.175 42.9067 -320.175" stroke="#EDEDED" stroke-miterlimit="10"/>
<path d="M179.816 802.525C-184.318 596.946 -268.901 496.53 -151.525 334.829C-34.1489 173.128 -269.08 176.581 -247.576 62.7861C-226.072 -50.8649 179.995 53.1474 212.072 -106.683C244.149 -266.514 21.7615 -317.873 21.7615 -317.873" stroke="#E7E7E7" stroke-miterlimit="10"/>
<path d="M176.053 802.956C-186.648 598.672 -277.502 496.962 -164.427 334.829C-51.3521 172.697 -281.266 170.827 -255.998 56.4562C-230.731 -57.9141 160.641 44.0841 190.926 -111.575C221.032 -267.089 0.615854 -315.571 0.615854 -315.571" stroke="#E1E1E1" stroke-miterlimit="10"/>
<path d="M172.469 803.388C-188.798 600.543 -286.104 497.25 -177.33 334.829C-68.5552 172.409 -293.63 164.928 -264.421 50.1263C-235.211 -64.6757 141.288 34.8769 169.602 -116.322C197.736 -267.521 -20.3504 -313.269 -20.3504 -313.269" stroke="#DADADA" stroke-miterlimit="10"/>
<path d="M168.706 803.819C-190.948 602.269 -294.884 497.537 -190.411 334.829C-85.9372 172.121 -305.995 159.174 -273.022 43.7964C-240.049 -71.581 121.935 25.8136 148.098 -121.213C174.261 -268.097 -41.6748 -310.967 -41.6748 -310.967" stroke="#D4D4D4" stroke-miterlimit="10"/>
<path d="M164.942 804.107C-193.278 603.995 -303.486 497.825 -203.314 334.829C-103.141 171.834 -318.36 153.419 -281.624 37.4665C-244.888 -78.4863 102.402 16.6065 126.594 -125.961C150.965 -268.528 -62.8208 -308.522 -62.8208 -308.522" stroke="#CECECE" stroke-miterlimit="10"/>
<path d="M161.179 804.538C-195.608 605.721 -312.087 498.112 -216.216 334.829C-120.344 171.546 -330.724 147.665 -290.225 31.1364C-249.726 -85.3919 82.8691 7.54297 105.09 -130.708C127.49 -268.96 -84.1452 -306.076 -84.1452 -306.076" stroke="#C8C8C8" stroke-miterlimit="10"/>
<path d="M157.595 804.97C-197.758 607.592 -320.689 498.544 -229.118 334.829C-137.547 171.114 -343.089 141.766 -298.648 24.6628C-254.206 -92.4409 63.5154 -1.80786 83.9442 -135.743C104.373 -269.679 -105.112 -304.062 -105.112 -304.062" stroke="#C2C2C2" stroke-miterlimit="10"/>
<path d="M153.832 805.402C-199.909 609.318 -329.291 498.832 -242.021 334.829C-154.75 170.826 -355.275 136.012 -307.07 18.3326C-258.865 -99.3465 43.9824 -10.8713 62.44 -140.347C80.8976 -269.967 -126.258 -301.473 -126.258 -301.473" stroke="#BCBCBC" stroke-miterlimit="10"/>
<path d="M150.069 805.833C-202.059 611.044 -337.893 499.12 -254.923 334.829C-171.954 170.539 -367.64 130.257 -315.672 12.0028C-263.704 -106.252 24.6287 -20.0784 41.1151 -145.238C57.6015 -270.398 -147.403 -299.171 -147.403 -299.171" stroke="#B6B6B6" stroke-miterlimit="10"/>
<path d="M146.305 806.265C-204.389 612.914 -346.674 499.551 -268.005 334.829C-189.336 170.251 -380.005 124.503 -324.274 5.67289C-268.542 -113.157 5.09594 -29.2856 19.6111 -150.13C34.1263 -270.974 -168.728 -296.869 -168.728 -296.869" stroke="#B0B0B0" stroke-miterlimit="10"/>
<path d="M142.722 806.553C-206.539 614.641 -355.275 499.839 -280.907 334.829C-206.539 169.819 -392.369 118.605 -332.875 -0.657062C-273.38 -119.919 -14.2573 -38.3489 -1.71328 -154.877C10.8307 -271.405 -189.694 -294.567 -189.694 -294.567" stroke="#AAAAAA" stroke-miterlimit="10"/>
<path d="M138.958 806.984C-208.69 616.367 -363.877 500.127 -293.81 334.829C-223.742 169.676 -404.734 112.85 -341.298 -6.98682C-277.861 -126.824 -33.6112 -47.5559 -23.0384 -159.768C-12.4656 -271.981 -210.84 -292.265 -210.84 -292.265" stroke="#A4A4A4" stroke-miterlimit="10"/>
<path d="M135.195 807.416C-211.019 618.238 -372.478 500.414 -306.712 334.829C-240.945 169.244 -416.92 107.096 -349.72 -13.3168C-282.52 -133.729 -52.9645 -56.6193 -44.3629 -164.516C-35.7613 -272.412 -231.985 -289.82 -231.985 -289.82" stroke="#9D9D9D" stroke-miterlimit="10"/>
<path d="M131.432 807.847C-213.17 619.964 -381.08 500.846 -319.615 334.829C-258.328 168.956 -429.464 101.341 -358.322 -19.6468C-287.359 -140.635 -72.4979 -65.8265 -65.8675 -169.263C-59.2371 -272.7 -253.131 -287.374 -253.131 -287.374" stroke="#979797" stroke-miterlimit="10"/>
<path d="M127.848 808.279C-215.499 621.69 -389.682 501.134 -332.696 334.829C-275.531 168.669 -441.65 95.5866 -366.923 -25.9768C-292.018 -147.54 -92.0305 -74.8899 -87.3713 -174.155C-82.7121 -273.276 -274.456 -285.216 -274.456 -285.216" stroke="#919191" stroke-miterlimit="10"/>
<path d="M124.085 808.567C-217.649 623.56 -398.283 501.422 -345.598 334.829C-292.734 168.381 -454.014 89.8323 -375.345 -32.4505C-296.677 -154.589 -111.384 -84.2408 -108.517 -179.046C-105.829 -273.851 -295.243 -282.914 -295.243 -282.914" stroke="#8B8B8B" stroke-miterlimit="10"/>
<path d="M120.321 808.998C-219.8 625.287 -407.064 501.709 -358.501 334.829C-309.938 167.949 -466.379 83.9337 -383.947 -38.7806C-301.515 -161.495 -130.917 -93.4481 -130.021 -183.793C-129.304 -274.283 -316.568 -280.469 -316.568 -280.469" stroke="#858585" stroke-miterlimit="10"/>
<path d="M116.558 809.43C-222.13 627.013 -415.666 502.141 -371.403 334.829C-327.141 167.518 -478.744 78.1795 -392.549 -45.1103C-306.354 -168.4 -150.27 -102.511 -151.525 -188.685C-152.779 -274.858 -337.893 -278.167 -337.893 -278.167" stroke="#7F7F7F" stroke-miterlimit="10"/>
<path d="M-484.836 490.2C-242.737 260.597 -25.9053 341.591 44.5202 421.003C114.767 500.415 148.456 552.78 285.186 540.84C421.915 529.043 520.834 356.696 674.408 431.073C827.982 505.45 891.061 471.642 935.323 405.753C979.586 339.864 819.56 192.981 901.634 106.808C983.707 20.6346 1244.44 93.285 1244.44 93.285" stroke="#F2F2F2" stroke-miterlimit="10"/>
<path d="M-479.818 503.723C-237.719 273.976 -19.2745 344.036 51.1511 423.448C121.397 502.86 148.636 561.268 285.365 549.471C422.095 537.675 521.013 372.521 674.588 446.754C828.162 521.13 883.714 472.793 927.797 406.904C972.06 341.015 833.717 210.676 915.791 124.503C997.864 38.3296 1244.62 101.917 1244.62 101.917" stroke="#F0F0F0" stroke-miterlimit="10"/>
<path d="M-474.801 517.246C-232.702 287.643 -12.4654 346.626 57.781 425.894C128.027 505.306 148.994 569.9 285.723 557.959C422.453 546.163 521.371 388.058 674.945 462.291C828.52 536.524 876.366 473.8 920.629 408.055C964.891 342.31 848.232 228.228 930.305 142.054C1012.38 55.8808 1244.98 110.405 1244.98 110.405" stroke="#EEEEEE" stroke-miterlimit="10"/>
<path d="M-469.604 530.769C-227.505 301.022 -5.83506 349.072 64.4113 428.483C134.658 507.895 149.173 578.532 285.902 566.735C422.632 554.938 521.729 403.883 675.304 478.26C828.878 552.636 869.198 475.383 913.281 409.494C957.544 343.605 862.568 246.21 944.641 160.037C1026.71 73.8635 1245.34 119.18 1245.34 119.18" stroke="#ECECEC" stroke-miterlimit="10"/>
<path d="M-464.587 544.292C-222.488 314.545 0.795333 351.517 71.0417 430.929C141.288 510.341 149.352 587.163 286.082 575.223C422.811 563.426 521.909 419.42 675.483 493.797C829.058 568.173 861.672 476.39 905.934 410.501C950.197 344.612 876.904 263.761 958.977 177.588C1041.05 91.4148 1245.52 127.668 1245.52 127.668" stroke="#EAEAEA" stroke-miterlimit="10"/>
<path d="M-459.569 557.815C-217.47 328.068 7.42573 354.107 77.6721 433.375C147.919 512.787 149.531 595.651 286.44 583.855C423.17 572.058 522.267 435.101 675.842 509.478C829.416 583.855 854.504 477.684 898.587 411.795C942.85 345.907 891.24 281.456 973.134 195.283C1055.03 109.11 1245.52 136.3 1245.52 136.3" stroke="#E8E8E8" stroke-miterlimit="10"/>
<path d="M-454.372 571.338C-212.273 341.591 14.2357 356.552 84.482 435.964C154.728 515.376 150.069 604.427 286.799 592.486C423.528 580.689 522.805 450.926 676.379 525.159C829.954 599.535 847.336 478.835 891.598 412.946C935.861 347.057 905.755 299.151 987.829 212.978C1069.9 126.805 1246.23 144.931 1246.23 144.931" stroke="#E7E7E7" stroke-miterlimit="10"/>
<path d="M-449.354 584.861C-207.255 355.114 20.6868 358.998 91.1124 438.41C161.359 517.822 150.248 612.914 286.978 601.118C423.707 589.321 522.984 466.607 676.559 540.84C830.133 615.216 839.989 479.986 884.072 414.241C928.155 348.496 919.912 316.846 1001.99 230.817C1084.06 144.787 1246.24 153.707 1246.24 153.707" stroke="#E5E5E5" stroke-miterlimit="10"/>
<path d="M-444.337 598.384C-202.238 368.637 27.3173 361.588 97.7429 440.856C167.989 520.267 150.428 621.546 287.157 609.606C423.887 597.809 523.163 482.144 676.738 556.377C830.312 630.753 832.463 481.137 876.725 415.248C920.987 349.359 934.248 334.398 1016.32 248.224C1098.4 162.051 1246.41 161.907 1246.41 161.907" stroke="#E3E3E3" stroke-miterlimit="10"/>
<path d="M-439.141 611.908C-197.221 382.16 34.1265 364.033 104.373 443.445C174.619 522.857 150.606 630.178 287.336 618.381C424.066 606.585 523.342 497.969 676.917 572.345C830.491 646.722 825.115 482.576 869.198 416.687C913.461 350.798 948.405 352.38 1030.48 266.207C1112.55 180.034 1246.59 170.826 1246.59 170.826" stroke="#E1E1E1" stroke-miterlimit="10"/>
<path d="M-434.123 625.431C-192.024 395.683 40.7567 366.479 111.003 445.891C181.249 525.303 150.965 638.666 287.694 626.869C424.424 615.073 523.88 513.506 677.454 587.883C831.028 662.259 817.947 483.726 862.209 417.838C906.472 351.949 963.099 369.932 1045.17 283.902C1127.25 197.729 1247.13 179.458 1247.13 179.458" stroke="#DFDFDF" stroke-miterlimit="10"/>
<path d="M-429.105 638.953C-187.006 409.206 47.3876 369.068 117.634 448.336C187.88 527.748 151.144 647.297 287.874 635.501C424.603 623.704 524.059 529.331 677.634 603.563C831.208 677.94 810.6 484.877 854.683 418.988C898.946 353.1 977.256 387.626 1059.15 301.453C1141.04 215.28 1246.95 187.946 1246.95 187.946" stroke="#DDDDDD" stroke-miterlimit="10"/>
<path d="M-423.908 652.476C-181.809 422.729 54.018 371.514 124.444 450.926C194.69 530.338 151.503 655.929 288.232 644.132C424.962 632.336 524.418 545.012 677.992 619.244C831.566 693.621 803.253 486.028 847.515 420.139C891.778 354.251 991.592 405.322 1073.67 319.148C1155.74 232.975 1247.49 196.578 1247.49 196.578" stroke="#DBDBDB" stroke-miterlimit="10"/>
<path d="M-418.891 666C-176.791 436.252 60.6484 373.96 131.074 453.371C201.32 532.783 151.682 664.561 288.591 652.764C425.32 640.968 524.955 560.693 678.53 634.925C832.104 709.302 796.264 487.323 840.347 421.434C884.61 355.545 1006.11 423.016 1088.18 336.987C1170.25 250.814 1247.85 205.209 1247.85 205.209" stroke="#D9D9D9" stroke-miterlimit="10"/>
<path d="M-413.874 679.523C-171.774 449.775 67.2784 376.549 137.525 455.817C207.771 535.229 151.861 673.049 288.59 661.252C425.32 649.455 524.955 576.23 678.529 650.606C832.104 724.983 788.558 488.474 832.821 422.585C877.083 356.696 1020.26 440.712 1102.34 354.538C1184.41 268.365 1247.85 213.697 1247.85 213.697" stroke="#D7D7D7" stroke-miterlimit="10"/>
<path d="M-408.855 693.046C-166.756 463.298 73.9096 378.995 144.335 458.407C214.582 537.819 152.22 681.824 288.95 670.028C425.679 658.231 525.314 592.054 678.888 666.431C832.463 740.808 781.391 489.769 825.474 424.024C869.736 358.135 1034.6 458.551 1116.67 372.521C1198.75 286.348 1248.21 222.617 1248.21 222.617" stroke="#D5D5D5" stroke-miterlimit="10"/>
<path d="M-403.658 706.569C-161.738 476.821 80.7192 381.441 150.966 460.852C221.212 540.264 152.399 690.312 289.129 678.516C425.858 666.719 525.493 607.735 679.068 681.968C832.642 756.345 773.864 490.92 818.127 425.031C862.389 359.142 1048.94 476.102 1131.01 389.928C1213.08 303.755 1248.39 230.961 1248.39 230.961" stroke="#D4D4D4" stroke-miterlimit="10"/>
<path d="M-398.641 720.092C-156.542 490.344 87.349 384.03 157.595 463.298C227.842 542.71 152.578 698.944 289.487 687.147C426.216 675.351 526.03 623.416 679.605 697.649C833.179 772.026 766.875 492.07 810.958 426.182C855.221 360.293 1063.45 493.797 1145.35 407.623C1227.42 321.45 1248.56 239.449 1248.56 239.449" stroke="#D2D2D2" stroke-miterlimit="10"/>
<path d="M-393.624 733.615C-151.524 503.867 93.8004 386.476 164.226 465.888C234.472 545.299 152.936 707.576 289.666 695.779C426.396 683.982 526.21 639.097 679.784 713.33C833.359 787.707 759.349 493.365 803.611 427.476C847.874 361.588 1077.61 511.492 1159.68 425.462C1241.76 339.289 1248.92 248.224 1248.92 248.224" stroke="#D0D0D0" stroke-miterlimit="10"/>
<path d="M-388.427 747.138C-146.328 517.39 100.609 388.921 171.035 468.333C241.281 547.745 153.294 716.208 290.024 704.411C426.753 692.614 526.568 654.779 680.142 729.155C833.717 803.532 752.181 494.66 796.264 428.771C840.526 362.882 1091.94 529.331 1174.02 443.157C1256.09 356.984 1249.1 256.856 1249.1 256.856" stroke="#CECECE" stroke-miterlimit="10"/>
<path d="M-383.409 760.661C-141.31 530.913 107.241 391.511 177.487 470.923C247.734 550.335 153.295 724.839 290.025 713.043C426.754 701.246 526.748 670.459 680.322 744.836C833.897 819.213 744.655 495.811 788.917 429.922C833.18 364.033 1106.28 547.026 1188.35 460.852C1270.43 374.679 1249.46 265.488 1249.46 265.488" stroke="#CCCCCC" stroke-miterlimit="10"/>
<path d="M-378.392 774.184C-136.293 544.436 113.871 393.956 184.296 473.368C254.542 552.78 153.653 733.471 290.562 721.674C427.291 709.878 527.285 686.14 680.859 760.517C834.433 834.894 737.665 497.106 781.749 431.217C826.011 365.328 1120.79 564.721 1202.87 478.691C1284.94 392.518 1249.82 274.263 1249.82 274.263" stroke="#CACACA" stroke-miterlimit="10"/>
<path d="M-440.395 251.821C-349.899 265.488 -245.963 276.565 -174.821 229.666C-129.304 199.743 -108.158 151.981 -99.0192 105.369C-89.1632 55.0175 -86.6544 -3.5343 -36.4784 -34.7524C-14.7952 -48.2754 12.9808 -54.0299 40.3983 -55.3246C73.0127 -56.7632 106.165 -51.872 136.091 -41.37C187.163 -23.3873 234.113 11.7151 289.486 6.24832C349.518 0.206116 386.971 -48.8508 437.685 -71.2933C500.225 -99.0587 582.478 -104.669 648.065 -80.2128C714.19 -55.4685 740.712 7.68693 789.275 51.421C852.353 108.246 957.902 130.257 1049.47 110.117C1140.87 89.8322 1215.77 30.1294 1247.49 -41.6577" stroke="#ECECEC" stroke-miterlimit="10"/>
<path d="M-441.291 241.894C-343.089 253.547 -237.361 276.421 -166.04 229.522C-120.523 199.599 -107.8 143.924 -99.9152 95.4428C-91.672 45.0911 -87.5504 -13.4608 -37.3744 -44.6788C-15.6912 -58.2019 12.0848 -63.9563 39.5024 -65.2511C72.1167 -66.6897 106.165 -61.3668 135.554 -49.8579C186.088 -30.1488 233.755 8.83782 289.128 3.37106C349.16 -2.67114 387.867 -54.6053 437.685 -78.0548C499.329 -107.115 581.403 -114.883 646.99 -90.2831C713.115 -65.5388 740.532 -2.95888 788.2 41.3506C851.636 100.19 955.035 133.71 1046.07 111.268C1136.21 88.969 1208.6 17.038 1240.14 -54.7492" stroke="#EAEAEA" stroke-miterlimit="10"/>
<path d="M-442.187 231.824C-336.1 241.319 -228.58 276.133 -157.259 229.378C-111.742 199.455 -107.62 135.868 -100.811 85.5163C-94.0011 35.1646 -88.4458 -23.3873 -38.2699 -54.6053C-16.5867 -68.1284 11.1893 -73.8829 38.6069 -75.1776C71.2213 -76.6163 106.165 -70.7179 135.196 -58.2019C185.192 -36.7665 233.576 6.24829 288.949 0.781535C348.981 -5.26067 389.122 -60.0721 437.864 -84.3848C498.434 -114.596 580.687 -124.522 646.274 -100.066C712.399 -75.3215 740.712 -13.1731 787.483 31.568C851.099 92.4216 952.527 137.594 1043.2 112.85C1132.08 88.6812 1201.79 4.52193 1233.51 -67.2652" stroke="#E9E9E9" stroke-miterlimit="10"/>
<path d="M-443.083 221.754C-329.291 229.235 -219.799 275.846 -148.478 229.091C-102.961 199.167 -107.262 127.812 -101.707 75.4461C-96.3306 25.0944 -89.3418 -33.4575 -39.1658 -64.6755C-17.4826 -78.1986 10.2933 -83.9531 37.7109 -85.2478C70.3253 -86.6865 106.165 -80.2126 134.658 -66.8335C184.117 -43.8155 233.218 3.22733 288.591 -2.23942C348.623 -8.28163 390.197 -65.9703 437.864 -91.1462C497.538 -122.652 579.791 -134.736 645.378 -110.136C711.503 -85.3917 740.712 -23.6749 786.588 21.4978C850.204 84.3655 949.839 141.047 1040.16 114.001C1127.78 87.8182 1194.98 -8.4255 1226.7 -80.2127" stroke="#E7E7E7" stroke-miterlimit="10"/>
<path d="M-443.979 211.683C-322.302 217.15 -211.019 275.702 -139.697 228.803C-94.1802 198.88 -106.724 119.612 -102.603 65.2318C-98.6602 14.8801 -90.2378 -43.6718 -40.0618 -74.8898C-18.3786 -88.4129 9.39736 -94.1673 36.8149 -95.4621C69.4293 -96.9007 106.165 -89.8515 134.3 -75.6091C183.221 -50.8649 233.039 0.206129 288.412 -5.26063C348.444 -11.3028 391.452 -71.8687 438.044 -97.9077C496.463 -130.564 578.716 -144.663 644.303 -120.206C710.428 -95.4621 740.533 -34.3207 785.512 11.4274C849.308 76.3091 946.971 144.5 1036.93 115.296C1123.3 87.2427 1188 -21.2293 1219.71 -93.1603" stroke="#E6E6E6" stroke-miterlimit="10"/>
<path d="M-444.875 201.757C-315.493 205.209 -202.239 275.558 -131.096 228.659C-85.5796 198.736 -106.546 111.699 -103.679 55.3052C-101.17 4.95354 -91.314 -53.5983 -41.1381 -84.8164C-19.4549 -98.3394 8.32108 -104.094 35.7387 -105.389C68.3531 -106.827 105.985 -99.2026 133.582 -84.097C181.966 -57.6264 232.5 -2.5273 287.873 -8.13792C347.905 -14.1801 392.167 -77.6233 437.684 -104.669C495.387 -138.765 577.639 -155.021 643.226 -130.421C709.351 -105.676 740.353 -44.9666 784.436 1.21311C848.41 68.1089 943.924 147.952 1033.7 116.303C1118.82 86.2356 1180.83 -34.4647 1212.54 -106.252" stroke="#E4E4E4" stroke-miterlimit="10"/>
<path d="M-445.771 191.686C-308.683 193.125 -193.457 275.27 -122.315 228.371C-76.7983 198.448 -106.008 103.499 -104.574 45.2348C-103.32 -4.97302 -92.2095 -63.6687 -42.0335 -94.8868C-20.3503 -108.41 7.42563 -114.164 34.8432 -115.459C67.4576 -116.898 105.986 -108.554 133.224 -92.585C181.07 -64.388 232.322 -5.40459 287.694 -10.8714C347.726 -16.9136 393.422 -83.3778 437.864 -111.143C494.67 -146.389 577.102 -164.804 642.689 -140.203C708.814 -115.459 740.533 -55.1808 783.899 -8.56955C848.053 60.4842 941.595 151.837 1030.84 117.885C1114.7 85.9478 1174.2 -46.9807 1205.91 -118.768" stroke="#E2E2E2" stroke-miterlimit="10"/>
<path d="M-446.667 181.616C-301.694 181.041 -184.677 274.983 -113.534 228.228C-68.0176 198.304 -105.47 95.5867 -105.291 35.3085C-105.112 -14.8993 -92.9264 -73.595 -42.7504 -104.813C-21.0672 -118.336 6.70876 -124.091 34.1263 -125.385C66.7407 -126.824 106.165 -117.905 132.866 -101.073C180.353 -71.0055 232.142 -8.13782 287.515 -13.7484C347.547 -19.7906 394.677 -89.1322 438.043 -117.761C493.595 -154.302 576.027 -174.874 641.614 -150.417C707.739 -125.673 740.353 -65.8265 782.824 -18.7836C846.977 52.2842 938.728 155.289 1027.61 118.892C1110.22 85.0848 1167.21 -60.072 1198.93 -131.859" stroke="#E1E1E1" stroke-miterlimit="10"/>
<path d="M-447.383 171.546C-294.705 168.957 -175.716 274.695 -104.574 227.94C-59.057 198.017 -104.753 87.3868 -106.007 25.2384C-107.083 -24.8256 -93.6426 -83.6652 -43.4666 -114.883C-21.7834 -128.406 5.99263 -134.161 33.4102 -135.456C66.0246 -136.894 106.345 -127.399 132.508 -109.704C179.458 -77.9108 232.143 -11.1588 287.337 -16.6255C347.369 -22.6677 395.753 -94.8865 438.223 -124.378C492.879 -162.214 575.311 -184.944 640.898 -160.344C707.023 -135.599 740.533 -76.1844 782.108 -28.7099C846.261 44.5159 936.22 159.03 1024.74 120.331C1106.1 84.7973 1160.58 -72.8756 1192.12 -144.663" stroke="#DFDFDF" stroke-miterlimit="10"/>
<path d="M-448.279 161.619C-287.716 157.016 -166.935 274.695 -95.7931 227.796C-50.2763 197.873 -104.036 79.4741 -106.903 15.1678C-109.054 -34.8962 -94.5387 -93.7358 -44.3627 -124.954C-22.6795 -138.477 5.09651 -144.231 32.5141 -145.526C65.1285 -146.965 106.344 -136.894 132.149 -118.192C178.562 -84.6725 231.964 -13.8924 287.157 -19.503C347.189 -25.5452 397.007 -100.785 438.402 -131.14C491.983 -170.414 574.415 -195.015 640.002 -170.558C706.127 -145.814 740.354 -86.8304 781.211 -38.9244C845.544 36.4593 933.531 162.483 1021.7 121.482C1101.8 84.0777 1153.59 -85.8234 1185.31 -157.611" stroke="#DDDDDD" stroke-miterlimit="10"/>
<path d="M-449.176 151.549C-280.908 144.932 -158.156 274.407 -87.0132 227.508C-41.4965 197.585 -103.5 71.2742 -107.8 5.09764C-111.205 -44.9664 -95.4356 -103.806 -45.2597 -135.024C-23.5765 -148.547 4.19957 -154.302 31.6172 -155.596C64.2315 -157.035 106.343 -146.389 131.611 -126.824C177.486 -91.5777 231.604 -16.9133 286.798 -22.38C346.83 -28.4222 397.902 -106.539 438.401 -137.757C490.906 -178.326 573.518 -205.085 639.105 -180.484C705.23 -155.74 740.174 -97.1883 780.314 -48.8506C844.647 28.5472 930.842 166.367 1018.65 122.777C1097.5 83.6463 1146.78 -98.6269 1178.5 -170.414" stroke="#DCDCDC" stroke-miterlimit="10"/>
<path d="M-450.072 141.479C-273.919 132.847 -149.375 274.12 -78.2323 227.22C-32.7155 197.297 -102.783 63.2178 -108.696 -4.97279C-113.176 -54.8929 -96.3315 -113.876 -46.1555 -145.094C-24.4723 -158.617 3.30369 -164.372 30.7213 -165.667C63.3357 -167.105 106.344 -155.74 131.252 -135.456C176.411 -98.3393 231.425 -19.7906 286.619 -25.4012C346.651 -31.4434 399.156 -112.582 438.58 -144.519C490.19 -186.383 572.801 -215.299 638.388 -190.699C704.513 -165.954 740.353 -107.834 779.598 -59.0649C843.931 20.4908 928.334 169.963 1015.78 123.928C1093.56 82.9269 1140.15 -111.718 1171.69 -183.506" stroke="#DADADA" stroke-miterlimit="10"/>
<path d="M-450.968 131.408C-267.109 120.763 -140.593 273.832 -69.4511 227.077C-23.9343 197.153 -101.886 55.3054 -109.592 -14.8993C-114.968 -64.8194 -97.2271 -123.803 -47.0511 -155.021C-25.3679 -168.544 2.40812 -174.298 29.8257 -175.593C62.4401 -177.032 106.344 -165.091 130.715 -143.944C175.336 -105.101 231.067 -22.6679 286.261 -28.1347C346.293 -34.1769 400.053 -118.192 438.581 -150.993C489.115 -194.151 571.726 -225.082 637.313 -200.625C703.438 -175.881 739.995 -118.048 778.523 -68.9915C842.856 12.7222 925.467 173.704 1012.38 125.222C1088.9 82.4953 1132.8 -124.522 1164.52 -196.309" stroke="#D9D9D9" stroke-miterlimit="10"/>
<path d="M-451.864 121.482C-260.299 108.822 -131.992 273.688 -60.6703 226.933C-15.1536 197.009 -101.17 47.249 -110.488 -24.8258C-116.939 -74.7459 -98.1231 -133.729 -47.9472 -164.947C-26.264 -178.47 1.51207 -184.225 28.9297 -185.52C61.544 -186.958 106.344 -174.442 130.178 -152.288C174.261 -111.575 230.709 -25.2574 286.082 -30.868C346.114 -36.9102 401.307 -123.947 438.76 -157.467C488.219 -201.92 571.009 -235.008 636.597 -210.408C702.721 -185.664 739.995 -128.263 777.806 -78.7741C841.96 5.09746 923.137 177.732 1009.51 126.805C1084.78 82.3514 1126.17 -137.038 1157.89 -208.825" stroke="#D7D7D7" stroke-miterlimit="10"/>
<path d="M-452.76 111.411C-253.31 96.7375 -123.211 273.544 -51.8895 226.645C-6.37277 196.722 -100.274 39.0488 -111.384 -35.0401C-118.91 -84.8164 -99.0191 -143.944 -48.8432 -175.162C-27.16 -188.685 0.61607 -194.439 28.0337 -195.734C60.648 -197.173 106.344 -183.937 129.819 -161.063C173.365 -118.624 230.53 -28.4225 285.902 -33.8892C345.934 -39.9314 402.382 -129.845 438.76 -164.372C487.144 -210.12 569.934 -245.223 635.701 -220.766C701.825 -196.022 739.816 -139.052 776.91 -89.1322C841.064 -2.95889 920.449 181.184 1006.47 127.668C1080.65 81.4881 1119.36 -150.417 1151.08 -222.205" stroke="#D5D5D5" stroke-miterlimit="10"/>
<path d="M-453.656 101.341C-246.501 84.6532 -114.43 273.256 -43.1087 226.357C2.40811 196.434 -99.3774 30.9927 -112.28 -45.1103C-120.702 -94.8866 -99.9151 -154.014 -49.7391 -185.232C-28.0559 -198.755 -0.279836 -204.509 27.1378 -205.804C59.7522 -207.243 106.165 -193.432 129.282 -169.695C172.29 -125.385 230.171 -31.2996 285.544 -36.7664C345.576 -42.8086 403.458 -135.743 438.76 -170.99C486.069 -218.176 569.038 -255.293 634.626 -230.692C700.75 -205.948 739.458 -149.266 775.835 -99.0586C839.81 -10.7273 917.762 185.069 1003.24 129.107C1076.35 81.2005 1112.19 -163.077 1143.91 -234.864" stroke="#D4D4D4" stroke-miterlimit="10"/>
<path d="M-454.372 91.2708C-239.332 72.5688 -105.47 272.969 -34.1482 226.07C11.3686 196.146 -98.3018 22.7925 -112.996 -55.1807C-122.315 -104.957 -100.631 -164.084 -50.4554 -195.302C-28.7722 -208.825 -0.996205 -214.58 26.4214 -215.875C59.0358 -217.313 106.345 -202.927 129.103 -178.183C171.394 -132.147 230.172 -34.1768 285.544 -39.6436C345.576 -45.6858 404.712 -141.642 439.119 -177.607C485.352 -226.089 568.501 -265.363 634.088 -240.763C700.213 -216.018 739.637 -159.768 775.298 -109.129C839.093 -18.6397 915.432 188.809 1000.55 130.257C1072.41 80.6251 1105.74 -176.025 1137.46 -247.812" stroke="#D2D2D2" stroke-miterlimit="10"/>
<path d="M-455.269 81.3444C-232.524 60.4844 -96.6899 272.825 -25.5475 225.926C19.9692 196.002 -97.4067 14.7363 -114.072 -65.1072C-124.466 -114.883 -101.708 -174.011 -51.5316 -205.229C-29.8484 -218.752 -2.07236 -224.506 25.3452 -225.801C57.9596 -227.24 106.164 -212.134 128.385 -186.671C170.139 -138.764 229.633 -36.9102 285.006 -42.3769C345.038 -48.4191 405.608 -147.252 438.939 -184.081C484.097 -233.857 567.246 -275.146 632.833 -250.545C698.958 -225.801 738.919 -169.983 774.043 -118.912C837.838 -26.2644 912.564 192.981 996.967 131.84C1067.75 80.6251 1098.39 -188.541 1130.11 -260.328" stroke="#D0D0D0" stroke-miterlimit="10"/>
<path d="M-456.165 71.274C-225.713 48.4 -87.9086 272.537 -16.7663 225.782C28.7505 195.859 -96.331 6.67995 -114.968 -75.0337C-126.257 -124.81 -102.603 -183.937 -52.4271 -215.155C-30.7439 -228.678 -2.96787 -234.433 24.4497 -235.728C57.0641 -237.166 106.165 -221.485 127.848 -195.158C168.885 -145.526 229.275 -39.7875 284.648 -45.2542C344.68 -51.2964 406.504 -153.151 438.939 -190.843C483.022 -241.914 566.35 -285.36 631.937 -260.76C698.062 -236.015 738.741 -180.485 773.147 -129.126C836.763 -34.1769 910.056 196.578 993.921 132.847C1063.63 79.9057 1091.59 -201.776 1123.12 -273.563" stroke="#CFCFCF" stroke-miterlimit="10"/>
<path d="M-457.061 61.2037C-218.725 36.3156 -79.1279 272.393 -7.98556 225.494C37.5312 195.571 -95.2559 -1.52015 -115.685 -85.2478C-127.87 -135.024 -103.32 -194.151 -53.1439 -225.369C-31.4607 -238.892 -3.68474 -244.647 23.7328 -245.942C56.3472 -247.38 106.165 -231.124 127.669 -203.934C168.168 -152.431 229.275 -42.8085 284.648 -48.2753C344.68 -54.3175 407.758 -159.049 439.297 -197.604C482.305 -250.114 565.812 -295.43 631.4 -270.974C697.524 -246.229 738.92 -191.13 772.609 -139.34C835.867 -42.2331 907.905 200.174 991.233 133.998C1059.87 79.3303 1084.95 -214.724 1116.67 -286.511" stroke="#CDCDCD" stroke-miterlimit="10"/>
<path d="M-457.957 51.2773C-211.915 24.3751 -70.3471 272.249 0.795288 225.35C46.3121 195.427 -94.1807 -9.57633 -116.581 -95.1742C-129.662 -144.95 -104.216 -204.078 -54.0399 -235.296C-32.3567 -248.819 -4.58068 -254.573 22.8369 -255.868C55.4513 -257.307 106.165 -240.331 127.131 -212.278C166.914 -159.049 229.096 -45.398 284.29 -51.0086C344.322 -57.0508 408.654 -164.803 439.297 -204.078C481.051 -257.882 564.737 -305.357 630.325 -280.756C696.449 -256.012 738.382 -201.201 771.534 -149.122C834.613 -49.7138 905.396 204.346 988.008 135.58C1055.57 79.3304 1077.97 -227.24 1109.68 -299.027" stroke="#CCCCCC" stroke-miterlimit="10"/>
<path d="M-458.853 41.2069C-204.926 12.2906 -61.5663 271.962 9.57611 225.063C55.0929 195.139 -93.1054 -17.7766 -117.477 -105.245C-131.454 -155.021 -105.112 -214.148 -54.9358 -245.366C-33.2527 -258.889 -5.47664 -264.644 21.9409 -265.939C54.5553 -267.377 106.165 -249.826 126.773 -220.91C166.018 -165.811 228.917 -48.4192 284.11 -53.8859C344.142 -59.9281 409.909 -170.702 439.477 -210.696C480.155 -265.795 564.021 -315.283 629.608 -290.827C695.733 -266.082 738.382 -211.703 770.817 -159.193C833.717 -57.6263 903.067 208.087 985.141 136.731C1051.8 78.7549 1071.34 -240.331 1102.87 -312.118" stroke="#CACACA" stroke-miterlimit="10"/>
</g>
</g>
</g>
<g opacity="0.15" filter="url(#filter0_d_203_14843)">
<rect x="235" y="75" width="300" height="300" rx="150" fill="white"/>
</g>
<defs>
<filter id="filter0_d_203_14843" x="175" y="17" width="420" height="420" filterUnits="userSpaceOnUse" color-interpolation-filters="sRGB">
<feFlood flood-opacity="0" result="BackgroundImageFix"/>
<feColorMatrix in="SourceAlpha" type="matrix" values="0 0 0 0 0 0 0 0 0 0 0 0 0 0 0 0 0 0 127 0" result="hardAlpha"/>
<feOffset dy="2"/>
<feGaussianBlur stdDeviation="30"/>
<feComposite in2="hardAlpha" operator="out"/>
<feColorMatrix type="matrix" values="0 0 0 0 0.156863 0 0 0 0 0.164706 0 0 0 0 0.243137 0 0 0 0.05 0"/>
<feBlend mode="normal" in2="BackgroundImageFix" result="effect1_dropShadow_203_14843"/>
<feBlend mode="normal" in="SourceGraphic" in2="effect1_dropShadow_203_14843" result="shape"/>
</filter>
<linearGradient id="paint0_linear_203_14843" x1="770" y1="-2.68221e-05" x2="-43.6137" y2="348.046" gradientUnits="userSpaceOnUse">
<stop stop-color="#7AF0A4"/>
<stop offset="1" stop-color="#40D173"/>
</linearGradient>
<linearGradient id="paint1_linear_203_14843" x1="-1.14739e-05" y1="450" x2="813.614" y2="101.954" gradientUnits="userSpaceOnUse">
<stop stop-color="#F28784"/>
<stop offset="1" stop-color="#FFBAB8"/>
</linearGradient>
</defs>
</svg>
