<svg width="70" height="71" viewBox="0 0 70 71" fill="none" xmlns="http://www.w3.org/2000/svg">
<rect opacity="0.12" width="70" height="70" rx="8" fill="#48EA81"/>
<g filter="url(#filter0_d_612_27799)">
<path opacity="0.3" d="M35 35C40.2927 35 44.5833 30.7094 44.5833 25.4167C44.5833 20.1239 40.2927 15.8333 35 15.8333C29.7072 15.8333 25.4166 20.1239 25.4166 25.4167C25.4166 30.7094 29.7072 35 35 35Z" fill="#48EA81"/>
<path d="M35 39.7917C25.3975 39.7917 17.5775 46.2317 17.5775 54.1667C17.5775 54.7033 17.9992 55.125 18.5358 55.125H51.4642C52.0008 55.125 52.4225 54.7033 52.4225 54.1667C52.4225 46.2317 44.6025 39.7917 35 39.7917Z" fill="#48EA81"/>
</g>
<defs>
<filter id="filter0_d_612_27799" x="2" y="7" width="66" height="66" filterUnits="userSpaceOnUse" color-interpolation-filters="sRGB">
<feFlood flood-opacity="0" result="BackgroundImageFix"/>
<feColorMatrix in="SourceAlpha" type="matrix" values="0 0 0 0 0 0 0 0 0 0 0 0 0 0 0 0 0 0 127 0" result="hardAlpha"/>
<feOffset dy="5"/>
<feGaussianBlur stdDeviation="5"/>
<feColorMatrix type="matrix" values="0 0 0 0 0.282353 0 0 0 0 0.917647 0 0 0 0 0.505882 0 0 0 0.28 0"/>
<feBlend mode="normal" in2="BackgroundImageFix" result="effect1_dropShadow_612_27799"/>
<feBlend mode="normal" in="SourceGraphic" in2="effect1_dropShadow_612_27799" result="shape"/>
</filter>
</defs>
</svg>
