<svg width="80" height="82" viewBox="0 0 80 82" fill="none" xmlns="http://www.w3.org/2000/svg">
<circle opacity="0.1" cx="40" cy="40" r="40" fill="#FFD020"/>
<g filter="url(#filter0_d_478_19167)">
<path opacity="0.3" d="M49.218 18H30.782C22.774 18 18 22.774 18 30.782V49.218C18 57.226 22.774 62 30.782 62H49.218C57.226 62 62 57.226 62 49.218V30.782C62 22.774 57.226 18 49.218 18Z" fill="#FFD020"/>
<path d="M53.8832 33.1139C53.8832 34.0159 53.1572 34.7639 52.2332 34.7639H40.6832C39.7812 34.7639 39.0332 34.0159 39.0332 33.1139C39.0332 32.2119 39.7812 31.4639 40.6832 31.4639H52.2332C53.1572 31.4639 53.8832 32.2119 53.8832 33.1139Z" fill="#FFD020"/>
<path d="M35.5344 30.9794L30.5844 35.9294C30.2544 36.2594 29.8364 36.4134 29.4184 36.4134C29.0004 36.4134 28.5604 36.2594 28.2524 35.9294L26.6024 34.2794C25.9424 33.6414 25.9424 32.5854 26.6024 31.9474C27.2404 31.3094 28.2744 31.3094 28.9344 31.9474L29.4184 32.4314L33.2024 28.6474C33.8404 28.0094 34.8744 28.0094 35.5344 28.6474C36.1724 29.2854 36.1724 30.3414 35.5344 30.9794Z" fill="#FFD020"/>
<path d="M53.8832 48.5143C53.8832 49.4163 53.1572 50.1643 52.2332 50.1643H40.6832C39.7812 50.1643 39.0332 49.4163 39.0332 48.5143C39.0332 47.6123 39.7812 46.8643 40.6832 46.8643H52.2332C53.1572 46.8643 53.8832 47.6123 53.8832 48.5143Z" fill="#FFD020"/>
<path d="M35.5344 46.3798L30.5844 51.3298C30.2544 51.6598 29.8364 51.8138 29.4184 51.8138C29.0004 51.8138 28.5604 51.6598 28.2524 51.3298L26.6024 49.6798C25.9424 49.0418 25.9424 47.9858 26.6024 47.3478C27.2404 46.7098 28.2744 46.7098 28.9344 47.3478L29.4184 47.8318L33.2024 44.0478C33.8404 43.4098 34.8744 43.4098 35.5344 44.0478C36.1724 44.6858 36.1724 45.7418 35.5344 46.3798Z" fill="#FFD020"/>
</g>
<defs>
<filter id="filter0_d_478_19167" x="0" y="2" width="80" height="80" filterUnits="userSpaceOnUse" color-interpolation-filters="sRGB">
<feFlood flood-opacity="0" result="BackgroundImageFix"/>
<feColorMatrix in="SourceAlpha" type="matrix" values="0 0 0 0 0 0 0 0 0 0 0 0 0 0 0 0 0 0 127 0" result="hardAlpha"/>
<feOffset dy="2"/>
<feGaussianBlur stdDeviation="9"/>
<feColorMatrix type="matrix" values="0 0 0 0 1 0 0 0 0 0.815686 0 0 0 0 0.12549 0 0 0 0.2 0"/>
<feBlend mode="normal" in2="BackgroundImageFix" result="effect1_dropShadow_478_19167"/>
<feBlend mode="normal" in="SourceGraphic" in2="effect1_dropShadow_478_19167" result="shape"/>
</filter>
</defs>
</svg>
