<svg width="80" height="80" viewBox="0 0 80 80" fill="none" xmlns="http://www.w3.org/2000/svg">
<circle cx="40" cy="40" r="40" fill="#FFD020"/>
<g filter="url(#filter0_d_478_19215)">
<path opacity="0.3" d="M40.0007 40.0003C45.0633 40.0003 49.1673 35.8963 49.1673 30.8337C49.1673 25.771 45.0633 21.667 40.0007 21.667C34.938 21.667 30.834 25.771 30.834 30.8337C30.834 35.8963 34.938 40.0003 40.0007 40.0003Z" fill="white"/>
<path d="M40.0009 44.583C30.8159 44.583 23.3359 50.743 23.3359 58.333C23.3359 58.8463 23.7393 59.2497 24.2526 59.2497H55.7493C56.2626 59.2497 56.6659 58.8463 56.6659 58.333C56.6659 50.743 49.1859 44.583 40.0009 44.583Z" fill="white"/>
</g>
<defs>
<filter id="filter0_d_478_19215" x="0" y="2" width="80" height="80" filterUnits="userSpaceOnUse" color-interpolation-filters="sRGB">
<feFlood flood-opacity="0" result="BackgroundImageFix"/>
<feColorMatrix in="SourceAlpha" type="matrix" values="0 0 0 0 0 0 0 0 0 0 0 0 0 0 0 0 0 0 127 0" result="hardAlpha"/>
<feOffset dy="2"/>
<feGaussianBlur stdDeviation="9"/>
<feColorMatrix type="matrix" values="0 0 0 0 1 0 0 0 0 1 0 0 0 0 1 0 0 0 0.4 0"/>
<feBlend mode="normal" in2="BackgroundImageFix" result="effect1_dropShadow_478_19215"/>
<feBlend mode="normal" in="SourceGraphic" in2="effect1_dropShadow_478_19215" result="shape"/>
</filter>
</defs>
</svg>
