<svg width="80" height="80" viewBox="0 0 80 80" fill="none" xmlns="http://www.w3.org/2000/svg">
<circle cx="40" cy="40" r="40" fill="#FFD020"/>
<g filter="url(#filter0_d_480_18998)">
<path opacity="0.3" d="M57.8945 47.187L46.1612 26.067C44.5845 23.2253 42.4028 21.667 40.0012 21.667C37.5995 21.667 35.4178 23.2253 33.8412 26.067L22.1078 47.187C20.6228 49.882 20.4578 52.467 21.6495 54.502C22.8412 56.537 25.1878 57.6553 28.2678 57.6553H51.7345C54.8145 57.6553 57.1612 56.537 58.3528 54.502C59.5445 52.467 59.3795 49.8637 57.8945 47.187Z" fill="white"/>
<path d="M40 45.0417C39.2483 45.0417 38.625 44.4183 38.625 43.6667V34.5C38.625 33.7483 39.2483 33.125 40 33.125C40.7517 33.125 41.375 33.7483 41.375 34.5V43.6667C41.375 44.4183 40.7517 45.0417 40 45.0417Z" fill="white"/>
<path d="M39.9993 50.9994C39.8893 50.9994 39.761 50.981 39.6327 50.9627C39.5227 50.9444 39.4127 50.9077 39.3027 50.8527C39.1927 50.816 39.0827 50.761 38.9727 50.6877C38.881 50.6144 38.7893 50.541 38.6977 50.4677C38.3677 50.1194 38.166 49.6427 38.166 49.166C38.166 48.6894 38.3677 48.2127 38.6977 47.8644C38.7893 47.791 38.881 47.7177 38.9727 47.6444C39.0827 47.571 39.1927 47.516 39.3027 47.4794C39.4127 47.4244 39.5227 47.3877 39.6327 47.3694C39.871 47.3144 40.1277 47.3144 40.3477 47.3694C40.476 47.3877 40.586 47.4244 40.696 47.4794C40.806 47.516 40.916 47.571 41.026 47.6444C41.1177 47.7177 41.2093 47.791 41.301 47.8644C41.631 48.2127 41.8327 48.6894 41.8327 49.166C41.8327 49.6427 41.631 50.1194 41.301 50.4677C41.2093 50.541 41.1177 50.6144 41.026 50.6877C40.916 50.761 40.806 50.816 40.696 50.8527C40.586 50.9077 40.476 50.9444 40.3477 50.9627C40.2377 50.981 40.1093 50.9994 39.9993 50.9994Z" fill="white"/>
</g>
<defs>
<filter id="filter0_d_480_18998" x="0" y="2" width="80" height="80" filterUnits="userSpaceOnUse" color-interpolation-filters="sRGB">
<feFlood flood-opacity="0" result="BackgroundImageFix"/>
<feColorMatrix in="SourceAlpha" type="matrix" values="0 0 0 0 0 0 0 0 0 0 0 0 0 0 0 0 0 0 127 0" result="hardAlpha"/>
<feOffset dy="2"/>
<feGaussianBlur stdDeviation="9"/>
<feColorMatrix type="matrix" values="0 0 0 0 1 0 0 0 0 1 0 0 0 0 1 0 0 0 0.4 0"/>
<feBlend mode="normal" in2="BackgroundImageFix" result="effect1_dropShadow_480_18998"/>
<feBlend mode="normal" in="SourceGraphic" in2="effect1_dropShadow_480_18998" result="shape"/>
</filter>
</defs>
</svg>

