<svg width="50" height="50" viewBox="0 0 50 50" fill="none" xmlns="http://www.w3.org/2000/svg">
<rect width="50" height="50" rx="8" fill="#F58986" fill-opacity="0.12"/>
<g filter="url(#filter0_d_981_6054)">
<path d="M31.5567 23.5415C31.055 23.5415 30.6584 23.1332 30.6584 22.6432C30.6584 22.2115 30.2267 21.3132 29.5034 20.5315C28.7917 19.7732 28.01 19.3299 27.3567 19.3299C26.855 19.3299 26.4584 18.9215 26.4584 18.4315C26.4584 17.9415 26.8667 17.5332 27.3567 17.5332C28.5234 17.5332 29.7484 18.1632 30.8217 19.2949C31.825 20.3565 32.4667 21.6749 32.4667 22.6315C32.4667 23.1332 32.0584 23.5415 31.5567 23.5415Z" fill="#F58986"/>
<path d="M35.7683 23.5413C35.2666 23.5413 34.87 23.133 34.87 22.643C34.87 18.5013 31.4983 15.1413 27.3683 15.1413C26.8666 15.1413 26.47 14.733 26.47 14.243C26.47 13.753 26.8666 13.333 27.3566 13.333C32.49 13.333 36.6666 17.5097 36.6666 22.643C36.6666 23.133 36.2583 23.5413 35.7683 23.5413Z" fill="#F58986"/>
<path opacity="0.3" d="M24.755 27.578L20.94 31.393C20.52 31.0197 20.1117 30.6347 19.715 30.238C18.5134 29.0247 17.4284 27.753 16.46 26.423C15.5034 25.093 14.7334 23.763 14.1734 22.4447C13.6134 21.1147 13.3334 19.843 13.3334 18.6297C13.3334 17.8363 13.4734 17.078 13.7534 16.378C14.0334 15.6663 14.4767 15.013 15.095 14.4297C15.8417 13.6947 16.6584 13.333 17.5217 13.333C17.8484 13.333 18.175 13.403 18.4667 13.543C18.77 13.683 19.0384 13.893 19.2484 14.1963L21.955 18.0113C22.165 18.303 22.3167 18.5713 22.4217 18.828C22.5267 19.073 22.585 19.318 22.585 19.5397C22.585 19.8197 22.5034 20.0997 22.34 20.368C22.1884 20.6363 21.9667 20.9163 21.6867 21.1963L20.8 22.118C20.6717 22.2463 20.6134 22.398 20.6134 22.5847C20.6134 22.678 20.625 22.7597 20.6484 22.853C20.6834 22.9463 20.7184 23.0163 20.7417 23.0863C20.9517 23.4713 21.3134 23.973 21.8267 24.5797C22.3517 25.1863 22.9117 25.8047 23.5184 26.423C23.9384 26.8313 24.3467 27.228 24.755 27.578Z" fill="#F58986"/>
<path d="M36.6317 32.3849C36.6317 32.7115 36.5734 33.0499 36.4567 33.3765C36.4217 33.4699 36.3867 33.5632 36.3401 33.6565C36.1417 34.0765 35.8851 34.4732 35.5467 34.8465C34.9751 35.4765 34.3451 35.9315 33.6334 36.2232C33.6217 36.2232 33.6101 36.2349 33.5984 36.2349C32.9101 36.5149 32.1634 36.6665 31.3584 36.6665C30.1684 36.6665 28.8967 36.3865 27.5551 35.8149C26.2134 35.2432 24.8717 34.4732 23.5417 33.5049C23.0867 33.1665 22.6317 32.8282 22.2001 32.4665L26.0151 28.6515C26.3417 28.8965 26.6334 29.0832 26.8784 29.2115C26.9367 29.2349 27.0067 29.2699 27.0884 29.3049C27.1817 29.3399 27.2751 29.3515 27.3801 29.3515C27.5784 29.3515 27.7301 29.2815 27.8584 29.1532L28.7451 28.2782C29.0367 27.9865 29.3167 27.7649 29.5851 27.6249C29.8534 27.4615 30.1217 27.3799 30.4134 27.3799C30.6351 27.3799 30.8684 27.4265 31.1251 27.5315C31.3817 27.6365 31.6501 27.7882 31.9417 27.9865L35.8034 30.7282C36.1067 30.9382 36.3167 31.1832 36.4451 31.4749C36.5617 31.7665 36.6317 32.0582 36.6317 32.3849Z" fill="#F58986"/>
</g>
<defs>
<filter id="filter0_d_981_6054" x="3" y="7" width="44" height="44" filterUnits="userSpaceOnUse" color-interpolation-filters="sRGB">
<feFlood flood-opacity="0" result="BackgroundImageFix"/>
<feColorMatrix in="SourceAlpha" type="matrix" values="0 0 0 0 0 0 0 0 0 0 0 0 0 0 0 0 0 0 127 0" result="hardAlpha"/>
<feOffset dy="4"/>
<feGaussianBlur stdDeviation="4"/>
<feColorMatrix type="matrix" values="0 0 0 0 0.960784 0 0 0 0 0.537255 0 0 0 0 0.52549 0 0 0 0.26 0"/>
<feBlend mode="normal" in2="BackgroundImageFix" result="effect1_dropShadow_981_6054"/>
<feBlend mode="normal" in="SourceGraphic" in2="effect1_dropShadow_981_6054" result="shape"/>
</filter>
</defs>
</svg>
