<svg width="23" height="22" viewBox="0 0 23 22" fill="none" xmlns="http://www.w3.org/2000/svg">
<path d="M20.6391 16.8022C20.6391 17.1322 20.5658 17.4713 20.4099 17.8013C20.2541 18.1313 20.0524 18.443 19.7866 18.7363C19.3374 19.2313 18.8424 19.5888 18.2833 19.818C17.7333 20.0472 17.1374 20.1663 16.4958 20.1663C15.5608 20.1663 14.5616 19.9463 13.5074 19.4972C12.4533 19.048 11.3991 18.443 10.3541 17.6822C9.29992 16.9122 8.30075 16.0597 7.34742 15.1155C6.40325 14.1622 5.55075 13.163 4.78992 12.118C4.03825 11.073 3.43325 10.028 2.99325 8.99218C2.55325 7.94718 2.33325 6.94801 2.33325 5.99467C2.33325 5.37134 2.44325 4.77551 2.66325 4.22551C2.88325 3.66634 3.23159 3.15301 3.71742 2.69467C4.30409 2.11717 4.94575 1.83301 5.62409 1.83301C5.88075 1.83301 6.13742 1.88801 6.36659 1.99801C6.60492 2.10801 6.81575 2.27301 6.98075 2.51134L9.10742 5.50884C9.27242 5.73801 9.39158 5.94884 9.47408 6.15051C9.55658 6.34301 9.60242 6.53551 9.60242 6.70967C9.60242 6.92967 9.53825 7.14967 9.40992 7.36051C9.29075 7.57134 9.11658 7.79134 8.89658 8.01134L8.19992 8.73551C8.09908 8.83634 8.05325 8.95551 8.05325 9.10217C8.05325 9.17551 8.06242 9.23967 8.08075 9.31301C8.10825 9.38634 8.13575 9.44134 8.15409 9.49634C8.31909 9.79884 8.60325 10.193 9.00658 10.6697C9.41908 11.1463 9.85908 11.6322 10.3358 12.118C10.8308 12.6038 11.3074 13.053 11.7933 13.4655C12.2699 13.8688 12.6641 14.1438 12.9758 14.3088C13.0216 14.3272 13.0766 14.3547 13.1408 14.3822C13.2141 14.4097 13.2874 14.4188 13.3699 14.4188C13.5258 14.4188 13.6449 14.3638 13.7458 14.263L14.4424 13.5755C14.6716 13.3463 14.8916 13.1722 15.1024 13.0622C15.3133 12.9338 15.5241 12.8697 15.7533 12.8697C15.9274 12.8697 16.1108 12.9063 16.3124 12.9888C16.5141 13.0713 16.7249 13.1905 16.9541 13.3463L19.9883 15.5005C20.2266 15.6655 20.3916 15.858 20.4924 16.0872C20.5841 16.3163 20.6391 16.5455 20.6391 16.8022Z" stroke="#5E5F6E" stroke-width="1.5" stroke-miterlimit="10"/>
<path d="M17.4583 8.24935C17.4583 7.69935 17.0275 6.85602 16.3858 6.16852C15.7992 5.53602 15.02 5.04102 14.25 5.04102" stroke="#5E5F6E" stroke-width="1.5" stroke-linecap="round" stroke-linejoin="round"/>
<path d="M20.6667 8.24967C20.6667 4.70217 17.7975 1.83301 14.25 1.83301" stroke="#5E5F6E" stroke-width="1.5" stroke-linecap="round" stroke-linejoin="round"/>
</svg>
