<svg width="24" height="24" viewBox="0 0 24 24" fill="none" xmlns="http://www.w3.org/2000/svg">
<path d="M18 22L6 22C4.9 22 4 21.1 4 20L4 15.68L20 15.68V20C20 21.1 19.1 22 18 22Z" stroke="#282A3E" stroke-width="1.5" stroke-linecap="round" stroke-linejoin="round"/>
<path d="M20 15.6797V12.1197C20 11.0397 19.42 10.0397 18.47 9.5097L15.51 7.83972C14.88 7.48972 14.49 6.81967 14.49 6.09967V3.99969C14.49 2.89969 13.59 1.99969 12.49 1.99969H11.49C10.39 1.99969 9.48999 2.89969 9.48999 3.99969L9.48999 6.09967C9.48999 6.81967 9.09997 7.48972 8.46997 7.83972L5.51001 9.5097C4.57001 10.0397 3.97998 11.0397 3.97998 12.1197V15.6797L20 15.6797Z" stroke="#282A3E" stroke-width="1.5" stroke-linecap="round" stroke-linejoin="round"/>
</svg>
