<svg width="20" height="20" viewBox="0 0 20 20" fill="none" xmlns="http://www.w3.org/2000/svg">
<path d="M5.00016 18.334H15.0002C15.9168 18.334 16.6668 17.584 16.6668 16.6673V13.0673H3.3335V16.6673C3.3335 17.584 4.0835 18.334 5.00016 18.334Z" stroke="#9899A2" stroke-width="1.5" stroke-linecap="round" stroke-linejoin="round"/>
<path d="M3.3335 13.0664V10.0997C3.3335 9.19974 3.81685 8.36642 4.60852 7.92475L7.07515 6.5331C7.60015 6.24144 7.92517 5.68306 7.92517 5.08306V3.33308C7.92517 2.41641 8.67517 1.66641 9.59184 1.66641H10.4252C11.3418 1.66641 12.0918 2.41641 12.0918 3.33308V5.08306C12.0918 5.68306 12.4169 6.24144 12.9419 6.5331L15.4085 7.92475C16.1918 8.36642 16.6835 9.19974 16.6835 10.0997V13.0664H3.3335Z" stroke="#9899A2" stroke-width="1.5" stroke-linecap="round" stroke-linejoin="round"/>
</svg>
