<svg width="50" height="50" viewBox="0 0 50 50" fill="none" xmlns="http://www.w3.org/2000/svg">
<path opacity="0.2" d="M45.3337 33.1667L32.0003 9.16675C30.2087 5.93758 27.7295 4.16675 25.0003 4.16675C22.2712 4.16675 19.792 5.93758 18.0003 9.16675L4.66699 33.1667C2.97949 36.2292 2.79199 39.1667 4.14615 41.4792C5.50032 43.7917 8.16699 45.0626 11.667 45.0626H38.3336C41.8336 45.0626 44.5003 43.7917 45.8545 41.4792C47.2087 39.1667 47.0212 36.2084 45.3337 33.1667Z" fill="white"/>
<path d="M25 30.7292C24.1458 30.7292 23.4375 30.0208 23.4375 29.1667V18.75C23.4375 17.8958 24.1458 17.1875 25 17.1875C25.8542 17.1875 26.5625 17.8958 26.5625 18.75V29.1667C26.5625 30.0208 25.8542 30.7292 25 30.7292Z" fill="white"/>
<path d="M24.9998 37.5C24.8748 37.5 24.729 37.4792 24.5832 37.4583C24.4582 37.4375 24.3332 37.3958 24.2082 37.3333C24.0832 37.2917 23.9582 37.2292 23.8332 37.1458C23.729 37.0625 23.6248 36.9792 23.5207 36.8958C23.1457 36.5 22.9165 35.9583 22.9165 35.4167C22.9165 34.875 23.1457 34.3333 23.5207 33.9375C23.6248 33.8542 23.729 33.7708 23.8332 33.6875C23.9582 33.6042 24.0832 33.5417 24.2082 33.5C24.3332 33.4375 24.4582 33.3958 24.5832 33.375C24.854 33.3125 25.1457 33.3125 25.3957 33.375C25.5415 33.3958 25.6665 33.4375 25.7915 33.5C25.9165 33.5417 26.0415 33.6042 26.1665 33.6875C26.2707 33.7708 26.3748 33.8542 26.479 33.9375C26.854 34.3333 27.0832 34.875 27.0832 35.4167C27.0832 35.9583 26.854 36.5 26.479 36.8958C26.3748 36.9792 26.2707 37.0625 26.1665 37.1458C26.0415 37.2292 25.9165 37.2917 25.7915 37.3333C25.6665 37.3958 25.5415 37.4375 25.3957 37.4583C25.2707 37.4792 25.1248 37.5 24.9998 37.5Z" fill="white"/>
</svg>
