<svg width="14" height="15" viewBox="0 0 14 15" fill="none" xmlns="http://www.w3.org/2000/svg">
<path d="M9.08832 7.49995C9.08832 8.65495 8.15499 9.58829 6.99999 9.58829C5.84499 9.58829 4.91165 8.65495 4.91165 7.49995C4.91165 6.34495 5.84499 5.41162 6.99999 5.41162C8.15499 5.41162 9.08832 6.34495 9.08832 7.49995Z" stroke="#48EA81" stroke-width="1.2" stroke-linecap="round" stroke-linejoin="round"/>
<path d="M7 12.3241C9.05917 12.3241 10.9783 11.1108 12.3142 9.01075C12.8392 8.18825 12.8392 6.80575 12.3142 5.98325C10.9783 3.88325 9.05917 2.66992 7 2.66992C4.94083 2.66992 3.02167 3.88325 1.68583 5.98325C1.16083 6.80575 1.16083 8.18825 1.68583 9.01075C3.02167 11.1108 4.94083 12.3241 7 12.3241Z" stroke="#48EA81" stroke-width="1.2" stroke-linecap="round" stroke-linejoin="round"/>
</svg>
