<svg width="36" height="36" viewBox="0 0 36 36" fill="none" xmlns="http://www.w3.org/2000/svg">
<path d="M23.3699 17.9999C23.3699 20.9699 20.9699 23.3699 17.9999 23.3699C15.0299 23.3699 12.6299 20.9699 12.6299 17.9999C12.6299 15.0299 15.0299 12.6299 17.9999 12.6299C20.9699 12.6299 23.3699 15.0299 23.3699 17.9999Z" stroke="#5E5F6E" stroke-width="2.5" stroke-linecap="round" stroke-linejoin="round"/>
<path d="M18 30.4051C23.295 30.4051 28.23 27.2851 31.665 21.8851C33.015 19.7701 33.015 16.2151 31.665 14.1001C28.23 8.70008 23.295 5.58008 18 5.58008C12.705 5.58008 7.77001 8.70008 4.33501 14.1001C2.98501 16.2151 2.98501 19.7701 4.33501 21.8851C7.77001 27.2851 12.705 30.4051 18 30.4051Z" stroke="#5E5F6E" stroke-width="2.5" stroke-linecap="round" stroke-linejoin="round"/>
</svg>
