<svg width="23" height="22" viewBox="0 0 23 22" fill="none" xmlns="http://www.w3.org/2000/svg">
<path d="M5.45003 1.9248H17.55C18.5584 1.9248 19.3834 2.7498 19.3834 3.75814V5.77481C19.3834 6.50814 18.925 7.42481 18.4667 7.88314L14.525 11.3665C13.975 11.8248 13.6084 12.7415 13.6084 13.4748V17.4165C13.6084 17.9665 13.2417 18.6998 12.7834 18.9748L11.5 19.7998C10.3084 20.5331 8.65837 19.7081 8.65837 18.2415V13.3831C8.65837 12.7415 8.2917 11.9165 7.92503 11.4581L4.4417 7.79147C3.98337 7.33314 3.6167 6.50814 3.6167 5.95814V3.8498C3.6167 2.7498 4.4417 1.9248 5.45003 1.9248Z" stroke="white" stroke-width="1.5" stroke-miterlimit="10" stroke-linecap="round" stroke-linejoin="round"/>
<path d="M10.5192 1.9248L6 9.16647" stroke="white" stroke-width="1.5" stroke-miterlimit="10" stroke-linecap="round" stroke-linejoin="round"/>
</svg>
