<svg width="20" height="21" viewBox="0 0 20 21" fill="none" xmlns="http://www.w3.org/2000/svg">
<path d="M4.50016 2.25H15.5002C16.4168 2.25 17.1668 3 17.1668 3.91667V5.75C17.1668 6.41667 16.7502 7.25 16.3335 7.66667L12.7502 10.8333C12.2502 11.25 11.9168 12.0833 11.9168 12.75V16.3333C11.9168 16.8333 11.5835 17.5 11.1668 17.75L10.0002 18.5C8.91683 19.1667 7.41683 18.4167 7.41683 17.0833V12.6667C7.41683 12.0833 7.0835 11.3333 6.75016 10.9167L3.5835 7.58333C3.16683 7.16667 2.8335 6.41667 2.8335 5.91667V4C2.8335 3 3.5835 2.25 4.50016 2.25Z" stroke="#5E5F6E" stroke-width="1.5" stroke-miterlimit="10" stroke-linecap="round" stroke-linejoin="round"/>
<path d="M9.10833 2.25L5 8.83333" stroke="#5E5F6E" stroke-width="1.5" stroke-miterlimit="10" stroke-linecap="round" stroke-linejoin="round"/>
</svg>
