<svg width="26" height="26" viewBox="0 0 26 26" fill="none" xmlns="http://www.w3.org/2000/svg">
<path d="M5.84977 2.2749H20.1498C21.3414 2.2749 22.3164 3.2499 22.3164 4.44157V6.8249C22.3164 7.69157 21.7748 8.7749 21.2331 9.31657L16.5748 13.4332C15.9248 13.9749 15.4914 15.0582 15.4914 15.9249V20.5832C15.4914 21.2332 15.0581 22.0999 14.5164 22.4249L12.9998 23.3999C11.5914 24.2666 9.64144 23.2916 9.64144 21.5582V15.8166C9.64144 15.0582 9.20811 14.0832 8.77477 13.5416L4.65811 9.20824C4.11644 8.66657 3.68311 7.69157 3.68311 7.04157V4.5499C3.68311 3.2499 4.65811 2.2749 5.84977 2.2749Z" stroke="#282A3E" stroke-width="1.5" stroke-miterlimit="10" stroke-linecap="round" stroke-linejoin="round"/>
<path d="M11.8408 2.2749L6.5 10.8332" stroke="#282A3E" stroke-width="1.5" stroke-miterlimit="10" stroke-linecap="round" stroke-linejoin="round"/>
</svg>
