<svg width="22" height="22" viewBox="0 0 22 22" fill="none" xmlns="http://www.w3.org/2000/svg">
<path opacity="0.4" d="M11 15.9041C11.8252 15.9041 12.4942 15.2351 12.4942 14.4099C12.4942 13.5847 11.8252 12.9158 11 12.9158C10.1748 12.9158 9.50583 13.5847 9.50583 14.4099C9.50583 15.2351 10.1748 15.9041 11 15.9041Z" fill="#48EA81"/>
<path d="M15.2625 8.65332H6.73751C2.97918 8.65332 1.83334 9.79915 1.83334 13.5575V15.2625C1.83334 19.0208 2.97918 20.1667 6.73751 20.1667H15.2625C19.0208 20.1667 20.1667 19.0208 20.1667 15.2625V13.5575C20.1667 9.79915 19.0208 8.65332 15.2625 8.65332ZM11 17.1783C9.46918 17.1783 8.23168 15.9317 8.23168 14.41C8.23168 12.8883 9.46918 11.6417 11 11.6417C12.5308 11.6417 13.7683 12.8883 13.7683 14.41C13.7683 15.9317 12.5308 17.1783 11 17.1783Z" fill="#48EA81"/>
<path opacity="0.4" d="M6.52668 8.66242V7.58992C6.52668 4.90408 7.28751 3.11659 11 3.11659C14.9692 3.11659 15.4733 5.05075 15.4733 6.73742C15.4733 7.09492 15.7575 7.37909 16.115 7.37909C16.4725 7.37909 16.7567 7.09492 16.7567 6.73742C16.7567 3.48325 14.8225 1.83325 11 1.83325C5.83918 1.83325 5.24335 5.11492 5.24335 7.58992V8.73575C5.62835 8.68992 6.05918 8.66242 6.52668 8.66242Z" fill="#48EA81"/>
</svg>
