<svg width="22" height="22" viewBox="0 0 22 22" fill="none" xmlns="http://www.w3.org/2000/svg">
<path d="M5.5 9.16658V7.33325C5.5 4.29909 6.41667 1.83325 11 1.83325C15.5833 1.83325 16.5 4.29909 16.5 7.33325V9.16658" stroke="#9899A2" stroke-width="1.5" stroke-linecap="round" stroke-linejoin="round"/>
<path d="M11 16.9583C12.2657 16.9583 13.2917 15.9323 13.2917 14.6667C13.2917 13.401 12.2657 12.375 11 12.375C9.73439 12.375 8.70837 13.401 8.70837 14.6667C8.70837 15.9323 9.73439 16.9583 11 16.9583Z" stroke="#9899A2" stroke-width="1.5" stroke-linecap="round" stroke-linejoin="round"/>
<path d="M15.5834 20.1667H6.41671C2.75004 20.1667 1.83337 19.2501 1.83337 15.5834V13.7501C1.83337 10.0834 2.75004 9.16675 6.41671 9.16675H15.5834C19.25 9.16675 20.1667 10.0834 20.1667 13.7501V15.5834C20.1667 19.2501 19.25 20.1667 15.5834 20.1667Z" stroke="#9899A2" stroke-width="1.5" stroke-linecap="round" stroke-linejoin="round"/>
</svg>
