<svg width="91" height="16" viewBox="0 0 91 16" fill="none" xmlns="http://www.w3.org/2000/svg">
<path d="M5.58 15.126C4.704 15.126 3.912 14.976 3.204 14.676C2.508 14.376 1.956 13.944 1.548 13.38C1.14 12.816 0.93 12.15 0.918 11.382H3.618C3.654 11.898 3.834 12.306 4.158 12.606C4.494 12.906 4.95 13.056 5.526 13.056C6.114 13.056 6.576 12.918 6.912 12.642C7.248 12.354 7.416 11.982 7.416 11.526C7.416 11.154 7.302 10.848 7.074 10.608C6.846 10.368 6.558 10.182 6.21 10.05C5.874 9.906 5.406 9.75 4.806 9.582C3.99 9.342 3.324 9.108 2.808 8.88C2.304 8.64 1.866 8.286 1.494 7.818C1.134 7.338 0.954 6.702 0.954 5.91C0.954 5.166 1.14 4.518 1.512 3.966C1.884 3.414 2.406 2.994 3.078 2.706C3.75 2.406 4.518 2.256 5.382 2.256C6.678 2.256 7.728 2.574 8.532 3.21C9.348 3.834 9.798 4.71 9.882 5.838H7.11C7.086 5.406 6.9 5.052 6.552 4.776C6.216 4.488 5.766 4.344 5.202 4.344C4.71 4.344 4.314 4.47 4.014 4.722C3.726 4.974 3.582 5.34 3.582 5.82C3.582 6.156 3.69 6.438 3.906 6.666C4.134 6.882 4.41 7.062 4.734 7.206C5.07 7.338 5.538 7.494 6.138 7.674C6.954 7.914 7.62 8.154 8.136 8.394C8.652 8.634 9.096 8.994 9.468 9.474C9.84 9.954 10.026 10.584 10.026 11.364C10.026 12.036 9.852 12.66 9.504 13.236C9.156 13.812 8.646 14.274 7.974 14.622C7.302 14.958 6.504 15.126 5.58 15.126ZM21.6248 5.028V15H19.0868V13.74C18.7628 14.172 18.3368 14.514 17.8088 14.766C17.2928 15.006 16.7288 15.126 16.1168 15.126C15.3368 15.126 14.6468 14.964 14.0468 14.64C13.4468 14.304 12.9728 13.818 12.6248 13.182C12.2888 12.534 12.1208 11.766 12.1208 10.878V5.028H14.6408V10.518C14.6408 11.31 14.8388 11.922 15.2348 12.354C15.6308 12.774 16.1708 12.984 16.8548 12.984C17.5508 12.984 18.0968 12.774 18.4928 12.354C18.8888 11.922 19.0868 11.31 19.0868 10.518V5.028H21.6248ZM29.6371 4.884C30.8251 4.884 31.7851 5.262 32.5171 6.018C33.2491 6.762 33.6151 7.806 33.6151 9.15V15H31.0951V9.492C31.0951 8.7 30.8971 8.094 30.5011 7.674C30.1051 7.242 29.5651 7.026 28.8811 7.026C28.1851 7.026 27.6331 7.242 27.2251 7.674C26.8291 8.094 26.6311 8.7 26.6311 9.492V15H24.1111V5.028H26.6311V6.27C26.9671 5.838 27.3931 5.502 27.9091 5.262C28.4371 5.01 29.0131 4.884 29.6371 4.884Z" fill="#FFD020"/>
<path d="M40.5835 7.098H38.8375V15H36.2815V7.098H35.1475V5.028H36.2815V4.524C36.2815 3.3 36.6295 2.4 37.3255 1.824C38.0215 1.248 39.0715 0.978 40.4755 1.014V3.138C39.8635 3.126 39.4375 3.228 39.1975 3.444C38.9575 3.66 38.8375 4.05 38.8375 4.614V5.028H40.5835V7.098ZM44.7366 1.68V15H42.2166V1.68H44.7366ZM51.6544 15.162C50.6944 15.162 49.8304 14.952 49.0624 14.532C48.2944 14.1 47.6884 13.494 47.2444 12.714C46.8124 11.934 46.5964 11.034 46.5964 10.014C46.5964 8.994 46.8184 8.094 47.2624 7.314C47.7184 6.534 48.3364 5.934 49.1164 5.514C49.8964 5.082 50.7664 4.866 51.7264 4.866C52.6864 4.866 53.5564 5.082 54.3364 5.514C55.1164 5.934 55.7284 6.534 56.1724 7.314C56.6284 8.094 56.8564 8.994 56.8564 10.014C56.8564 11.034 56.6224 11.934 56.1544 12.714C55.6984 13.494 55.0744 14.1 54.2824 14.532C53.5024 14.952 52.6264 15.162 51.6544 15.162ZM51.6544 12.966C52.1104 12.966 52.5364 12.858 52.9324 12.642C53.3404 12.414 53.6644 12.078 53.9044 11.634C54.1444 11.19 54.2644 10.65 54.2644 10.014C54.2644 9.066 54.0124 8.34 53.5084 7.836C53.0164 7.32 52.4104 7.062 51.6904 7.062C50.9704 7.062 50.3644 7.32 49.8724 7.836C49.3924 8.34 49.1524 9.066 49.1524 10.014C49.1524 10.962 49.3864 11.694 49.8544 12.21C50.3344 12.714 50.9344 12.966 51.6544 12.966ZM72.5289 5.028L69.6129 15H66.8949L65.0769 8.034L63.2589 15H60.5229L57.5889 5.028H60.1449L61.9089 12.624L63.8169 5.028H66.4809L68.3529 12.606L70.1169 5.028H72.5289ZM83.1624 9.798C83.1624 10.158 83.1384 10.482 83.0904 10.77H75.8004C75.8604 11.49 76.1124 12.054 76.5564 12.462C77.0004 12.87 77.5464 13.074 78.1944 13.074C79.1304 13.074 79.7964 12.672 80.1924 11.868H82.9104C82.6224 12.828 82.0704 13.62 81.2544 14.244C80.4384 14.856 79.4364 15.162 78.2484 15.162C77.2884 15.162 76.4244 14.952 75.6564 14.532C74.9004 14.1 74.3064 13.494 73.8744 12.714C73.4544 11.934 73.2444 11.034 73.2444 10.014C73.2444 8.982 73.4544 8.076 73.8744 7.296C74.2944 6.516 74.8824 5.916 75.6384 5.496C76.3944 5.076 77.2644 4.866 78.2484 4.866C79.1964 4.866 80.0424 5.07 80.7864 5.478C81.5424 5.886 82.1244 6.468 82.5324 7.224C82.9524 7.968 83.1624 8.826 83.1624 9.798ZM80.5524 9.078C80.5404 8.43 80.3064 7.914 79.8504 7.53C79.3944 7.134 78.8364 6.936 78.1764 6.936C77.5524 6.936 77.0244 7.128 76.5924 7.512C76.1724 7.884 75.9144 8.406 75.8184 9.078H80.5524ZM87.5218 6.576C87.8458 6.048 88.2658 5.634 88.7818 5.334C89.3098 5.034 89.9098 4.884 90.5818 4.884V7.53H89.9158C89.1238 7.53 88.5238 7.716 88.1158 8.088C87.7198 8.46 87.5218 9.108 87.5218 10.032V15H85.0018V5.028H87.5218V6.576Z" fill="white"/>
</svg>
