<svg width="65" height="67" viewBox="0 0 65 67" fill="none" xmlns="http://www.w3.org/2000/svg">
<rect opacity="0.12" width="65" height="65" rx="8" fill="#F58986"/>
<g filter="url(#filter0_d_0_1)">
<path opacity="0.3" d="M32.5 51.25C42.8553 51.25 51.25 42.8553 51.25 32.5C51.25 22.1447 42.8553 13.75 32.5 13.75C22.1447 13.75 13.75 22.1447 13.75 32.5C13.75 42.8553 22.1447 51.25 32.5 51.25Z" fill="#F58986"/>
<path d="M32.5 35.7813C33.2687 35.7813 33.9062 35.1438 33.9062 34.375V25C33.9062 24.2313 33.2687 23.5938 32.5 23.5938C31.7313 23.5938 31.0938 24.2313 31.0938 25V34.375C31.0938 35.1438 31.7313 35.7813 32.5 35.7813Z" fill="#F58986"/>
<path d="M34.225 39.2879C34.1313 39.0629 34 38.8566 33.8313 38.6691C33.6438 38.5004 33.4375 38.3691 33.2125 38.2754C32.7625 38.0879 32.2375 38.0879 31.7875 38.2754C31.5625 38.3691 31.3563 38.5004 31.1688 38.6691C31 38.8566 30.8687 39.0629 30.775 39.2879C30.6812 39.5129 30.625 39.7566 30.625 40.0004C30.625 40.2441 30.6812 40.4879 30.775 40.7129C30.8687 40.9566 31 41.1441 31.1688 41.3316C31.3563 41.5004 31.5625 41.6316 31.7875 41.7254C32.0125 41.8191 32.2563 41.8754 32.5 41.8754C32.7438 41.8754 32.9875 41.8191 33.2125 41.7254C33.4375 41.6316 33.6438 41.5004 33.8313 41.3316C34 41.1441 34.1313 40.9566 34.225 40.7129C34.3188 40.4879 34.375 40.2441 34.375 40.0004C34.375 39.7566 34.3188 39.5129 34.225 39.2879Z" fill="#F58986"/>
</g>
<defs>
<filter id="filter0_d_0_1" x="0" y="5" width="65" height="65" filterUnits="userSpaceOnUse" color-interpolation-filters="sRGB">
<feFlood flood-opacity="0" result="BackgroundImageFix"/>
<feColorMatrix in="SourceAlpha" type="matrix" values="0 0 0 0 0 0 0 0 0 0 0 0 0 0 0 0 0 0 127 0" result="hardAlpha"/>
<feOffset dy="5"/>
<feGaussianBlur stdDeviation="5"/>
<feColorMatrix type="matrix" values="0 0 0 0 0.960784 0 0 0 0 0.537255 0 0 0 0 0.52549 0 0 0 0.28 0"/>
<feBlend mode="normal" in2="BackgroundImageFix" result="effect1_dropShadow_0_1"/>
<feBlend mode="normal" in="SourceGraphic" in2="effect1_dropShadow_0_1" result="shape"/>
</filter>
</defs>
</svg>
