<svg width="23" height="22" viewBox="0 0 23 22" fill="none" xmlns="http://www.w3.org/2000/svg">
<path d="M20.6666 5.95825H15.1666" stroke="#5E5F6E" stroke-width="1.5" stroke-miterlimit="10" stroke-linecap="round" stroke-linejoin="round"/>
<path d="M6.00004 5.95825H2.33337" stroke="#5E5F6E" stroke-width="1.5" stroke-miterlimit="10" stroke-linecap="round" stroke-linejoin="round"/>
<path d="M9.66671 9.16667C11.4386 9.16667 12.875 7.73025 12.875 5.95833C12.875 4.18642 11.4386 2.75 9.66671 2.75C7.89479 2.75 6.45837 4.18642 6.45837 5.95833C6.45837 7.73025 7.89479 9.16667 9.66671 9.16667Z" stroke="#5E5F6E" stroke-width="1.5" stroke-miterlimit="10" stroke-linecap="round" stroke-linejoin="round"/>
<path d="M20.6667 16.0417H17" stroke="#5E5F6E" stroke-width="1.5" stroke-miterlimit="10" stroke-linecap="round" stroke-linejoin="round"/>
<path d="M7.83337 16.0417H2.33337" stroke="#5E5F6E" stroke-width="1.5" stroke-miterlimit="10" stroke-linecap="round" stroke-linejoin="round"/>
<path d="M13.3333 19.2499C15.1052 19.2499 16.5417 17.8135 16.5417 16.0416C16.5417 14.2697 15.1052 12.8333 13.3333 12.8333C11.5614 12.8333 10.125 14.2697 10.125 16.0416C10.125 17.8135 11.5614 19.2499 13.3333 19.2499Z" stroke="#5E5F6E" stroke-width="1.5" stroke-miterlimit="10" stroke-linecap="round" stroke-linejoin="round"/>
</svg>
