<svg width="21" height="22" viewBox="0 0 21 22" fill="none" xmlns="http://www.w3.org/2000/svg">
<path d="M18.375 6.23047C15.4613 5.94172 12.53 5.79297 9.6075 5.79297C7.875 5.79297 6.1425 5.88047 4.41 6.05547L2.625 6.23047" stroke="#5E5F6E" stroke-width="1.5" stroke-linecap="round" stroke-linejoin="round"/>
<path d="M7.4375 5.3468L7.63 4.20055C7.77 3.3693 7.875 2.74805 9.35375 2.74805H11.6463C13.125 2.74805 13.2387 3.4043 13.37 4.2093L13.5625 5.3468" stroke="#5E5F6E" stroke-width="1.5" stroke-linecap="round" stroke-linejoin="round"/>
<path d="M16.4938 8.99512L15.9251 17.8064C15.8288 19.1801 15.7501 20.2476 13.3088 20.2476H7.69135C5.2501 20.2476 5.17135 19.1801 5.0751 17.8064L4.50635 8.99512" stroke="#5E5F6E" stroke-width="1.5" stroke-linecap="round" stroke-linejoin="round"/>
<path d="M9.03857 15.4355H11.9523" stroke="#5E5F6E" stroke-width="1.5" stroke-linecap="round" stroke-linejoin="round"/>
<path d="M8.3125 11.9355H12.6875" stroke="#5E5F6E" stroke-width="1.5" stroke-linecap="round" stroke-linejoin="round"/>
</svg>
